<svg xmlns="http://www.w3.org/2000/svg" xmlns:xlink="http://www.w3.org/1999/xlink" xml:space="preserve" width="135.65" height="136.98"><defs><clipPath id="i"><use xlink:href="#a" style="overflow:visible"/></clipPath><clipPath id="j"><use xlink:href="#b" style="overflow:visible"/></clipPath><clipPath id="k"><use xlink:href="#c" style="overflow:visible"/></clipPath><clipPath id="l"><use xlink:href="#d" style="overflow:visible"/></clipPath><clipPath id="m"><use xlink:href="#e" style="overflow:visible"/></clipPath><clipPath id="n"><use xlink:href="#f" style="overflow:visible"/></clipPath><clipPath id="o"><use xlink:href="#g" style="overflow:visible"/></clipPath><path id="a" d="M83.3 131.4c-2.2 9.2-3.3 19.1-3.3 29.9v5.4h18.7c-3.1-14.9-8.7-26.4-15.4-35.3Z"/><path id="b" d="M40 102.2v22.4c3.4 1.3 7.1 3 10.7 5.2 9.6 5.9 16.9 14.1 21.8 24.6v-34.9c-3.9-3.4-7.8-6.2-11.6-8.4-7.3-4.3-14.6-7.1-20.9-8.9Z"/><path id="c" d="M80.1 116.2c4.8-12.7 12-23.7 21.3-33V37.5H80.1Z"/><path id="d" d="M85.9 122.4c6 7 11.4 15.6 15.5 26.3V94.4c-6.8 8.1-11.9 17.4-15.5 28z"/><path id="e" d="M153.3 37.5H109v38.9c13.2-10.5 27.8-16.3 40-19.5 2-.5 4.1.7 4.6 2.7s-.7 4.1-2.7 4.6c-12.8 3.3-28.5 9.7-41.9 22.1v35.8c3.2-7 7.5-13.2 12.8-18.5 10.6-10.5 23.7-15.9 34.3-18.7 2-.5 4.1.7 4.6 2.8.5 2-.7 4.1-2.7 4.6-5.3 1.4-11.4 3.5-17.3 6.7-21.3 11.6-31.7 32-31.7 62.2v5.4h44.3c8.8 0 15.9-7.1 15.9-15.9V53.3c0-8.7-7.1-15.8-15.9-15.8z"/><path id="f" d="M64.7 104.6c2.5 1.5 5.1 3.2 7.7 5.1V37.5H55.8c-8.8 0-15.9 7.1-15.9 15.9v41c7.4 1.8 16.1 5 24.8 10.2z"/><path id="g" d="M46 136c-2-1.2-4.1-2.2-6.1-3.1v17.9c0 8.8 7.1 15.9 15.9 15.9h13.1C64.8 152.9 57.2 142.6 46 136Z"/><filter id="h" width="1.06" height="1.06" x="-.03" y="-.03" color-interpolation-filters="sRGB"><feGaussianBlur stdDeviation="1.593"/></filter></defs><rect width="128" height="128" x="3.824" y="5.157" filter="url(#h)" opacity=".187" ry="16.444"/><path d="M46.824 93.076c-2.117 9.151-3.23 18.972-3.23 29.574v5.357h18.492c-3.231-14.731-8.801-26.115-15.262-34.931zM3.823 64.172V86.38a70.557 70.557 0 0 1 10.583 5.134c9.47 5.803 16.71 14.061 21.612 24.328V81.246c-3.788-3.348-7.687-6.138-11.474-8.37-7.241-4.24-14.37-6.919-20.72-8.704zm39.659 13.726C48.272 65.4 55.29 54.462 64.648 45.2V.002H43.482zm5.904 6.25c5.904 6.92 11.251 15.4 15.262 26.003V56.36c-6.684 8.035-11.809 17.298-15.262 27.788zM116.003.002H72.112v38.502c13.145-10.49 27.515-16.182 39.658-19.307 2.005-.558 4.122.67 4.567 2.678.557 2.009-.668 4.018-2.673 4.576-12.7 3.236-28.184 9.597-41.441 21.985v35.489c3.23-7.031 7.464-13.057 12.7-18.303 10.471-10.378 23.394-15.735 33.977-18.525 2.005-.558 4.121.67 4.567 2.678.557 2.009-.668 4.018-2.674 4.576-5.235 1.339-11.251 3.46-17.044 6.696C82.583 72.542 72.334 92.74 72.334 122.65v5.357h43.78c8.69 0 15.708-7.031 15.708-15.736V15.737c-.111-8.705-7.13-15.735-15.819-15.735zM28.331 66.515c2.451 1.451 5.013 3.125 7.576 5.134V.002H19.53c-8.69 0-15.708 7.03-15.708 15.735V56.36c7.353 1.785 15.93 4.91 24.508 10.155zM9.839 97.652c-2.005-1.228-4.01-2.232-6.016-3.125v17.744c0 8.705 7.019 15.736 15.708 15.736h12.922c-4.01-13.615-11.585-23.883-22.614-30.355z" style="fill:#786abf"/><path d="m145.5 37.5 20.3 27 3.4 19.8v47.1l-49.1 35.3H64.2L40 137.1v-54l24.4-45.6z" class="st0" style="fill:#fff" transform="matrix(.98995 0 0 .99071 -35.773 -37.15)"/><g class="st1" clip-path="url(#i)" transform="matrix(.98995 0 0 .99071 -35.773 -37.15)"><path d="M38.4 36.2h132.1v22H38.4z" class="st2" style="fill:#c80e0e"/><path d="M38.4 58.2h132.1v22H38.4z" class="st3" style="fill:#de511d"/><path d="M38.4 80.2h132.1v22H38.4z" class="st4" style="fill:#ffb100"/><path d="M38.4 102.3h132.1v22H38.4z" class="st5" style="fill:#7ab327"/><path d="M38.4 124.3h132.1v22H38.4z" class="st6" style="fill:#5068f5"/><path d="M38.4 146.3h132.1v22H38.4z" class="st7" style="fill:#9024fa"/></g><g class="st1" clip-path="url(#i)" transform="matrix(.98995 0 0 .99071 -35.773 -37.15)"><path d="M153.3 37.5H55.8c-8.8 0-15.9 7.1-15.9 15.9v97.4c0 8.8 7.1 15.9 15.9 15.9h97.5c8.8 0 15.9-7.1 15.9-15.9V53.3c0-8.7-7.1-15.8-15.9-15.8z" class="st8" style="fill:none;stroke:#eca1b5;stroke-width:10;stroke-miterlimit:10"/><path d="M169.2 102.4V66.1" class="st9" style="fill:none;stroke:#6ec6d4;stroke-width:10;stroke-miterlimit:10"/><path d="M169.2 135.5V99.4" class="st10" style="fill:none;stroke:#7d4d25;stroke-width:10;stroke-miterlimit:10"/><path d="M136.4 166.7h16.9c8.8 0 15.9-7.1 15.9-15.9v-15.3" class="st11" style="fill:none;stroke:#000;stroke-width:10;stroke-miterlimit:10"/><path d="M69.9 166.7h66.5" class="st10" style="fill:none;stroke:#7d4d25;stroke-width:10;stroke-miterlimit:10"/><path d="M40 135.5v15.3c0 8.8 7.1 15.9 15.9 15.9h16" class="st11" style="fill:none;stroke:#000;stroke-width:10;stroke-miterlimit:10"/><path d="M40 99.2v36.3" class="st10" style="fill:none;stroke:#7d4d25;stroke-width:10;stroke-miterlimit:10"/><path d="M40 65.8v33.4" class="st9" style="fill:none;stroke:#6ec6d4;stroke-width:10;stroke-miterlimit:10"/><path d="M136.4 37.5H69.9" class="st12" style="fill:none;stroke:#fafafa;stroke-width:10;stroke-miterlimit:10"/></g><g class="st13" clip-path="url(#j)" transform="matrix(.98995 0 0 .99071 -35.773 -37.15)"><path d="M38.4 36.2h132.1v22H38.4z" class="st2" style="fill:#c80e0e"/><path d="M38.4 58.2h132.1v22H38.4z" class="st3" style="fill:#de511d"/><path d="M38.4 80.2h132.1v22H38.4z" class="st4" style="fill:#ffb100"/><path d="M38.4 102.3h132.1v22H38.4z" class="st5" style="fill:#7ab327"/><path d="M38.4 124.3h132.1v22H38.4z" class="st6" style="fill:#5068f5"/><path d="M38.4 146.3h132.1v22H38.4z" class="st7" style="fill:#9024fa"/></g><g class="st13" clip-path="url(#j)" transform="matrix(.98995 0 0 .99071 -35.773 -37.15)"><path d="M153.3 37.5H55.8c-8.8 0-15.9 7.1-15.9 15.9v97.4c0 8.8 7.1 15.9 15.9 15.9h97.5c8.8 0 15.9-7.1 15.9-15.9V53.3c0-8.7-7.1-15.8-15.9-15.8z" class="st8" style="fill:none;stroke:#eca1b5;stroke-width:10;stroke-miterlimit:10"/><path d="M169.2 102.4V66.1" class="st9" style="fill:none;stroke:#6ec6d4;stroke-width:10;stroke-miterlimit:10"/><path d="M169.2 135.5V99.4" class="st10" style="fill:none;stroke:#7d4d25;stroke-width:10;stroke-miterlimit:10"/><path d="M136.4 166.7h16.9c8.8 0 15.9-7.1 15.9-15.9v-15.3" class="st11" style="fill:none;stroke:#000;stroke-width:10;stroke-miterlimit:10"/><path d="M69.9 166.7h66.5" class="st10" style="fill:none;stroke:#7d4d25;stroke-width:10;stroke-miterlimit:10"/><path d="M40 135.5v15.3c0 8.8 7.1 15.9 15.9 15.9h16" class="st11" style="fill:none;stroke:#000;stroke-width:10;stroke-miterlimit:10"/><path d="M40 99.2v36.3" class="st10" style="fill:none;stroke:#7d4d25;stroke-width:10;stroke-miterlimit:10"/><path d="M40 65.8v33.4" class="st9" style="fill:none;stroke:#6ec6d4;stroke-width:10;stroke-miterlimit:10"/><path d="M136.4 37.5H69.9" class="st12" style="fill:none;stroke:#fafafa;stroke-width:10;stroke-miterlimit:10"/></g><g class="st14" clip-path="url(#k)" transform="matrix(.98995 0 0 .99071 -35.773 -37.15)"><path d="M38.4 36.2h132.1v22H38.4z" class="st2" style="fill:#c80e0e"/><path d="M38.4 58.2h132.1v22H38.4z" class="st3" style="fill:#de511d"/><path d="M38.4 80.2h132.1v22H38.4z" class="st4" style="fill:#ffb100"/><path d="M38.4 102.3h132.1v22H38.4z" class="st5" style="fill:#7ab327"/><path d="M38.4 124.3h132.1v22H38.4z" class="st6" style="fill:#5068f5"/><path d="M38.4 146.3h132.1v22H38.4z" class="st7" style="fill:#9024fa"/></g><g class="st14" clip-path="url(#k)" transform="matrix(.98995 0 0 .99071 -35.773 -37.15)"><path d="M153.3 37.5H55.8c-8.8 0-15.9 7.1-15.9 15.9v97.4c0 8.8 7.1 15.9 15.9 15.9h97.5c8.8 0 15.9-7.1 15.9-15.9V53.3c0-8.7-7.1-15.8-15.9-15.8z" class="st8" style="fill:none;stroke:#eca1b5;stroke-width:10;stroke-miterlimit:10"/><path d="M169.2 102.4V66.1" class="st9" style="fill:none;stroke:#6ec6d4;stroke-width:10;stroke-miterlimit:10"/><path d="M169.2 135.5V99.4" class="st10" style="fill:none;stroke:#7d4d25;stroke-width:10;stroke-miterlimit:10"/><path d="M136.4 166.7h16.9c8.8 0 15.9-7.1 15.9-15.9v-15.3" class="st11" style="fill:none;stroke:#000;stroke-width:10;stroke-miterlimit:10"/><path d="M69.9 166.7h66.5" class="st10" style="fill:none;stroke:#7d4d25;stroke-width:10;stroke-miterlimit:10"/><path d="M40 135.5v15.3c0 8.8 7.1 15.9 15.9 15.9h16" class="st11" style="fill:none;stroke:#000;stroke-width:10;stroke-miterlimit:10"/><path d="M40 99.2v36.3" class="st10" style="fill:none;stroke:#7d4d25;stroke-width:10;stroke-miterlimit:10"/><path d="M40 65.8v33.4" class="st9" style="fill:none;stroke:#6ec6d4;stroke-width:10;stroke-miterlimit:10"/><path d="M136.4 37.5H69.9" class="st15" style="fill:none;stroke:#f0f0f0;stroke-width:10;stroke-miterlimit:10"/></g><g class="st16" clip-path="url(#l)" transform="matrix(.98995 0 0 .99071 -35.773 -37.15)"><path d="M38.4 36.2h132.1v22H38.4z" class="st2" style="fill:#c80e0e"/><path d="M38.4 58.2h132.1v22H38.4z" class="st3" style="fill:#de511d"/><path d="M38.4 80.2h132.1v22H38.4z" class="st4" style="fill:#ffb100"/><path d="M38.4 102.3h132.1v22H38.4z" class="st5" style="fill:#7ab327"/><path d="M38.4 124.3h132.1v22H38.4z" class="st6" style="fill:#5068f5"/><path d="M38.4 146.3h132.1v22H38.4z" class="st7" style="fill:#9024fa"/></g><g class="st17" clip-path="url(#m)" transform="matrix(.98995 0 0 .99071 -35.773 -37.15)"><path d="M38.4 36.2h132.1v22H38.4z" class="st2" style="fill:#c80e0e"/><path d="M38.4 58.2h132.1v22H38.4z" class="st3" style="fill:#de511d"/><path d="M38.4 80.2h132.1v22H38.4z" class="st4" style="fill:#ffb100"/><path d="M38.4 102.3h132.1v22H38.4z" class="st5" style="fill:#7ab327"/><path d="M38.4 124.3h132.1v22H38.4z" class="st6" style="fill:#5068f5"/><path d="M38.4 146.3h132.1v22H38.4z" class="st7" style="fill:#9024fa"/></g><g class="st17" clip-path="url(#m)" transform="matrix(.98995 0 0 .99071 -35.773 -37.15)"><path d="M153.3 37.5H55.8c-8.8 0-15.9 7.1-15.9 15.9v97.4c0 8.8 7.1 15.9 15.9 15.9h97.5c8.8 0 15.9-7.1 15.9-15.9V53.3c0-8.7-7.1-15.8-15.9-15.8z" class="st8" style="fill:none;stroke:#eca1b5;stroke-width:10;stroke-miterlimit:10"/><path d="M169.2 102.4V66.1" class="st9" style="fill:none;stroke:#6ec6d4;stroke-width:10;stroke-miterlimit:10"/><path d="M169.2 135.5v-33.1" class="st10" style="fill:none;stroke:#7d4d25;stroke-width:10;stroke-miterlimit:10"/><path d="M136.4 166.7h16.9c8.8 0 15.9-7.1 15.9-15.9v-23.3" class="st11" style="fill:none;stroke:#000;stroke-width:10;stroke-miterlimit:10"/><path d="M69.9 166.7h66.5" class="st10" style="fill:none;stroke:#7d4d25;stroke-width:10;stroke-miterlimit:10"/><path d="M40 135.5v15.3c0 8.8 7.1 15.9 15.9 15.9h16" class="st11" style="fill:none;stroke:#000;stroke-width:10;stroke-miterlimit:10"/><path d="M40 99.2v36.3" class="st10" style="fill:none;stroke:#7d4d25;stroke-width:10;stroke-miterlimit:10"/><path d="M40 65.8v33.4" class="st9" style="fill:none;stroke:#6ec6d4;stroke-width:10;stroke-miterlimit:10"/><path d="M126.4 37.5H69.9" class="st15" style="fill:none;stroke:#f0f0f0;stroke-width:10;stroke-miterlimit:10"/></g><g class="st18" clip-path="url(#n)" transform="matrix(.98995 0 0 .99071 -35.773 -37.15)"><path d="M38.4 36.2h132.1v22H38.4z" class="st2" style="fill:#c80e0e"/><path d="M38.4 58.2h132.1v22H38.4z" class="st3" style="fill:#de511d"/><path d="M38.4 80.2h132.1v22H38.4z" class="st4" style="fill:#ffb100"/><path d="M38.4 102.3h132.1v22H38.4z" class="st5" style="fill:#7ab327"/><path d="M38.4 124.3h132.1v22H38.4z" class="st6" style="fill:#5068f5"/><path d="M38.4 146.3h132.1v22H38.4z" class="st7" style="fill:#9024fa"/></g><g class="st18" clip-path="url(#n)" transform="matrix(.98995 0 0 .99071 -35.773 -37.15)"><path d="M153.3 37.5H55.8c-8.8 0-15.9 7.1-15.9 15.9v97.4c0 8.8 7.1 15.9 15.9 15.9h97.5c8.8 0 15.9-7.1 15.9-15.9V53.3c0-8.7-7.1-15.8-15.9-15.8z" class="st8" style="fill:none;stroke:#eca1b5;stroke-width:10;stroke-miterlimit:10"/><path d="M169.2 102.4V66.1" class="st9" style="fill:none;stroke:#6ec6d4;stroke-width:10;stroke-miterlimit:10"/><path d="M169.2 135.5V99.4" class="st10" style="fill:none;stroke:#7d4d25;stroke-width:10;stroke-miterlimit:10"/><path d="M136.4 166.7h16.9c8.8 0 15.9-7.1 15.9-15.9v-15.3" class="st11" style="fill:none;stroke:#000;stroke-width:10;stroke-miterlimit:10"/><path d="M69.9 166.7h66.5" class="st10" style="fill:none;stroke:#7d4d25;stroke-width:10;stroke-miterlimit:10"/><path d="M40 135.5v15.3c0 8.8 7.1 15.9 15.9 15.9h16" class="st11" style="fill:none;stroke:#000;stroke-width:10;stroke-miterlimit:10"/><path d="M40 99.2v36.3" class="st10" style="fill:none;stroke:#7d4d25;stroke-width:10;stroke-miterlimit:10"/><path d="M40 65.8v33.4" class="st9" style="fill:none;stroke:#6ec6d4;stroke-width:10;stroke-miterlimit:10"/><path d="M136.4 37.5H79.9" class="st12" style="fill:none;stroke:#fafafa;stroke-width:10;stroke-miterlimit:10"/></g><g class="st19" clip-path="url(#o)" transform="matrix(.98995 0 0 .99071 -35.773 -37.15)"><path d="M38.4 36.2h132.1v22H38.4z" class="st2" style="fill:#c80e0e"/><path d="M38.4 58.2h132.1v22H38.4z" class="st3" style="fill:#de511d"/><path d="M38.4 80.2h132.1v22H38.4z" class="st4" style="fill:#ffb100"/><path d="M38.4 102.3h132.1v22H38.4z" class="st5" style="fill:#7ab327"/><path d="M38.4 124.3h132.1v22H38.4z" class="st6" style="fill:#5068f5"/><path d="M38.4 146.3h132.1v22H38.4z" class="st7" style="fill:#9024fa"/></g><g class="st19" clip-path="url(#o)" transform="matrix(.98995 0 0 .99071 -35.773 -37.15)"><path d="M153.3 37.5H55.8c-8.8 0-15.9 7.1-15.9 15.9v97.4c0 8.8 7.1 15.9 15.9 15.9h97.5c8.8 0 15.9-7.1 15.9-15.9V53.3c0-8.7-7.1-15.8-15.9-15.8z" class="st8" style="fill:none;stroke:#eca1b5;stroke-width:10;stroke-miterlimit:10"/><path d="M169.2 102.4V66.1" class="st9" style="fill:none;stroke:#6ec6d4;stroke-width:10;stroke-miterlimit:10"/><path d="M169.2 135.5V99.4" class="st10" style="fill:none;stroke:#7d4d25;stroke-width:10;stroke-miterlimit:10"/><path d="M136.4 166.7h16.9c8.8 0 15.9-7.1 15.9-15.9v-15.3" class="st11" style="fill:none;stroke:#000;stroke-width:10;stroke-miterlimit:10"/><path d="M69.9 166.7h66.5" class="st10" style="fill:none;stroke:#7d4d25;stroke-width:10;stroke-miterlimit:10"/><path d="M40 125.5v25.3c0 8.8 7.1 15.9 15.9 15.9h16" class="st11" style="fill:none;stroke:#000;stroke-width:10;stroke-miterlimit:10"/><path d="M40 99.2v33.7-7.4" class="st10" style="fill:none;stroke:#7d4d25;stroke-width:10;stroke-miterlimit:10"/><path d="M40 65.8v33.4" class="st9" style="fill:none;stroke:#6ec6d4;stroke-width:10;stroke-miterlimit:10"/><path d="M136.4 37.5H69.9" class="st12" style="fill:none;stroke:#fafafa;stroke-width:10;stroke-miterlimit:10"/></g></svg>