<?xml version="1.0" encoding="UTF-8" standalone="no"?>
<!-- Created with Inkscape (http://www.inkscape.org/) -->

<svg
   width="1000mm"
   height="1000mm"
   viewBox="0 0 32 32"
   version="1.1"
   id="svg5"
   xmlns="http://www.w3.org/2000/svg"
   xmlns:svg="http://www.w3.org/2000/svg">
  <defs
     id="defs2">
    <style
       id="style2">.cls-1,.cls-2,.cls-3,.cls-4,.cls-7{fill:none;stroke-linecap:round;stroke-linejoin:round;}.cls-1,.cls-4{stroke:#aa026d;}.cls-1,.cls-2{stroke-width:10px;}.cls-2,.cls-3{stroke:#71196f;}.cls-3,.cls-4{stroke-width:5px;}.cls-5,.cls-6{font-size:119.48px;}.cls-5{fill:#71196f;font-family:AvenirLTStd-Heavy, Avenir LT Std;}.cls-6{fill:#aa026d;font-family:AvenirLTStd-Medium, Avenir LT Std;}.cls-7{stroke:#fff;stroke-width:0.75px;}</style>
  </defs>
  <g
     id="g1170"
     transform="matrix(0.11000008,0,0,0.11066629,-12.31477,-12.549246)"
     style="display:inline;stroke-width:2.70399">
    <path
       id="path1166"
       style="display:inline;opacity:1;fill:#24292e;fill-opacity:1;stroke:#000000;stroke-width:0"
       d="M 16,0 A 16,15.999998 0 0 0 0,16 v 7.351562 C 0,27.034636 4.4103763,32 7.4042969,32 H 16 24.595703 C 27.589624,32 32,27.034636 32,23.351562 V 16 A 16,15.999998 0 0 0 16,0 Z"
       transform="matrix(9.0909025,0,0,9.0361753,111.95237,113.39719)" />
    <path
       id="path1168"
       style="color:#000000;display:inline;fill:#cdd9e5;fill-opacity:1;stroke-width:35.2367;stroke-linecap:round;stroke-linejoin:round;-inkscape-stroke:none"
       d="m 2530.8496,112.06641 c -235.682,83.11266 -449.394,190.04592 -641.2539,318.78125 C 1697.8061,302.191 1484.1678,195.25141 1248.5801,112.12109 A 1889.7638,1889.7636 0 0 0 977.24414,234.96875 c 279.27636,76.60365 525.81016,184.84231 742.64846,321.22461 -165.0186,131.90132 -313.0639,280.19715 -438.877,448.62114 -0.482,0.6365 -0.8595,1.3764 -1.3418,2.0156 C 1030.835,865.09778 740.4974,766.17694 408.05078,716.91602 A 1889.7638,1889.7636 0 0 0 279.57617,900.58008 C 628.92599,940.1969 922.80976,1033.0696 1169.1133,1170.8223 1069.7598,1327.892 984.87956,1497.1192 915.73438,1678.9238 685.37693,1523.6869 402.52528,1421.6114 69.798828,1381.0215 a 1889.7638,1889.7636 0 0 0 -43.55664,195.0078 C 366.36334,1614.518 637.69781,1717.5492 850.20312,1874.502 765.62536,2148.1383 718.89122,2450.6058 695.28711,2769.7305 665.51784,2714.6807 632.89955,2661.8786 595.14453,2613.1328 451.52976,2427.7095 250.43715,2293.6603 0,2218.8555 v 207.8906 c 188.03257,65.4899 332.00933,169.9513 439.21875,308.3711 153.08594,197.6517 233.2168,471.5432 233.2168,815.248 v 176.9883 c 68.43839,32.5808 135.52898,51.2766 197.5957,52.1406 v -229.1289 -399.8945 c 0,-417.0978 47.44954,-796.7384 142.14645,-1135.166 27.0871,28.0208 53.4581,56.3281 77.9629,86.7012 234.0454,290.0927 354.1934,694.0923 354.1934,1198.0039 v 479.5175 h 197.5957 v -479.5175 -141.8106 c 0,-477.823 83.6863,-887.3499 247.666,-1222.5371 164.0132,335.2062 248.002,744.6649 248.002,1222.5371 v 621.3281 h 197.5957 v -479.5156 c 0,-503.9117 120.1477,-907.9129 354.1933,-1198.0058 24.405,-30.2492 50.6588,-58.4472 77.625,-86.3633 94.634,338.3505 142.4844,717.8548 142.4844,1134.8281 v 399.8945 229.1289 c 62.0667,-0.864 129.1573,-19.5598 197.5957,-52.1406 v -176.9863 c 0,-343.7008 80.1098,-617.5963 233.2168,-815.25 107.223,-138.4201 251.1927,-242.8796 439.2187,-308.3692 v -207.8906 c -250.4306,74.8055 -451.5135,208.8543 -595.1445,394.2754 -37.739,48.7195 -70.3814,101.5809 -100.1426,156.5977 -23.6041,-319.1516 -70.6665,-621.5755 -155.2519,-895.2266 212.5401,-157.0471 484.0642,-259.9775 824.3125,-298.4746 a 1889.7638,1889.7636 0 0 0 -43.5567,-195.0527 c -332.8596,40.5607 -615.5128,142.6554 -845.9492,297.9472 -69.1197,-181.7661 -154.401,-350.7202 -253.7148,-507.7656 246.3727,-137.8446 540.384,-230.94282 889.873,-270.57617 A 1889.7638,1889.7636 0 0 0 3371.5215,716.91211 c -332.4645,49.25876 -622.8162,148.18139 -871.666,289.91989 -0.482,-0.6365 -0.8597,-1.3762 -1.3418,-2.0156 -125.8286,-168.45086 -273.84,-316.7029 -438.8789,-448.62304 216.865,-136.39095 463.4092,-244.63575 742.7031,-321.24024 A 1889.7638,1889.7636 0 0 0 2530.8496,112.06641 Z m -641.2539,561.07031 c 168.1355,127.64559 316.2257,274.21738 442.2363,440.89258 -144.2814,102.4873 -273.3303,220.1617 -382.4199,356.209 -21.2607,26.5144 -39.9291,55.323 -59.8164,83.0039 -19.852,-27.6256 -38.2605,-56.5401 -59.4805,-83.0039 -109.0899,-136.0473 -238.1382,-253.7217 -382.4199,-356.209 125.9654,-166.60593 273.8417,-313.28319 441.9004,-440.89258 z m -553.1328,603.87498 c 128.5281,91.9645 242.7345,197.2545 339.7441,318.2363 35.0644,43.7294 67.6915,89.886 98.7969,137.4434 -122.8762,216.2642 -211.7732,460.3957 -265.4766,730.5645 -64.5535,-181.1938 -152.0403,-344.8261 -266.1484,-486.2598 -49.4481,-61.2895 -105.0093,-117.0531 -163.6543,-169.7031 68.6175,-192.1956 154.5263,-368.8091 256.7383,-530.2813 z m 1106.5996,0 c 102.209,161.4763 188.1267,338.0801 256.7402,530.2813 -58.6827,52.675 -114.5142,108.379 -163.9902,169.7031 -114.108,141.4337 -201.2586,305.066 -265.8125,486.2598 -53.7031,-270.1688 -142.6003,-514.3003 -265.4766,-730.5645 31.0767,-47.5028 63.7695,-93.7601 98.7969,-137.4434 97.0394,-121.0192 211.1592,-226.2527 339.7422,-318.2363 z"
       transform="matrix(0.07696964,0,0,0.07650628,111.95237,113.39719)" />
  </g>
</svg>
