<?xml version="1.0" encoding="UTF-8" standalone="no"?>
<!-- Created with Inkscape (http://www.inkscape.org/) -->

<svg
   width="1000mm"
   height="1000mm"
   viewBox="0 0 32 32"
   version="1.1"
   id="svg5"
   inkscape:version="1.1.1 (3bf5ae0d25, 2021-09-20)"
   sodipodi:docname="favicon-source.svg"
   inkscape:export-filename="/home/multun/projects/osrd-website/assets/favicon.png"
   inkscape:export-xdpi="192"
   inkscape:export-ydpi="192"
   xmlns:inkscape="http://www.inkscape.org/namespaces/inkscape"
   xmlns:sodipodi="http://sodipodi.sourceforge.net/DTD/sodipodi-0.dtd"
   xmlns="http://www.w3.org/2000/svg"
   xmlns:svg="http://www.w3.org/2000/svg">
  <sodipodi:namedview
     id="namedview7"
     pagecolor="#ffffff"
     bordercolor="#666666"
     borderopacity="1.0"
     inkscape:pageshadow="2"
     inkscape:pageopacity="0.0"
     inkscape:pagecheckerboard="false"
     inkscape:document-units="px"
     showgrid="false"
     inkscape:zoom="0.04"
     inkscape:cx="-4487.5"
     inkscape:cy="2387.5"
     inkscape:window-width="1920"
     inkscape:window-height="1080"
     inkscape:window-x="0"
     inkscape:window-y="0"
     inkscape:window-maximized="1"
     inkscape:current-layer="svg5"
     width="32px"
     borderlayer="false"
     showborder="true" />
  <defs
     id="defs2">
    <style
       id="style2">.cls-1,.cls-2,.cls-3,.cls-4,.cls-7{fill:none;stroke-linecap:round;stroke-linejoin:round;}.cls-1,.cls-4{stroke:#aa026d;}.cls-1,.cls-2{stroke-width:10px;}.cls-2,.cls-3{stroke:#71196f;}.cls-3,.cls-4{stroke-width:5px;}.cls-5,.cls-6{font-size:119.48px;}.cls-5{fill:#71196f;font-family:AvenirLTStd-Heavy, Avenir LT Std;}.cls-6{fill:#aa026d;font-family:AvenirLTStd-Medium, Avenir LT Std;}.cls-7{stroke:#fff;stroke-width:0.75px;}</style>
  </defs>
  <g
     id="g7315"
     transform="matrix(0.11000008,0,0,0.11066629,-12.31477,-12.549246)"
     style="display:none;stroke-width:2.70399"
     inkscape:label="source paths">
    <path
       inkscape:connector-curvature="0"
       class="cls-1"
       d="m 315.55433,388.43039 v -39.46501 c 0,-89.36137 -41.1498,-148.63062 -125.38976,-162.34471"
       id="path7299"
       style="stroke:#000000;stroke-width:10.4374;stroke-miterlimit:4;stroke-dasharray:none;stroke-opacity:1" />
    <path
       inkscape:connector-curvature="0"
       class="cls-1"
       d="m 274.76749,388.43039 v -39.04791 c 0,-70.35988 -33.76049,-116.03165 -102.93503,-123.77665"
       id="path7301"
       style="stroke:#000000;stroke-width:10.4374;stroke-miterlimit:4;stroke-dasharray:none;stroke-opacity:1" />
    <path
       inkscape:connector-curvature="0"
       class="cls-2"
       d="m 238.14356,388.43039 v -31.61238 c 0,-54.60519 -26.29503,-89.98019 -80.17108,-95.79232"
       id="path7303"
       style="stroke:#000000;stroke-width:10.4374;stroke-miterlimit:4;stroke-dasharray:none;stroke-opacity:1" />
    <path
       inkscape:connector-curvature="0"
       class="cls-2"
       d="M 197.35223,388.43039 V 369.9805 c 0,-37.73838 -17.74958,-62.49822 -54.1046,-67.45376"
       id="path7305"
       style="stroke:#000000;stroke-width:10.4374;stroke-miterlimit:4;stroke-dasharray:none;stroke-opacity:1" />
    <path
       inkscape:connector-curvature="0"
       class="cls-2"
       d="m 197.35223,388.43039 v -39.46501 c 0,-89.36137 41.15432,-148.63062 125.39422,-162.34471"
       id="path7307"
       style="stroke:#000000;stroke-width:10.4374;stroke-miterlimit:4;stroke-dasharray:none;stroke-opacity:1" />
    <path
       inkscape:connector-curvature="0"
       class="cls-2"
       d="m 238.14356,388.43039 v -39.04791 c 0,-70.35988 33.76051,-116.03165 102.93504,-123.77665"
       id="path7309"
       style="stroke:#000000;stroke-width:10.4374;stroke-miterlimit:4;stroke-dasharray:none;stroke-opacity:1" />
    <path
       inkscape:connector-curvature="0"
       class="cls-1"
       d="m 274.76749,388.43039 v -31.61238 c 0,-54.60519 26.29499,-89.98019 80.17112,-95.79232"
       id="path7311"
       style="stroke:#000000;stroke-width:10.4374;stroke-miterlimit:4;stroke-dasharray:none;stroke-opacity:1" />
    <path
       inkscape:connector-curvature="0"
       class="cls-1"
       d="M 315.55433,388.43039 V 369.9805 c 0,-37.73838 17.75406,-62.49822 54.10913,-67.45376"
       id="path7313"
       style="stroke:#000000;stroke-width:10.4374;stroke-miterlimit:4;stroke-dasharray:none;stroke-opacity:1" />
  </g>
  <g
     id="g7084"
     transform="matrix(0.11000008,0,0,0.11066629,-12.31477,-12.549246)"
     style="display:none;stroke-width:2.70399"
     inkscape:label="before merge">
    <path
       id="path4390"
       style="display:inline;opacity:1;fill:#24292e;fill-opacity:1;stroke:#000000;stroke-width:0"
       inkscape:label="background"
       d="M 16,0 A 16,15.999998 0 0 0 0,16 v 7.351562 C 0,27.034636 4.4103763,32 7.4042969,32 H 16 24.595703 C 27.589624,32 32,27.034636 32,23.351562 V 16 A 16,15.999998 0 0 0 16,0 Z"
       transform="matrix(9.0909025,0,0,9.0361753,111.95237,113.39719)" />
    <path
       id="path21"
       style="color:#000000;display:inline;fill:#cdd9e5;fill-opacity:1;stroke-width:2.70398;stroke-linecap:round;stroke-linejoin:round;-inkscape-stroke:none"
       d="m 162.05413,110.41763 a 7.6022793,7.6022793 0 0 0 -8.71663,6.27316 7.6022793,7.6022793 0 0 0 6.28528,8.74127 c 33.20526,5.40576 61.21823,15.83156 84.70907,30.51738 -12.70142,10.09128 -24.09637,21.43687 -33.78016,34.32236 -0.0371,0.0487 -0.0662,0.10537 -0.10332,0.15427 -21.21761,-12.01226 -46.35357,-20.00669 -75.47511,-23.26723 a 7.6022793,7.6022793 0 0 0 -8.40625,6.71023 7.6022793,7.6022793 0 0 0 6.72499,8.40705 c 26.96842,3.01947 49.64647,10.13382 68.64666,20.69628 -7.6472,12.01682 -14.18039,24.96379 -19.50247,38.87299 -18.3227,-12.27326 -40.95988,-20.20367 -67.68982,-23.08729 a 7.6022793,7.6022793 0 0 0 -8.35451,6.73595 7.6022793,7.6022793 0 0 0 6.725,8.38132 c 26.58167,2.86764 47.74046,10.7941 64.27541,22.93301 -6.50992,20.9349 -10.10713,44.07548 -11.92393,68.49052 -2.29133,-4.21165 -4.80189,-8.25133 -7.70788,-11.98069 -14.38517,-18.46111 -36.25489,-30.27507 -64.249554,-34.091 a 7.6022793,7.6022793 0 0 0 -8.561427,6.50454 7.6022793,7.6022793 0 0 0 6.518063,8.56131 c 24.965038,3.40297 42.508398,13.23613 54.291398,28.35776 11.78297,15.1216 17.95056,36.07602 17.95056,62.3716 v 26.8923 a 7.6022793,7.6022793 0 0 0 7.6044,7.58434 7.6022793,7.6022793 0 0 0 3.38837,-0.89984 7.6022793,7.6022793 0 0 0 0.87942,-0.5913 7.6022793,7.6022793 0 0 0 1.83644,-1.82538 7.6022793,7.6022793 0 0 0 0.56904,-0.84838 7.6022793,7.6022793 0 0 0 0.93115,-3.41944 v -26.8923 -30.59449 c 0,-31.9106 3.65225,-60.95536 10.94104,-86.8472 2.08488,2.14377 4.11464,4.30936 6.00077,6.63309 18.01439,22.19392 27.26209,53.10251 27.26209,91.65491 v 46.04599 a 7.6022793,7.6022793 0 0 0 7.60441,7.58434 7.6022793,7.6022793 0 0 0 5.38,-2.21103 7.6022793,7.6022793 0 0 0 1.65538,-2.46812 7.6022793,7.6022793 0 0 0 0.56905,-2.90519 v -46.04599 -10.84947 c 0,-36.55646 6.44131,-67.88778 19.06277,-93.53171 12.62404,25.64538 19.08865,56.97148 19.08865,93.53171 v 56.89546 a 7.6022793,7.6022793 0 0 0 7.6044,7.58434 7.6022793,7.6022793 0 0 0 3.38838,-0.89984 7.6022793,7.6022793 0 0 0 0.87946,-0.5913 7.6022793,7.6022793 0 0 0 1.83644,-1.82538 7.6022793,7.6022793 0 0 0 0.56905,-0.84838 7.6022793,7.6022793 0 0 0 0.93113,-3.41939 v -46.04599 c 0,-38.55241 9.24769,-69.46099 27.2621,-91.65492 1.87844,-2.31425 3.89932,-4.4716 5.9749,-6.60736 7.28394,25.88594 10.9669,54.9204 10.9669,86.82148 v 30.59448 26.89231 a 7.6022793,7.6022793 0 0 0 7.60442,7.58435 7.6022793,7.6022793 0 0 0 3.38836,-0.89985 7.6022793,7.6022793 0 0 0 0.87948,-0.59129 7.6022793,7.6022793 0 0 0 1.83644,-1.82539 7.6022793,7.6022793 0 0 0 0.56906,-0.84839 7.6022793,7.6022793 0 0 0 0.93111,-3.41938 v -26.8923 c 0,-26.29527 6.16598,-47.24986 17.95057,-62.37161 11.78457,-15.12177 29.32627,-24.95477 54.29139,-28.35775 a 7.6022793,7.6022793 0 0 0 6.51807,-8.56132 7.6022793,7.6022793 0 0 0 -8.56144,-6.50453 c -27.99463,3.81593 -49.8627,15.63004 -64.24955,34.091 -2.90476,3.72735 -5.41716,7.77158 -7.70787,11.98071 -1.8168,-24.4171 -5.43929,-47.55449 -11.9498,-68.49052 16.53735,-12.14598 37.71053,-20.06441 64.30129,-22.93302 a 7.6022793,7.6022793 0 0 0 6.72498,-8.38134 7.6022793,7.6022793 0 0 0 -8.38037,-6.73593 c -26.72997,2.88362 -49.34128,10.81401 -67.66378,23.08727 -5.32012,-13.90625 -11.88421,-26.83233 -19.52836,-38.84729 19.00551,-10.5695 41.6934,-17.70129 68.67253,-20.72196 a 7.6022793,7.6022793 0 0 0 6.725,-8.40707 7.6022793,7.6022793 0 0 0 -8.40624,-6.71022 c -29.12152,3.26054 -54.2575,11.25497 -75.47513,23.26724 -0.0371,-0.0487 -0.0662,-0.10536 -0.10331,-0.15428 -9.68498,-12.88755 -21.07743,-24.22974 -33.78042,-34.32246 23.49225,-14.68582 51.50383,-25.11162 84.70906,-30.51738 a 7.6022793,7.6022793 0 0 0 6.28529,-8.74127 7.6022793,7.6022793 0 0 0 -8.71664,-6.27316 c -37.20293,6.05657 -68.96912,18.33707 -95.36558,35.9421 -26.38982,-17.5963 -58.14917,-29.88755 -95.33971,-35.9421 z m 95.33973,54.47876 c 12.94133,9.76569 24.33981,20.97935 34.0388,33.73105 -11.10529,7.84092 -21.03818,16.84378 -29.43477,27.25225 -1.63643,2.02852 -3.07331,4.23251 -4.60403,6.35027 -1.528,-2.11353 -2.94488,-4.32562 -4.57817,-6.35027 -8.39661,-10.40847 -18.32948,-19.41133 -29.43479,-27.25225 9.69551,-12.7464 21.07754,-23.96813 34.01296,-33.73105 z m -42.57439,46.20024 c 9.89276,7.03586 18.68309,15.09117 26.14989,24.34704 2.69889,3.34557 5.21023,6.87681 7.6044,10.51525 -9.45774,16.54557 -16.30011,35.22317 -20.43364,55.89278 -4.96866,-13.86246 -11.7025,-26.3813 -20.48536,-37.20187 -3.806,-4.68903 -8.08256,-8.95532 -12.59644,-12.98338 5.28146,-14.70417 11.89393,-28.21618 19.76115,-40.56982 z m 85.17462,0 c 7.86699,12.35395 14.47998,25.86522 19.76114,40.56982 -4.51679,4.02997 -8.81414,8.2917 -12.62229,12.98338 -8.78285,10.82057 -15.49082,23.33941 -20.45951,37.20187 -4.13351,-20.66961 -10.97588,-39.34721 -20.43362,-55.89278 2.39196,-3.63426 4.90836,-7.17321 7.60441,-10.51525 7.46909,-9.25873 16.25288,-17.30972 26.14987,-24.34704 z"
       inkscape:label="tracks" />
  </g>
  <g
     id="g1170"
     transform="matrix(0.11000008,0,0,0.11066629,-12.31477,-12.549246)"
     style="display:inline;stroke-width:2.70399"
     inkscape:label="after merge">
    <path
       id="path1166"
       style="display:inline;opacity:1;fill:#24292e;fill-opacity:1;stroke:#000000;stroke-width:0"
       inkscape:label="background"
       d="M 16,0 A 16,15.999998 0 0 0 0,16 v 7.351562 C 0,27.034636 4.4103763,32 7.4042969,32 H 16 24.595703 C 27.589624,32 32,27.034636 32,23.351562 V 16 A 16,15.999998 0 0 0 16,0 Z"
       transform="matrix(9.0909025,0,0,9.0361753,111.95237,113.39719)" />
    <path
       id="path1168"
       style="color:#000000;display:inline;fill:#cdd9e5;fill-opacity:1;stroke-width:35.2367;stroke-linecap:round;stroke-linejoin:round;-inkscape-stroke:none"
       inkscape:label="tracks"
       d="m 2530.8496,112.06641 c -235.682,83.11266 -449.394,190.04592 -641.2539,318.78125 C 1697.8061,302.191 1484.1678,195.25141 1248.5801,112.12109 A 1889.7638,1889.7636 0 0 0 977.24414,234.96875 c 279.27636,76.60365 525.81016,184.84231 742.64846,321.22461 -165.0186,131.90132 -313.0639,280.19715 -438.877,448.62114 -0.482,0.6365 -0.8595,1.3764 -1.3418,2.0156 C 1030.835,865.09778 740.4974,766.17694 408.05078,716.91602 A 1889.7638,1889.7636 0 0 0 279.57617,900.58008 C 628.92599,940.1969 922.80976,1033.0696 1169.1133,1170.8223 1069.7598,1327.892 984.87956,1497.1192 915.73438,1678.9238 685.37693,1523.6869 402.52528,1421.6114 69.798828,1381.0215 a 1889.7638,1889.7636 0 0 0 -43.55664,195.0078 C 366.36334,1614.518 637.69781,1717.5492 850.20312,1874.502 765.62536,2148.1383 718.89122,2450.6058 695.28711,2769.7305 665.51784,2714.6807 632.89955,2661.8786 595.14453,2613.1328 451.52976,2427.7095 250.43715,2293.6603 0,2218.8555 v 207.8906 c 188.03257,65.4899 332.00933,169.9513 439.21875,308.3711 153.08594,197.6517 233.2168,471.5432 233.2168,815.248 v 176.9883 c 68.43839,32.5808 135.52898,51.2766 197.5957,52.1406 v -229.1289 -399.8945 c 0,-417.0978 47.44954,-796.7384 142.14645,-1135.166 27.0871,28.0208 53.4581,56.3281 77.9629,86.7012 234.0454,290.0927 354.1934,694.0923 354.1934,1198.0039 v 479.5175 h 197.5957 v -479.5175 -141.8106 c 0,-477.823 83.6863,-887.3499 247.666,-1222.5371 164.0132,335.2062 248.002,744.6649 248.002,1222.5371 v 621.3281 h 197.5957 v -479.5156 c 0,-503.9117 120.1477,-907.9129 354.1933,-1198.0058 24.405,-30.2492 50.6588,-58.4472 77.625,-86.3633 94.634,338.3505 142.4844,717.8548 142.4844,1134.8281 v 399.8945 229.1289 c 62.0667,-0.864 129.1573,-19.5598 197.5957,-52.1406 v -176.9863 c 0,-343.7008 80.1098,-617.5963 233.2168,-815.25 107.223,-138.4201 251.1927,-242.8796 439.2187,-308.3692 v -207.8906 c -250.4306,74.8055 -451.5135,208.8543 -595.1445,394.2754 -37.739,48.7195 -70.3814,101.5809 -100.1426,156.5977 -23.6041,-319.1516 -70.6665,-621.5755 -155.2519,-895.2266 212.5401,-157.0471 484.0642,-259.9775 824.3125,-298.4746 a 1889.7638,1889.7636 0 0 0 -43.5567,-195.0527 c -332.8596,40.5607 -615.5128,142.6554 -845.9492,297.9472 -69.1197,-181.7661 -154.401,-350.7202 -253.7148,-507.7656 246.3727,-137.8446 540.384,-230.94282 889.873,-270.57617 A 1889.7638,1889.7636 0 0 0 3371.5215,716.91211 c -332.4645,49.25876 -622.8162,148.18139 -871.666,289.91989 -0.482,-0.6365 -0.8597,-1.3762 -1.3418,-2.0156 -125.8286,-168.45086 -273.84,-316.7029 -438.8789,-448.62304 216.865,-136.39095 463.4092,-244.63575 742.7031,-321.24024 A 1889.7638,1889.7636 0 0 0 2530.8496,112.06641 Z m -641.2539,561.07031 c 168.1355,127.64559 316.2257,274.21738 442.2363,440.89258 -144.2814,102.4873 -273.3303,220.1617 -382.4199,356.209 -21.2607,26.5144 -39.9291,55.323 -59.8164,83.0039 -19.852,-27.6256 -38.2605,-56.5401 -59.4805,-83.0039 -109.0899,-136.0473 -238.1382,-253.7217 -382.4199,-356.209 125.9654,-166.60593 273.8417,-313.28319 441.9004,-440.89258 z m -553.1328,603.87498 c 128.5281,91.9645 242.7345,197.2545 339.7441,318.2363 35.0644,43.7294 67.6915,89.886 98.7969,137.4434 -122.8762,216.2642 -211.7732,460.3957 -265.4766,730.5645 -64.5535,-181.1938 -152.0403,-344.8261 -266.1484,-486.2598 -49.4481,-61.2895 -105.0093,-117.0531 -163.6543,-169.7031 68.6175,-192.1956 154.5263,-368.8091 256.7383,-530.2813 z m 1106.5996,0 c 102.209,161.4763 188.1267,338.0801 256.7402,530.2813 -58.6827,52.675 -114.5142,108.379 -163.9902,169.7031 -114.108,141.4337 -201.2586,305.066 -265.8125,486.2598 -53.7031,-270.1688 -142.6003,-514.3003 -265.4766,-730.5645 31.0767,-47.5028 63.7695,-93.7601 98.7969,-137.4434 97.0394,-121.0192 211.1592,-226.2527 339.7422,-318.2363 z"
       transform="matrix(0.07696964,0,0,0.07650628,111.95237,113.39719)" />
  </g>
</svg>
