<svg xmlns="http://www.w3.org/2000/svg" width="128" height="128"><g fill="#7669be"><path d="M.364 44.676a.166.173 5.8 0 1-.132-.166Q.24 30.62.225 16.702c0-7.216 1.06-12.851 7.943-15.52C12.91-.66 21.2.198 26.738.212q.325 0 .325.319l.097 54.923a.166.173 16.5 0 1-.263.146Q14.677 47.629.364 44.676ZM31.728 58.9 31.769.551a.347.347 0 0 1 .347-.347h17.155a.347.347 0 0 1 .347.347v33.956a.749.735 70.6 0 1-.27.575q-11.79 9.628-17.197 23.893a.215.222 55.3 0 1-.423-.077zM97.52 41.689c-18.278.381-34.477 7.576-42.926 24.648a.16.16 0 0 1-.298-.07q-.048-13.322.215-26.74c.028-1.442-.915-2.094.866-3.251 12.11-7.881 24.357-10.578 38.656-12.033 2.898-.291 2.669-4.346-.395-4.242Q72.74 20.729 54.9 31.015a.34.312 76.2 0 1-.471-.312L54.262.628q0-.409.415-.409Q71.237.191 87.726.191c6.695 0 12.199 1.782 14.417 8.38q.866 2.558.852 9.71-.034 33.126.014 66.271.014 7.513-1.074 10.341c-2.73 7.119-8.851 7.91-16.289 7.902q-15.47-.014-30.802 0a.596.596 0 0 1-.596-.63q.374-6.107.222-11.631C53.756 64.41 70.002 47.08 96.279 46.236c1.92-.063 3.674-.79 3.188-3.015a1.948 1.955 83.3 0 0-1.947-1.532zM35.658 62.517c2.585-7.59 7.32-15.512 13.55-21.265q.403-.367.403.173l.02 42.503q0 1.185-.436.083-4.658-11.734-13.391-20.856-.27-.277-.146-.638Zm-9.738-1.878c1.92 1.317 1.136 1.83 1.15 3.611q.118 14.202.076 27.67-.007 1.38-.547.118Q19.016 74.432.586 69.116q-.354-.097-.354-.471v-19.04q0-.347.34-.27 13.176 2.917 25.347 11.304Zm6.258 42.149a.471.478 0 0 1-.47-.478c.068-11.305-.313-22.499 2.106-33.423q.243-1.095.957-.228 12.046 14.75 14.306 33.762a.333.326 86.7 0 1-.326.367z" style="stroke-width:.693129" transform="scale(1.2426 1.2429)"/><path d="M.544 73.885c13.176 3.957 21.98 15.318 24.578 28.522q.07.34-.284.347c-8.137.187-19.595 1.885-23.51-7.757C-.739 89.931.217 80.213.238 74.107a.236.236 0 0 1 .305-.222z" style="stroke-width:.693129" transform="scale(1.2426 1.2429)"/></g></svg>