<svg xmlns="http://www.w3.org/2000/svg" xml:space="preserve" id="svg35" width="127.85" height="128" x="0" y="0" version="1.1"><style id="style1" type="text/css">.st0{display:none}.st1{display:inline}.st2{fill:#786abf}.st3{fill:#3d3935}.st4,.st5{fill:none;stroke:#ffed00;stroke-width:48;stroke-miterlimit:10}.st5{stroke:#1d1d1b;stroke-width:28}.st7,.st8{fill:#ffed00}.st8{display:inline}.st9{fill:#fff}</style><g id="g29" transform="translate(-85.308 -146.48) scale(.75427)"><path id="path23" d="M170.1 317.5c-2.9 12-4.3 25.1-4.3 39.2v7.2h24.5c-4.2-19.6-11.5-34.7-20.2-46.4z" class="st9"/><path id="path24" d="M113.1 279.2v29.4c4.5 1.7 9.3 3.9 14 6.8 12.6 7.8 22.2 18.6 28.6 32.3v-45.8c-5.1-4.5-10.2-8.1-15.2-11.1-9.5-5.6-19-9.2-27.4-11.6z" class="st9"/><path id="path25" d="M165.7 297.5c6.3-16.6 15.7-31.1 28-43.4v-59.9h-28z" class="st9"/><path id="path26" d="M173.5 305.6c7.8 9.1 14.9 20.5 20.3 34.5v-71.2c-8.9 10.7-15.7 22.9-20.3 36.7z" class="st9"/><path id="path27" d="M261.9 194.2h-58.1v51c17.4-13.8 36.5-21.4 52.5-25.5 2.7-.7 5.4.9 6.1 3.6.7 2.7-.9 5.3-3.6 6-16.8 4.3-37.4 12.8-55.1 29.1v46.9c4.3-9.2 9.9-17.4 16.8-24.3 13.9-13.8 31.1-20.9 45-24.5 2.7-.7 5.4.9 6.1 3.6.7 2.7-.9 5.4-3.6 6-7 1.8-14.9 4.6-22.7 8.8-28 15.2-41.6 42-41.6 81.7v7.2h58.1c11.5 0 20.8-9.3 20.8-20.8V215c.1-11.5-9.2-20.8-20.7-20.8z" class="st9"/><path id="path28" d="M145.7 282.3c3.3 2 6.7 4.2 10.1 6.8v-94.8H134c-11.5 0-20.8 9.3-20.8 20.8v53.8c9.6 2.4 21 6.5 32.5 13.4z" class="st9"/><path id="path29" d="M121.1 323.5c-2.7-1.6-5.4-2.9-8-4.1V343c0 11.5 9.3 20.8 20.8 20.8h17.2c-5.4-18.1-15.4-31.6-30-40.3z" class="st9"/></g></svg>