<svg xmlns="http://www.w3.org/2000/svg" xml:space="preserve" id="svg29" width="128" height="128" x="0" y="0" version="1.1"><style id="style1" type="text/css">.st9{fill:#fff}</style><g id="ok" transform="scale(1.11401 1.11595)"><g id="g29"><path id="path23" d="M38.5 83.4c-1.9 8.2-2.9 17-2.9 26.5v4.8h16.6c-2.8-13.2-7.8-23.4-13.7-31.3Z" class="st9"/><path id="path24" d="M0 57.5v19.9c3.1 1.2 6.3 2.7 9.5 4.6 8.5 5.2 15 12.6 19.4 21.8v-31c-3.4-3-6.9-5.5-10.3-7.5-6.5-3.7-13-6.2-18.6-7.8Z" class="st9"/><path id="path25" d="M35.6 69.9c4.3-11.3 10.6-21.1 18.9-29.4V0H35.6Z" class="st9"/><path id="path26" d="M40.8 75.4c5.3 6.2 10.1 13.8 13.7 23.3V50.6C48.6 57.8 44 66.1 40.8 75.4Z" class="st9"/><path id="path27" d="M100.7 0H61.3v34.5C73.1 25.2 86 20 96.9 17.2c1.8-.5 3.7.6 4.1 2.4.5 1.8-.6 3.6-2.4 4.1-11.4 2.9-25.3 8.6-37.2 19.7v31.8c2.9-6.3 6.7-11.7 11.4-16.4 9.4-9.3 21-14.1 30.5-16.6 1.8-.5 3.7.6 4.1 2.4.5 1.8-.6 3.6-2.4 4.1-4.7 1.2-10.1 3.1-15.3 6-19 10.3-28.2 28.4-28.2 55.2v4.8h39.3c7.8 0 14.1-6.3 14.1-14.1V14.1C114.7 6.3 108.4 0 100.7 0Z" class="st9"/><path id="path28" d="M22 59.6c2.2 1.3 4.5 2.8 6.8 4.6V0H14.1C6.3 0 0 6.3 0 14.1v36.4c6.5 1.7 14.2 4.5 22 9.1z" class="st9"/><path id="path29" d="M5.4 87.5c-1.8-1.1-3.6-2-5.4-2.8v15.9c0 7.8 6.3 14.1 14.1 14.1h11.6c-3.6-12.2-10.4-21.3-20.3-27.2Z" class="st9"/></g></g></svg>