<svg xmlns="http://www.w3.org/2000/svg" xml:space="preserve" width="128" height="128"><path d="M42.89 93.07c-2.117 9.151-3.231 18.971-3.231 29.573v5.356H58.15c-3.119-14.73-8.689-26.113-15.262-34.929ZM0 64.167v22.208a70.559 70.559 0 0 1 10.583 5.133c9.47 5.803 16.71 14.06 21.612 24.328V81.24c-3.788-3.348-7.687-6.138-11.474-8.37C13.48 68.744 6.238 65.954 0 64.168Zm39.659 13.838c4.79-12.61 11.808-23.547 21.055-32.809V0H39.659Zm5.793 6.138c5.904 6.919 11.251 15.4 15.262 26.001V56.467c-6.573 8.035-11.698 17.297-15.262 27.676ZM112.18 0H68.29v38.5c13.145-10.378 27.516-16.181 39.659-19.306 2.005-.558 4.121.67 4.567 2.679.557 2.008-.668 4.017-2.674 4.575-12.7 3.236-28.184 9.597-41.44 21.984V83.92c3.23-7.03 7.463-13.056 12.699-18.301 10.472-10.378 23.394-15.735 33.977-18.525 2.005-.558 4.122.67 4.568 2.678.557 2.01-.669 4.018-2.674 4.576-5.236 1.339-11.251 3.46-17.044 6.695-21.166 11.495-31.415 31.693-31.415 61.6V128h43.78c8.69 0 15.708-7.03 15.708-15.734v-96.53C127.777 7.03 120.759 0 112.18 0ZM24.508 66.51c2.451 1.451 5.013 3.125 7.575 5.134V0H15.708C7.018 0 0 7.03 0 15.735v40.62c7.241 1.898 15.819 5.022 24.508 10.156zM6.016 97.646C4.01 96.418 2.006 95.414 0 94.52v17.744c0 8.704 7.018 15.734 15.708 15.734H28.63c-4.01-13.614-11.586-23.77-22.614-30.353Z"/></svg>