<svg version="1.1" xmlns="http://www.w3.org/2000/svg" viewBox="0 0 1716.8381064278738 1621.5714285714287" width="3433.6762128557475" height="3243.1428571428573">
  <!-- svg-source:excalidraw -->
  
  <defs>
    <style class="style-fonts">
      @font-face {
        font-family: "Virgil";
        src: url("https://excalidraw.com/Virgil.woff2");
      }
      @font-face {
        font-family: "Cascadia";
        src: url("https://excalidraw.com/Cascadia.woff2");
      }
    </style>
    
  </defs>
  <rect x="0" y="0" width="1716.8381064278738" height="1621.5714285714287" fill="#ffffff"></rect><g transform="translate(425.9999999999999 328.1428571428571) rotate(0 56.41666793823242 12.5)"><text x="0" y="0" font-family="Virgil, Segoe UI Emoji" font-size="20px" fill="#1e1e1e" text-anchor="start" style="white-space: pre;" direction="ltr" dominant-baseline="text-before-edge">Applications</text></g><g transform="translate(640.9999999999999 335.1428571428571) rotate(0 18.274999618530273 12.5)"><text x="0" y="0" font-family="Virgil, Segoe UI Emoji" font-size="20px" fill="#1e1e1e" text-anchor="start" style="white-space: pre;" direction="ltr" dominant-baseline="text-before-edge">OpS</text></g><g transform="translate(844.9999999999999 335.1428571428571) rotate(0 24.350000381469727 12.5)"><text x="0" y="0" font-family="Virgil, Segoe UI Emoji" font-size="20px" fill="#1e1e1e" text-anchor="start" style="white-space: pre;" direction="ltr" dominant-baseline="text-before-edge">Views</text></g><g transform="translate(641.9999999999999 495.1428571428571) rotate(0 35.86666488647461 12.5)"><text x="0" y="0" font-family="Virgil, Segoe UI Emoji" font-size="20px" fill="#1e1e1e" text-anchor="start" style="white-space: pre;" direction="ltr" dominant-baseline="text-before-edge">Project</text></g><g transform="translate(642.9999999999999 864.1428571428571) rotate(0 27.799999237060547 12.5)"><text x="0" y="0" font-family="Virgil, Segoe UI Emoji" font-size="20px" fill="#1e1e1e" text-anchor="start" style="white-space: pre;" direction="ltr" dominant-baseline="text-before-edge">Study</text></g><g transform="translate(910.9999999999999 491.1428571428571) rotate(0 54.67499923706055 12.5)"><text x="0" y="0" font-family="Virgil, Segoe UI Emoji" font-size="20px" fill="#1e1e1e" text-anchor="start" style="white-space: pre;" direction="ltr" dominant-baseline="text-before-edge">Components</text></g><g stroke-linecap="round" transform="translate(888.9999999999999 490.1428571428571) rotate(0 7.5 11)"><path d="M10 3 M10 3 C10.76 4.31, 11.81 5.45, 13 9 M10 3 C10.67 4.98, 11.93 6.93, 13 9 M13 9 C15.92 12.5, 15.7 13.93, 13 15 M13 9 C15.75 10.77, 16.82 13.51, 13 15 M13 15 C12.74 16.27, 11.99 17.04, 10 19 M13 15 C12.12 16.21, 11.24 17.45, 10 19 M10 19 C9.44 20.89, 7.32 20.92, 6 19 M10 19 C5.81 22.33, 8.88 23.17, 6 19 M6 19 C5.53 17.77, 4.79 17.62, 2 15 M6 19 C4.44 17.65, 3.26 16.33, 2 15 M2 15 C-0.05 10.85, -0.9 13.01, 2 9 M2 15 C-1.32 10.58, 1.09 10.6, 2 9 M2 9 C2.82 7.14, 3.59 6.82, 6 3 M2 9 C2.9 7.36, 4.3 5.7, 6 3 M6 3 C8.15 -1.81, 9.48 1.43, 10 3 M6 3 C6.04 2.09, 9.88 1.28, 10 3" stroke="#1e1e1e" stroke-width="1" fill="none"></path></g><g stroke-linecap="round" transform="translate(613.9999999999999 495.1428571428571) rotate(0 8 9)"><path d="M11.25 2.5 M11.25 2.5 C12.23 3.19, 12.9 4.98, 13.75 7.5 M11.25 2.5 C11.9 4.35, 13.01 6.2, 13.75 7.5 M13.75 7.5 C15.95 8.85, 15.1 11.01, 13.75 12.5 M13.75 7.5 C14.68 8.58, 17.09 8.6, 13.75 12.5 M13.75 12.5 C13.1 12.98, 12.39 14.31, 11.25 15.5 M13.75 12.5 C12.83 13.44, 12.22 14.38, 11.25 15.5 M11.25 15.5 C9.15 16.19, 10.48 19.43, 6.75 15.5 M11.25 15.5 C7.04 20.09, 10.88 19.28, 6.75 15.5 M6.75 15.5 C5.24 14.27, 4.51 13.94, 2.25 12.5 M6.75 15.5 C5.68 14.44, 4.3 13.77, 2.25 12.5 M2.25 12.5 C1.23 10.96, -0.53 10.58, 2.25 7.5 M2.25 12.5 C1.63 8.87, 0 11.77, 2.25 7.5 M2.25 7.5 C3.39 6.27, 5.47 3.24, 6.75 2.5 M2.25 7.5 C4.07 5.99, 5.49 3.81, 6.75 2.5 M6.75 2.5 C9.59 1.75, 7.32 0.33, 11.25 2.5 M6.75 2.5 C10.76 -1.93, 8.54 -1.21, 11.25 2.5" stroke="#1e1e1e" stroke-width="1" fill="none"></path></g><g stroke-linecap="round" transform="translate(814.9999999999999 337.1428571428571) rotate(0 9.5 9.5)"><path d="M12.5 2.5 M12.5 2.5 C13.53 4.03, 15.97 6.08, 16.5 7.5 M12.5 2.5 C13.61 3.74, 14.72 5.11, 16.5 7.5 M16.5 7.5 C17.19 11.48, 20.43 8.29, 16.5 12.5 M16.5 7.5 C21.09 11.88, 20.28 9.97, 16.5 12.5 M16.5 12.5 C14.98 14.13, 14.41 14.64, 12.5 16.5 M16.5 12.5 C14.77 13.95, 13.45 15.61, 12.5 16.5 M12.5 16.5 C10.96 18.47, 10.58 20.41, 7.5 16.5 M12.5 16.5 C8.87 19, 11.77 20.45, 7.5 16.5 M7.5 16.5 C6.67 15.3, 4.13 14.55, 2.5 12.5 M7.5 16.5 C6.31 15.51, 4.48 14.38, 2.5 12.5 M2.5 12.5 C1.75 8.32, 0.33 11.53, 2.5 7.5 M2.5 12.5 C-1.93 9.54, -1.21 10.81, 2.5 7.5 M2.5 7.5 C3.89 5.11, 5.95 3.84, 7.5 2.5 M2.5 7.5 C3.96 5.89, 5.1 4.42, 7.5 2.5 M7.5 2.5 C9.98 -1.78, 10.33 0.94, 12.5 2.5 M7.5 2.5 C10.48 1.2, 12.15 -0.7, 12.5 2.5" stroke="#1e1e1e" stroke-width="1" fill="none"></path></g><g stroke-linecap="round" transform="translate(611.9999999999999 867.1428571428571) rotate(0 9.5 12.5)"><path d="M12.5 3.25 M12.5 3.25 C13.45 4.81, 15.52 7.56, 16.5 9.75 M12.5 3.25 C13.83 4.64, 14.63 6.55, 16.5 9.75 M16.5 9.75 C20.23 13.96, 18.47 13.58, 16.5 16.25 M16.5 9.75 C20.63 11.87, 19 14.77, 16.5 16.25 M16.5 16.25 C14.52 18.9, 13.52 19.67, 12.5 21.75 M16.5 16.25 C15.35 18.44, 13.82 19.9, 12.5 21.75 M12.5 21.75 C10.59 26.75, 8.32 25.33, 7.5 21.75 M12.5 21.75 C11.76 23.07, 9.54 23.79, 7.5 21.75 M7.5 21.75 C5.85 19.5, 3.42 18.02, 2.5 16.25 M7.5 21.75 C5.83 20.29, 4.57 18.52, 2.5 16.25 M2.5 16.25 C-1.53 12.98, -1.78 13.33, 2.5 9.75 M2.5 16.25 C1.08 13.48, 1.2 15.15, 2.5 9.75 M2.5 9.75 C4.24 7.58, 5.77 7.02, 7.5 3.25 M2.5 9.75 C4.1 8.4, 4.88 6.8, 7.5 3.25 M7.5 3.25 C10.69 0.24, 8.97 0.33, 12.5 3.25 M7.5 3.25 C11.89 -1.11, 8.5 -1.36, 12.5 3.25" stroke="#1e1e1e" stroke-width="1" fill="none"></path></g><g stroke-linecap="round" transform="translate(612.9999999999999 337.1428571428571) rotate(0 8.5 11)"><path d="M11.25 3 M11.25 3 C11.98 5.79, 13.72 6.72, 14.75 9 M11.25 3 C12.71 5.33, 13.78 6.95, 14.75 9 M14.75 9 C17.59 13.75, 15.32 12.33, 14.75 15 M14.75 9 C18.76 10.07, 16.54 10.79, 14.75 15 M14.75 15 C13.63 16.05, 11.92 17.65, 11.25 19 M14.75 15 C13.57 16.09, 12.69 16.96, 11.25 19 M11.25 19 C7.47 21.98, 7.22 22.33, 6.75 19 M11.25 19 C10.08 22.48, 10.2 24.15, 6.75 19 M6.75 19 C5.83 17.63, 4.75 17.43, 2.25 15 M6.75 19 C6 18.17, 4.65 17.17, 2.25 15 M2.25 15 C0.69 12.24, -1.03 12.33, 2.25 9 M2.25 15 C1.89 10.89, -1.5 10.64, 2.25 9 M2.25 9 C4.33 6.58, 5.01 5.95, 6.75 3 M2.25 9 C3.1 7.9, 4.11 6.04, 6.75 3 M6.75 3 C8.32 -1.42, 7.7 0.48, 11.25 3 M6.75 3 C6.71 -0.87, 8.26 -1.64, 11.25 3" stroke="#1e1e1e" stroke-width="1" fill="none"></path></g><g stroke-linecap="round" transform="translate(387.9999999999999 332.1428571428571) rotate(0 12 14.5)"><path d="M16.25 3.75 M16.25 3.75 C17.56 5.7, 19.46 8.92, 20.75 11.25 M16.25 3.75 C16.94 5.58, 18.31 7.35, 20.75 11.25 M20.75 11.25 C23.76 13.23, 24.16 13.69, 20.75 18.75 M20.75 11.25 C22.35 13.24, 23.98 12.95, 20.75 18.75 M20.75 18.75 C19.77 21.56, 17.69 23.29, 16.25 25.25 M20.75 18.75 C19.64 21.18, 17.66 22.57, 16.25 25.25 M16.25 25.25 C12.4 30.81, 13.79 28.92, 9.75 25.25 M16.25 25.25 C13.51 29.79, 13.28 27.82, 9.75 25.25 M9.75 25.25 C7.04 22.62, 5.69 20.27, 3.25 18.75 M9.75 25.25 C7.8 23.79, 5.72 21.29, 3.25 18.75 M3.25 18.75 C0.7 13.74, 1.69 13.54, 3.25 11.25 M3.25 18.75 C-0.87 14.22, -1.63 13.51, 3.25 11.25 M3.25 11.25 C5.11 8.14, 7.88 7.2, 9.75 3.75 M3.25 11.25 C5.93 8.24, 7.54 5.88, 9.75 3.75 M9.75 3.75 C12.27 -1.68, 14.08 1.6, 16.25 3.75 M9.75 3.75 C13.7 -0.73, 11.67 -1.69, 16.25 3.75" stroke="#1e1e1e" stroke-width="1" fill="none"></path></g><g stroke-linecap="round" transform="translate(870.1428571428568 49.71428571428575) rotate(0 13 15)"><path d="M17.5 4 M17.5 4 C19.84 7.48, 20.12 8.41, 22.5 12 M17.5 4 C18.9 6.24, 20.43 8.36, 22.5 12 M22.5 12 C24.97 16.33, 27.65 15.04, 22.5 20 M22.5 12 C24.5 14.64, 26.28 13.91, 22.5 20 M22.5 20 C21.03 22.37, 19.21 22.94, 17.5 26 M22.5 20 C20.5 21.91, 18.98 23.79, 17.5 26 M17.5 26 C12.7 30.48, 12.01 29.24, 10.5 26 M17.5 26 C13.26 28.36, 14.79 31.83, 10.5 26 M10.5 26 C8.88 23.01, 5.33 21.34, 3.5 20 M10.5 26 C9.08 24.6, 6.71 22.61, 3.5 20 M3.5 20 C-1.47 15.67, -0.55 17.75, 3.5 12 M3.5 20 C-1.22 16.62, -0.79 16.18, 3.5 12 M3.5 12 C5.15 8.97, 6.45 8.41, 10.5 4 M3.5 12 C6.17 9.17, 8.89 5.36, 10.5 4 M10.5 4 C15.26 -0.21, 13.15 1.27, 17.5 4 M10.5 4 C15.35 -1.15, 14.7 0.65, 17.5 4" stroke="#1e1e1e" stroke-width="1" fill="none"></path></g><g transform="translate(914.1428571428568 60.71428571428575) rotate(0 28.491666793823242 12.5)"><text x="0" y="0" font-family="Virgil, Segoe UI Emoji" font-size="20px" fill="#1e1e1e" text-anchor="start" style="white-space: pre;" direction="ltr" dominant-baseline="text-before-edge">folder</text></g><g stroke-linecap="round" transform="translate(874.1428571428568 98.71428571428575) rotate(0 11 12)"><path d="M9.27 1.01 C11.56 0.41, 14.89 -0.38, 16.78 0.87 C18.68 2.13, 20.03 6.09, 20.63 8.53 C21.24 10.96, 21.19 13.26, 20.44 15.49 C19.68 17.73, 18.11 20.45, 16.11 21.93 C14.1 23.42, 10.52 24.68, 8.42 24.39 C6.32 24.09, 4.94 22.29, 3.49 20.16 C2.03 18.03, -0.03 14.26, -0.32 11.61 C-0.61 8.96, 0.17 6.03, 1.73 4.26 C3.29 2.5, 7.79 1.63, 9.03 1.02 C10.28 0.41, 9.17 0.53, 9.19 0.59 M9.26 -1.07 C11.32 -1.33, 13.39 1.36, 15.68 3.13 C17.97 4.9, 22.19 7.33, 23.02 9.56 C23.84 11.8, 21.65 14.41, 20.63 16.53 C19.62 18.65, 19.08 20.93, 16.93 22.28 C14.78 23.63, 10.2 25.25, 7.72 24.63 C5.24 24.01, 3.16 20.63, 2.04 18.56 C0.91 16.5, 0.94 14.61, 0.97 12.22 C1 9.84, 0.7 6.15, 2.23 4.25 C3.75 2.35, 8.68 1.59, 10.11 0.85 C11.54 0.11, 10.98 -0.12, 10.82 -0.2" stroke="#1e1e1e" stroke-width="1" fill="none"></path></g><g transform="translate(924.1428571428568 107.71428571428575) rotate(0 15.149999618530273 12.5)"><text x="0" y="0" font-family="Virgil, Segoe UI Emoji" font-size="20px" fill="#1e1e1e" text-anchor="start" style="white-space: pre;" direction="ltr" dominant-baseline="text-before-edge">file</text></g><g transform="translate(941.9999999999999 674.1428571428571) rotate(0 41.358333587646484 12.5)"><text x="0" y="0" font-family="Virgil, Segoe UI Emoji" font-size="20px" fill="#1e1e1e" text-anchor="start" style="white-space: pre;" direction="ltr" dominant-baseline="text-before-edge">reducers</text></g><g stroke-linecap="round" transform="translate(1107 538.1428571428571) rotate(0 10 8)"><path d="M12.33 0.2 C14.28 0.67, 16.07 2.8, 17.19 4.26 C18.3 5.73, 19.06 7.35, 19.03 9.01 C19 10.66, 18.28 12.87, 17 14.17 C15.72 15.48, 13.38 16.86, 11.35 16.83 C9.33 16.81, 6.68 15.19, 4.84 14.01 C3 12.83, 0.9 11.36, 0.29 9.74 C-0.32 8.12, 0.27 5.62, 1.16 4.29 C2.04 2.96, 3.54 2.37, 5.59 1.74 C7.65 1.12, 12.11 0.57, 13.49 0.55 C14.86 0.54, 14.05 1.61, 13.85 1.66 M10.45 -0.14 C12.4 -0.36, 16.55 0.06, 17.95 1.54 C19.35 3.03, 19.05 6.76, 18.84 8.79 C18.64 10.81, 17.69 12.42, 16.72 13.72 C15.75 15.01, 15.08 16.39, 13.03 16.58 C10.98 16.77, 6.29 15.72, 4.44 14.86 C2.59 13.99, 2.66 13, 1.92 11.39 C1.19 9.78, -0.51 6.91, 0.03 5.19 C0.58 3.47, 3.13 2.04, 5.18 1.07 C7.24 0.1, 11.37 -0.49, 12.34 -0.64 C13.3 -0.78, 11 -0.19, 10.98 0.2" stroke="#1e1e1e" stroke-width="1" fill="none"></path></g><g stroke-linecap="round" transform="translate(1108 572.1428571428571) rotate(0 10 8)"><path d="M12.56 0.24 C14.57 0.61, 18.15 2.58, 19.33 4.03 C20.5 5.48, 20.01 7.28, 19.63 8.92 C19.24 10.56, 18.46 12.78, 17.01 13.89 C15.56 14.99, 13.18 15.5, 10.94 15.55 C8.71 15.59, 5.26 15.08, 3.61 14.16 C1.96 13.25, 1.44 11.72, 1.03 10.04 C0.63 8.36, 0.41 5.63, 1.21 4.07 C2.01 2.51, 3.61 1.41, 5.85 0.69 C8.09 -0.02, 13.25 -0.12, 14.65 -0.2 C16.04 -0.28, 14.41 -0.04, 14.22 0.2 M11.46 1.28 C13.53 1.26, 14.85 2.06, 16.34 3.21 C17.83 4.36, 20.28 6.87, 20.4 8.19 C20.52 9.51, 18.16 9.82, 17.08 11.16 C15.99 12.49, 15.9 15.39, 13.89 16.2 C11.89 17, 7.08 16.8, 5.03 15.98 C2.98 15.16, 2.42 12.74, 1.58 11.26 C0.74 9.78, -0.32 8.84, -0.01 7.08 C0.31 5.33, 1.84 1.77, 3.46 0.73 C5.08 -0.3, 8.61 0.79, 9.73 0.86 C10.85 0.93, 10.11 1.05, 10.16 1.16" stroke="#1e1e1e" stroke-width="1" fill="none"></path></g><g transform="translate(1151 487.1428571428571) rotate(0 58.96666717529297 12.5)"><text x="0" y="0" font-family="Virgil, Segoe UI Emoji" font-size="20px" fill="#1e1e1e" text-anchor="start" style="white-space: pre;" direction="ltr" dominant-baseline="text-before-edge">ProjectCard</text></g><g transform="translate(1147 527.1428571428571) rotate(0 113.83333587646484 12.5)"><text x="0" y="0" font-family="Virgil, Segoe UI Emoji" font-size="20px" fill="#1e1e1e" text-anchor="start" style="white-space: pre;" direction="ltr" dominant-baseline="text-before-edge">ProjectAddOrEditModal</text></g><g transform="translate(1152 567.1428571428571) rotate(0 81.05000305175781 12.5)"><text x="0" y="0" font-family="Virgil, Segoe UI Emoji" font-size="20px" fill="#1e1e1e" text-anchor="start" style="white-space: pre;" direction="ltr" dominant-baseline="text-before-edge">ProjectWhatever</text></g><g transform="translate(896.4999999999999 867.2118742646117) rotate(0 54.67499923706055 12.5)"><text x="0" y="0" font-family="Virgil, Segoe UI Emoji" font-size="20px" fill="#1e1e1e" text-anchor="start" style="white-space: pre;" direction="ltr" dominant-baseline="text-before-edge">Components</text></g><g stroke-linecap="round" transform="translate(874.4999999999999 866.2118742646117) rotate(0 7.5 11)"><path d="M10 3 M10 3 C10.31 4.98, 12.2 7.24, 13 9 M10 3 C11.42 5.41, 12.5 7, 13 9 M13 9 C16.06 12.35, 15.41 10.42, 13 15 M13 9 C15.02 12.98, 17.16 10.98, 13 15 M13 15 C11.99 15.72, 11.8 17.1, 10 19 M13 15 C12.37 15.73, 11.48 16.97, 10 19 M10 19 C9.85 23.01, 8.97 22.17, 6 19 M10 19 C6.13 23.28, 7.82 20.79, 6 19 M6 19 C3.96 17.28, 2.95 16.19, 2 15 M6 19 C5.36 18.07, 4.19 17.54, 2 15 M2 15 C1.62 10.25, -1.81 13.17, 2 9 M2 15 C1.46 11.52, -1.22 10.49, 2 9 M2 9 C3.46 6.9, 3.99 6.27, 6 3 M2 9 C3.13 7.78, 3.72 6.15, 6 3 M6 3 C9.15 0.02, 7.69 0.73, 10 3 M6 3 C9.49 -0.3, 9.09 0.91, 10 3" stroke="#1e1e1e" stroke-width="1" fill="none"></path></g><g transform="translate(908.4999999999999 910.2118742646117) rotate(0 41.358333587646484 12.5)"><text x="0" y="0" font-family="Virgil, Segoe UI Emoji" font-size="20px" fill="#1e1e1e" text-anchor="start" style="white-space: pre;" direction="ltr" dominant-baseline="text-before-edge">reducers</text></g><g stroke-linecap="round" transform="translate(1086.5 855.2118742646117) rotate(0 10 8)"><path d="M11.45 0.98 C13.55 0.96, 15.33 0.99, 16.74 1.95 C18.15 2.91, 19.78 5.04, 19.92 6.74 C20.06 8.44, 18.73 10.61, 17.59 12.15 C16.45 13.69, 15.17 15.56, 13.06 15.98 C10.94 16.4, 6.79 15.41, 4.9 14.67 C3.01 13.94, 2.61 13.14, 1.72 11.57 C0.83 10, -0.97 6.8, -0.44 5.26 C0.1 3.71, 2.61 3.04, 4.92 2.3 C7.23 1.56, 11.78 1.17, 13.4 0.83 C15.02 0.48, 14.69 0.22, 14.65 0.25 M7.91 -1.02 C9.54 -1.42, 11.79 0.26, 13.78 0.96 C15.78 1.66, 18.95 1.83, 19.9 3.19 C20.84 4.55, 19.99 7.31, 19.46 9.13 C18.92 10.95, 18.55 12.8, 16.69 14.12 C14.82 15.45, 10.33 17.37, 8.24 17.07 C6.15 16.78, 5.75 13.6, 4.16 12.35 C2.56 11.11, -1.08 11.13, -1.32 9.59 C-1.55 8.05, 1.43 4.83, 2.75 3.11 C4.07 1.4, 5.85 -0.2, 6.6 -0.71 C7.34 -1.21, 7.11 -0.33, 7.22 0.07" stroke="#1e1e1e" stroke-width="1" fill="none"></path></g><g stroke-linecap="round" transform="translate(1088.5 892.2118742646117) rotate(0 10 8)"><path d="M9.6 -0.48 C11.55 -0.85, 14.78 0.1, 16.4 1.2 C18.03 2.3, 18.87 4.26, 19.35 6.1 C19.82 7.94, 20.38 10.76, 19.26 12.24 C18.15 13.73, 14.64 14.41, 12.66 15.01 C10.68 15.6, 9.42 16.41, 7.39 15.81 C5.36 15.21, 1.62 12.81, 0.5 11.42 C-0.62 10.04, 0.08 9.02, 0.68 7.51 C1.28 5.99, 2.43 3.72, 4.1 2.34 C5.78 0.95, 9.44 -0.43, 10.72 -0.8 C11.99 -1.16, 11.86 -0.28, 11.75 0.14 M7.86 0.34 C9.9 -0.06, 13.97 -1, 15.86 -0.33 C17.75 0.34, 18.45 2.58, 19.2 4.35 C19.94 6.13, 21.18 8.38, 20.32 10.33 C19.47 12.28, 15.89 15.33, 14.07 16.04 C12.26 16.74, 11.64 14.9, 9.45 14.56 C7.27 14.22, 2.39 15.16, 0.97 14.01 C-0.45 12.86, 0.85 9.7, 0.95 7.67 C1.05 5.65, 0.38 3.18, 1.56 1.86 C2.75 0.54, 7 -0.08, 8.07 -0.24 C9.13 -0.4, 8.04 0.83, 7.96 0.91" stroke="#1e1e1e" stroke-width="1" fill="none"></path></g><g stroke-linecap="round" transform="translate(1089.5 926.2118742646117) rotate(0 10 8)"><path d="M14.46 0.17 C16.33 0.81, 17.73 2.59, 18.69 4.31 C19.64 6.04, 20.85 8.89, 20.19 10.54 C19.54 12.18, 16.5 13.23, 14.74 14.18 C12.98 15.13, 11.79 16.45, 9.65 16.24 C7.51 16.04, 3.4 14.07, 1.88 12.92 C0.36 11.78, 0.44 10.9, 0.54 9.36 C0.64 7.82, 1.29 5.35, 2.5 3.69 C3.71 2.02, 5.46 -0.25, 7.81 -0.6 C10.17 -0.96, 15.14 0.85, 16.63 1.57 C18.12 2.28, 17.01 3.51, 16.76 3.68 M6.67 -0.68 C8.5 -1.65, 10.35 -1.26, 12.43 -0.64 C14.52 -0.03, 18.05 1.28, 19.16 3.03 C20.26 4.77, 19.2 8.28, 19.05 9.84 C18.9 11.4, 19.84 11.2, 18.24 12.37 C16.64 13.54, 11.64 16.55, 9.46 16.85 C7.28 17.16, 6.83 15.52, 5.17 14.22 C3.52 12.91, 0.27 10.71, -0.47 9.04 C-1.2 7.38, -0.25 5.5, 0.74 4.22 C1.73 2.94, 4.75 2.03, 5.47 1.37 C6.19 0.71, 4.71 0.41, 5.08 0.24" stroke="#1e1e1e" stroke-width="1" fill="none"></path></g><g transform="translate(1127 847.1428571428571) rotate(0 50.900001525878906 12.5)"><text x="0" y="0" font-family="Virgil, Segoe UI Emoji" font-size="20px" fill="#1e1e1e" text-anchor="start" style="white-space: pre;" direction="ltr" dominant-baseline="text-before-edge">StudyCard</text></g><g transform="translate(1131 888.1428571428571) rotate(0 105.76667022705078 12.5)"><text x="0" y="0" font-family="Virgil, Segoe UI Emoji" font-size="20px" fill="#1e1e1e" text-anchor="start" style="white-space: pre;" direction="ltr" dominant-baseline="text-before-edge">StudyAddOrEditModal</text></g><g transform="translate(1132 924.1428571428571) rotate(0 25.633333206176758 12.5)"><text x="0" y="0" font-family="Virgil, Segoe UI Emoji" font-size="20px" fill="#1e1e1e" text-anchor="start" style="white-space: pre;" direction="ltr" dominant-baseline="text-before-edge">Etc...</text></g><g transform="translate(429.9999999999999 493.1428571428571) rotate(0 38.108333587646484 12.5)"><text x="0" y="0" font-family="Virgil, Segoe UI Emoji" font-size="20px" fill="#1e1e1e" text-anchor="start" style="white-space: pre;" direction="ltr" dominant-baseline="text-before-edge">Modules</text></g><g stroke-linecap="round" transform="translate(394.9999999999999 490.1428571428571) rotate(0 12.5 14)"><path d="M16.25 3.75 M16.25 3.75 C18.59 6.08, 19.44 7.87, 21.75 11.25 M16.25 3.75 C17.74 6.55, 20.12 9.1, 21.75 11.25 M21.75 11.25 C25.73 15.7, 23.3 14.66, 21.75 18.75 M21.75 11.25 C24.17 13.14, 27.07 14.94, 21.75 18.75 M21.75 18.75 C20.53 19.67, 18.94 21, 16.25 24.25 M21.75 18.75 C19.8 21.05, 17.53 22.76, 16.25 24.25 M16.25 24.25 C13.81 29.2, 11.03 27.18, 9.75 24.25 M16.25 24.25 C12.42 27.38, 15.05 29.22, 9.75 24.25 M9.75 24.25 C9.02 22.79, 6.74 22.02, 3.25 18.75 M9.75 24.25 C8.56 22.62, 6.99 21.57, 3.25 18.75 M3.25 18.75 C-0.44 15.4, -1.37 14.54, 3.25 11.25 M3.25 18.75 C0.59 16.41, 0.92 16.04, 3.25 11.25 M3.25 11.25 C4.94 8.9, 6.47 6.36, 9.75 3.75 M3.25 11.25 C4.62 9.33, 7 7.63, 9.75 3.75 M9.75 3.75 C14.34 1.35, 13.47 0.91, 16.25 3.75 M9.75 3.75 C11.73 -0.18, 15.05 0.48, 16.25 3.75" stroke="#1e1e1e" stroke-width="1" fill="none"></path></g><g transform="translate(642.9999999999999 393.1428571428571) rotate(0 36.025001525878906 12.5)"><text x="0" y="0" font-family="Virgil, Segoe UI Emoji" font-size="20px" fill="#1e1e1e" text-anchor="start" style="white-space: pre;" direction="ltr" dominant-baseline="text-before-edge">STDCM</text></g><g stroke-linecap="round" transform="translate(613.9999999999999 392.1428571428571) rotate(0 8 11.5)"><path d="M11.25 3 M11.25 3 C11.77 4.49, 11.89 5.62, 13.75 9 M11.25 3 C12.04 4.56, 12.81 6.37, 13.75 9 M13.75 9 C16.33 12.92, 15.82 10.29, 13.75 15 M13.75 9 C16.63 13.57, 17.33 13.62, 13.75 15 M13.75 15 C13.38 15.81, 12.31 17.06, 11.25 20 M13.75 15 C13.13 16.73, 12.11 18.17, 11.25 20 M11.25 20 C10.31 24.33, 10.05 23.62, 6.75 20 M11.25 20 C9.96 24.33, 7.48 25.2, 6.75 20 M6.75 20 C6.35 19.21, 4.62 18.28, 2.25 15 M6.75 20 C5.49 18.98, 4.4 17.61, 2.25 15 M2.25 15 C0.43 12.77, 0.56 10.76, 2.25 9 M2.25 15 C1.23 13.18, 2.1 10.61, 2.25 9 M2.25 9 C3.96 6.57, 6.11 3.76, 6.75 3 M2.25 9 C3.52 6.95, 5.17 4.9, 6.75 3 M6.75 3 C7.47 0.14, 9.21 0.86, 11.25 3 M6.75 3 C10.19 0.63, 7.95 1.44, 11.25 3" stroke="#1e1e1e" stroke-width="1" fill="none"></path></g><g stroke-linecap="round" transform="translate(911.9999999999999 754.1428571428571) rotate(0 11 10)"><path d="M13.02 -0.31 C15.21 0.32, 18.05 3.24, 19.44 4.87 C20.84 6.5, 21.42 7.39, 21.39 9.47 C21.36 11.56, 20.66 15.53, 19.26 17.39 C17.85 19.24, 15.29 20.47, 12.96 20.6 C10.64 20.72, 7.22 19.35, 5.3 18.12 C3.38 16.88, 2.11 15.13, 1.44 13.21 C0.76 11.29, 0.6 8.5, 1.26 6.6 C1.92 4.7, 3.3 2.68, 5.38 1.79 C7.46 0.9, 12.07 1.56, 13.76 1.27 C15.45 0.97, 15.42 0.05, 15.53 0.02 M7.13 1.55 C8.88 0.6, 11.87 -0.74, 14 -0.1 C16.13 0.55, 18.39 3.16, 19.91 5.41 C21.43 7.67, 23.46 11.35, 23.14 13.42 C22.82 15.49, 20.06 16.98, 18.01 17.83 C15.96 18.68, 13.28 18.48, 10.84 18.53 C8.41 18.58, 5.03 19.49, 3.4 18.11 C1.76 16.73, 1.34 12.51, 1.03 10.25 C0.72 7.99, 0.51 6.06, 1.52 4.55 C2.54 3.03, 6.09 1.99, 7.13 1.16 C8.18 0.32, 7.68 -0.35, 7.82 -0.46" stroke="#1e1e1e" stroke-width="1" fill="none"></path></g><g transform="translate(951.9999999999999 757.1428571428571) rotate(0 26.174999237060547 12.5)"><text x="0" y="0" font-family="Virgil, Segoe UI Emoji" font-size="20px" fill="#1e1e1e" text-anchor="start" style="white-space: pre;" direction="ltr" dominant-baseline="text-before-edge">types</text></g><g stroke-linecap="round" transform="translate(878.8300323486327 960.1428571428571) rotate(0 11 10)"><path d="M11.62 0.82 C13.76 1.05, 16.46 2.36, 18.27 3.96 C20.07 5.55, 22.18 8.32, 22.45 10.41 C22.73 12.49, 21.58 14.96, 19.91 16.48 C18.24 18.01, 14.62 19.29, 12.42 19.57 C10.22 19.85, 8.71 19.21, 6.7 18.17 C4.7 17.14, 1.54 15.19, 0.39 13.36 C-0.77 11.53, -1.18 9.04, -0.24 7.18 C0.7 5.32, 3.57 3.23, 6.03 2.2 C8.49 1.16, 12.77 1.05, 14.51 0.97 C16.25 0.89, 16.48 1.57, 16.47 1.7 M10.29 0.92 C12.4 0.77, 15.34 1.52, 17.38 2.3 C19.41 3.08, 21.69 3.79, 22.51 5.6 C23.33 7.41, 23.13 10.93, 22.31 13.16 C21.49 15.39, 19.92 17.63, 17.6 18.97 C15.27 20.32, 10.86 21.64, 8.33 21.23 C5.81 20.82, 3.81 18.21, 2.43 16.52 C1.06 14.83, 0.11 13.15, 0.08 11.1 C0.06 9.04, 0.92 5.93, 2.27 4.18 C3.63 2.43, 7 1.07, 8.22 0.58 C9.43 0.08, 9.49 1.04, 9.54 1.2" stroke="#1e1e1e" stroke-width="1" fill="none"></path></g><g transform="translate(918.8300323486327 963.1428571428571) rotate(0 26.174999237060547 12.5)"><text x="0" y="0" font-family="Virgil, Segoe UI Emoji" font-size="20px" fill="#1e1e1e" text-anchor="start" style="white-space: pre;" direction="ltr" dominant-baseline="text-before-edge">types</text></g><g stroke-linecap="round" transform="translate(815.9999999999999 378.1428571428571) rotate(0 10 11.5)"><path d="M13.75 3 M13.75 3 C15.21 4.59, 16.34 6.01, 17.25 9 M13.75 3 C14.76 5.05, 15.77 6.49, 17.25 9 M17.25 9 C18.35 12.18, 19.83 11.31, 17.25 15 M17.25 9 C18.64 14.01, 19.1 14.21, 17.25 15 M17.25 15 C16.32 16.43, 15.87 17.5, 13.75 20 M17.25 15 C15.64 16.73, 14.16 18.72, 13.75 20 M13.75 20 C9.2 22.14, 9.38 24.57, 8.25 20 M13.75 20 C11.68 24.39, 12.84 24.13, 8.25 20 M8.25 20 C5.81 18.8, 5.06 16.45, 2.75 15 M8.25 20 C6.71 18.51, 5.16 17.27, 2.75 15 M2.75 15 C-1.38 13.38, 0.2 11.11, 2.75 9 M2.75 15 C-1.32 14.14, -1.38 11.43, 2.75 9 M2.75 9 C4.87 7.92, 5.61 4.9, 8.25 3 M2.75 9 C4.91 6.77, 6.57 4.68, 8.25 3 M8.25 3 C10.92 -1.19, 11.5 1.05, 13.75 3 M8.25 3 C13.23 -1.32, 11.55 1.73, 13.75 3" stroke="#1e1e1e" stroke-width="1" fill="none"></path></g><g transform="translate(849.9999999999999 375.1428571428571) rotate(0 32.95833206176758 25)"><text x="0" y="0" font-family="Virgil, Segoe UI Emoji" font-size="20px" fill="#1e1e1e" text-anchor="start" style="white-space: pre;" direction="ltr" dominant-baseline="text-before-edge">scripts</text><text x="0" y="25" font-family="Virgil, Segoe UI Emoji" font-size="20px" fill="#1e1e1e" text-anchor="start" style="white-space: pre;" direction="ltr" dominant-baseline="text-before-edge"></text></g><g transform="translate(640.9999999999999 1039.142857142857) rotate(0 33.43333435058594 12.5)"><text x="0" y="0" font-family="Virgil, Segoe UI Emoji" font-size="20px" fill="#1e1e1e" text-anchor="start" style="white-space: pre;" direction="ltr" dominant-baseline="text-before-edge">common</text></g><g transform="translate(448.57142857142844 1529.4285714285713) rotate(0 53.36666488647461 25)"><text x="0" y="0" font-family="Virgil, Segoe UI Emoji" font-size="20px" fill="#1e1e1e" text-anchor="start" style="white-space: pre;" direction="ltr" dominant-baseline="text-before-edge">styles.scss</text><text x="0" y="25" font-family="Virgil, Segoe UI Emoji" font-size="20px" fill="#1e1e1e" text-anchor="start" style="white-space: pre;" direction="ltr" dominant-baseline="text-before-edge"></text></g><g stroke-linecap="round" transform="translate(613.4999999999999 1044.642857142857) rotate(0 9.5 12.5)"><path d="M12.5 3.25 M12.5 3.25 C13.88 4.4, 14.71 5.92, 16.5 9.75 M12.5 3.25 C13.8 5.75, 14.88 7.96, 16.5 9.75 M16.5 9.75 C18.34 12.48, 19.42 14.92, 16.5 16.25 M16.5 9.75 C19.9 12.52, 19.65 12.89, 16.5 16.25 M16.5 16.25 C16.05 17.61, 14.93 18.8, 12.5 21.75 M16.5 16.25 C15.43 17.97, 14.34 19.34, 12.5 21.75 M12.5 21.75 C9.19 23.14, 10.24 25.88, 7.5 21.75 M12.5 21.75 C8.46 26.66, 10.91 23.78, 7.5 21.75 M7.5 21.75 C6.91 20.52, 5.57 19.72, 2.5 16.25 M7.5 21.75 C5.39 19.58, 4.04 18.19, 2.5 16.25 M2.5 16.25 C0.5 14.69, -0.22 14.19, 2.5 9.75 M2.5 16.25 C-1.98 15.3, 1.42 10.9, 2.5 9.75 M2.5 9.75 C3.65 6.6, 5.94 3.81, 7.5 3.25 M2.5 9.75 C3.69 7.71, 4.95 5.95, 7.5 3.25 M7.5 3.25 C10.99 0.81, 9.03 -1.84, 12.5 3.25 M7.5 3.25 C7.8 1.09, 8.96 1.65, 12.5 3.25" stroke="#1e1e1e" stroke-width="1" fill="none"></path></g><g transform="translate(1024.2857142857142 1505.7142857142856) rotate(0 0.00004999999998744897 0.00004999999998744897)" stroke="none"><path fill="#1e1e1e" d="M 1.57,-1.57 Q 1.57,-1.57 1.77,-1.27 1.98,-0.98 2.09,-0.64 2.20,-0.29 2.19,0.05 2.18,0.41 2.05,0.75 1.93,1.09 1.70,1.37 1.48,1.65 1.18,1.84 0.87,2.04 0.52,2.12 0.18,2.21 -0.17,2.18 -0.53,2.15 -0.86,2.01 -1.19,1.87 -1.46,1.63 -1.73,1.39 -1.90,1.07 -2.08,0.76 -2.15,0.41 -2.21,0.05 -2.17,-0.29 -2.12,-0.65 -1.96,-0.97 -1.80,-1.29 -1.54,-1.54 -1.29,-1.80 -0.97,-1.96 -0.65,-2.12 -0.29,-2.17 0.06,-2.21 0.41,-2.15 0.76,-2.08 1.07,-1.90 1.39,-1.73 1.63,-1.46 1.87,-1.19 2.01,-0.86 2.15,-0.53 2.18,-0.17 2.21,0.18 2.12,0.52 2.03,0.87 1.84,1.18 1.65,1.48 1.37,1.70 1.09,1.93 0.75,2.05 0.41,2.18 0.05,2.19 -0.30,2.20 -0.64,2.09 -0.98,1.98 -1.27,1.77 -1.57,1.56 -1.57,1.57 -1.57,1.57 -1.73,1.35 -1.90,1.14 -2.01,0.90 -2.12,0.66 -2.16,0.39 -2.21,0.13 -2.20,-0.13 -2.18,-0.40 -2.10,-0.65 -2.02,-0.91 -1.88,-1.14 -1.74,-1.36 -1.55,-1.55 -1.36,-1.74 -1.14,-1.88 -0.91,-2.02 -0.65,-2.10 -0.40,-2.18 -0.13,-2.20 0.13,-2.21 0.39,-2.16 0.66,-2.12 0.90,-2.01 1.14,-1.90 1.35,-1.73 1.57,-1.57 1.57,-1.57 L 1.57,-1.57 Z"></path></g><g stroke-linecap="round" transform="translate(410.1428571428572 1586) rotate(0 11 12)"><path d="M6.57 1.34 C8.4 0.13, 10.89 -0.76, 13.19 -0.27 C15.49 0.21, 18.82 2.11, 20.37 4.24 C21.91 6.37, 22.71 9.95, 22.46 12.49 C22.22 15.04, 20.43 17.46, 18.9 19.51 C17.37 21.56, 15.53 24.49, 13.29 24.81 C11.05 25.14, 7.58 22.89, 5.47 21.46 C3.35 20.03, 1.48 18.7, 0.62 16.25 C-0.24 13.79, -0.75 9.33, 0.33 6.73 C1.41 4.13, 6 1.7, 7.1 0.66 C8.21 -0.38, 6.9 0.35, 6.93 0.5 M7.46 0.35 C9.61 -0.47, 12.77 0.32, 15.23 1.58 C17.68 2.84, 21.36 5.78, 22.2 7.91 C23.03 10.04, 21.14 12.21, 20.23 14.36 C19.32 16.52, 18.46 19.42, 16.73 20.82 C14.99 22.21, 11.88 22.95, 9.82 22.73 C7.77 22.52, 5.94 21.17, 4.4 19.53 C2.86 17.9, 0.77 15.51, 0.6 12.93 C0.42 10.35, 1.98 5.93, 3.36 4.07 C4.75 2.2, 8 2.44, 8.9 1.76 C9.81 1.09, 8.75 -0.19, 8.8 0" stroke="#1e1e1e" stroke-width="1" fill="none"></path></g><g transform="translate(455.42857142857144 1586.5714285714287) rotate(0 26.391666412353516 12.5)"><text x="0" y="0" font-family="Virgil, Segoe UI Emoji" font-size="20px" fill="#1e1e1e" text-anchor="start" style="white-space: pre;" direction="ltr" dominant-baseline="text-before-edge">store</text></g><g transform="translate(906.607249668666 1051.9624198026027) rotate(0 25.850000381469727 12.499999999999943)"><text x="0" y="0" font-family="Virgil, Segoe UI Emoji" font-size="20px" fill="#1e1e1e" text-anchor="start" style="white-space: pre;" direction="ltr" dominant-baseline="text-before-edge">graph</text></g><g stroke-linecap="round" transform="translate(875.607249668666 1054.9624198026024) rotate(0 9.5 12.5)"><path d="M12.5 3.25 M12.5 3.25 C13.17 4.29, 14.38 6.73, 16.5 9.75 M12.5 3.25 C13.78 5.23, 15.03 7.18, 16.5 9.75 M16.5 9.75 C18.12 13.15, 17.94 12.67, 16.5 16.25 M16.5 9.75 C17.75 10.81, 19.99 12.62, 16.5 16.25 M16.5 16.25 C14.4 17.97, 13.57 19.92, 12.5 21.75 M16.5 16.25 C15.36 18.25, 13.64 20.15, 12.5 21.75 M12.5 21.75 C11.06 26.39, 10.68 25.9, 7.5 21.75 M12.5 21.75 C12.05 22.9, 11.56 25.19, 7.5 21.75 M7.5 21.75 C5.59 20.16, 3.99 18.34, 2.5 16.25 M7.5 21.75 C6.5 20.63, 5.76 19.81, 2.5 16.25 M2.5 16.25 C0.7 11.45, 0.8 11.49, 2.5 9.75 M2.5 16.25 C-1.8 14.22, -1.71 11.93, 2.5 9.75 M2.5 9.75 C3.91 7.79, 6.42 5.97, 7.5 3.25 M2.5 9.75 C3.99 7.97, 5.72 5.53, 7.5 3.25 M7.5 3.25 C9.23 -1.95, 9.74 -1.2, 12.5 3.25 M7.5 3.25 C10.92 0.58, 10.01 1.44, 12.5 3.25" stroke="#1e1e1e" stroke-width="1" fill="none"></path></g><g stroke-linecap="round" transform="translate(1125.9643925258088 1055.7457226386425) rotate(0 10 8)"><path d="M11.8 -0.08 C13.79 0.09, 16.74 1.7, 18.19 3.13 C19.64 4.56, 20.85 6.56, 20.48 8.48 C20.12 10.4, 17.6 13.39, 16.01 14.64 C14.41 15.88, 12.89 15.91, 10.93 15.97 C8.97 16.02, 5.9 15.94, 4.24 14.99 C2.58 14.04, 1.45 11.86, 0.99 10.26 C0.52 8.65, 0.8 6.85, 1.47 5.37 C2.15 3.88, 2.92 2.04, 5.04 1.36 C7.16 0.68, 12.6 1.41, 14.19 1.29 C15.78 1.18, 14.69 0.54, 14.58 0.66 M10.4 0.76 C12.25 0.92, 14.92 0.66, 16.69 1.83 C18.46 3.01, 20.61 6.31, 21.01 7.84 C21.4 9.37, 20.26 9.91, 19.06 11.01 C17.85 12.11, 16.1 13.58, 13.79 14.45 C11.47 15.33, 7.45 16.8, 5.17 16.25 C2.89 15.69, 0.81 12.77, 0.1 11.13 C-0.6 9.49, 0.38 8.08, 0.95 6.42 C1.52 4.75, 1.86 2.07, 3.5 1.13 C5.15 0.19, 9.45 0.9, 10.81 0.77 C12.17 0.64, 11.91 0.45, 11.64 0.36" stroke="#1e1e1e" stroke-width="1" fill="none"></path></g><g stroke-linecap="round" transform="translate(1127.9643925258088 1092.7457226386425) rotate(0 10 8)"><path d="M13.2 0.04 C15.42 0.49, 18.19 1.86, 19.14 3.55 C20.1 5.24, 19.34 8.42, 18.94 10.17 C18.55 11.92, 18.22 12.99, 16.77 14.05 C15.32 15.11, 12.32 16.45, 10.25 16.53 C8.18 16.61, 5.96 15.55, 4.36 14.53 C2.75 13.5, 1.29 12, 0.62 10.37 C-0.04 8.74, -0.62 6.3, 0.37 4.76 C1.36 3.21, 4.27 1.86, 6.55 1.1 C8.83 0.35, 12.53 0.03, 14.05 0.23 C15.57 0.43, 15.63 1.93, 15.67 2.3 M5.35 0.78 C7.24 -0.03, 10.99 1.01, 13.17 1.2 C15.34 1.38, 17.15 0.91, 18.38 1.89 C19.62 2.88, 20.95 5.08, 20.59 7.12 C20.24 9.16, 17.99 12.78, 16.28 14.13 C14.56 15.48, 12.11 15.11, 10.31 15.22 C8.51 15.33, 7.16 15.69, 5.48 14.8 C3.8 13.91, 0.94 11.38, 0.24 9.88 C-0.46 8.38, 0.2 7.25, 1.28 5.79 C2.35 4.34, 6.17 2.03, 6.68 1.15 C7.19 0.27, 4.57 0.31, 4.34 0.53" stroke="#1e1e1e" stroke-width="1" fill="none"></path></g><g stroke-linecap="round" transform="translate(1136.107249668666 1193.8885797814999) rotate(0 10 8)"><path d="M8.58 -0.22 C10.42 -0.42, 12.05 0.97, 13.88 1.85 C15.71 2.74, 18.62 3.54, 19.57 5.08 C20.53 6.62, 20.22 9.41, 19.61 11.1 C18.99 12.78, 17.67 14.23, 15.89 15.18 C14.11 16.13, 11.32 17, 8.93 16.8 C6.55 16.59, 3.05 15.29, 1.57 13.95 C0.1 12.62, 0.09 10.71, 0.08 8.77 C0.08 6.82, 0.18 3.63, 1.53 2.28 C2.89 0.93, 6.98 0.89, 8.2 0.67 C9.42 0.46, 8.96 0.93, 8.85 0.99 M13.63 1.29 C15.71 1.43, 17.52 1.16, 18.67 2.2 C19.83 3.24, 21.02 5.47, 20.57 7.51 C20.11 9.54, 17.74 13.12, 15.95 14.41 C14.16 15.71, 11.64 15.24, 9.83 15.27 C8.02 15.3, 6.7 15.55, 5.08 14.59 C3.46 13.63, 0.7 11.04, 0.1 9.52 C-0.5 7.99, 0.3 6.86, 1.47 5.44 C2.63 4.02, 5.44 1.93, 7.1 0.98 C8.77 0.02, 10.66 -0.35, 11.48 -0.3 C12.3 -0.25, 11.88 1.16, 12.03 1.28" stroke="#1e1e1e" stroke-width="1" fill="none"></path></g><g transform="translate(1159.4643925258088 1050.676705516888) rotate(0 20.433332443237305 12.5)"><text x="0" y="0" font-family="Virgil, Segoe UI Emoji" font-size="20px" fill="#1e1e1e" text-anchor="start" style="white-space: pre;" direction="ltr" dominant-baseline="text-before-edge">rect</text></g><g transform="translate(1170.4643925258088 1088.676705516888) rotate(0 14.958333015441895 12.5)"><text x="0" y="0" font-family="Virgil, Segoe UI Emoji" font-size="20px" fill="#1e1e1e" text-anchor="start" style="white-space: pre;" direction="ltr" dominant-baseline="text-before-edge">line</text></g><g transform="translate(1178.607249668666 1191.8195626597453) rotate(0 25.633333206176758 12.5)"><text x="0" y="0" font-family="Virgil, Segoe UI Emoji" font-size="20px" fill="#1e1e1e" text-anchor="start" style="white-space: pre;" direction="ltr" dominant-baseline="text-before-edge">Etc...</text></g><g stroke-linecap="round" transform="translate(1134.1200256347656 1127.2833028360403) rotate(0 10 8)"><path d="M12.25 0.43 C14.14 0.38, 16.01 0.54, 17.24 1.77 C18.47 3, 19.64 5.83, 19.64 7.83 C19.64 9.83, 18.47 12.53, 17.25 13.77 C16.03 15.01, 14.46 15.18, 12.33 15.24 C10.21 15.3, 6.42 14.7, 4.51 14.14 C2.6 13.57, 1.65 13.25, 0.89 11.85 C0.13 10.45, -0.56 7.57, -0.06 5.75 C0.43 3.92, 1.38 1.82, 3.86 0.88 C6.35 -0.05, 12.82 -0.04, 14.84 0.15 C16.87 0.35, 16.32 1.79, 16.04 2.07 M5.31 -0.33 C6.96 -1.22, 9.44 -0.34, 11.66 0.52 C13.89 1.38, 17.32 3.6, 18.67 4.84 C20.02 6.07, 20.01 6.67, 19.77 7.94 C19.53 9.22, 18.62 11.03, 17.22 12.48 C15.82 13.93, 13.59 16.33, 11.39 16.62 C9.2 16.91, 5.8 15.42, 4.05 14.2 C2.31 12.97, 1.24 10.66, 0.93 9.27 C0.62 7.87, 1.42 7.39, 2.21 5.82 C2.99 4.25, 4.86 0.53, 5.64 -0.14 C6.42 -0.81, 6.93 1.78, 6.88 1.8" stroke="#1e1e1e" stroke-width="1" fill="none"></path></g><g transform="translate(1176.6200256347656 1125.2142857142856) rotate(0 22.674999237060547 12.5)"><text x="0" y="0" font-family="Virgil, Segoe UI Emoji" font-size="20px" fill="#1e1e1e" text-anchor="start" style="white-space: pre;" direction="ltr" dominant-baseline="text-before-edge">GET</text></g><g stroke-linecap="round" transform="translate(1132.691454206194 1162.9975885503259) rotate(0 10 8)"><path d="M4.98 0.5 C6.55 -0.29, 9.52 -0.61, 11.63 -0.27 C13.75 0.07, 16.39 0.92, 17.67 2.54 C18.95 4.16, 19.39 7.52, 19.3 9.47 C19.22 11.41, 18.7 13.23, 17.16 14.21 C15.63 15.2, 12.3 15.38, 10.09 15.38 C7.87 15.38, 5.34 15.16, 3.88 14.23 C2.42 13.29, 1.95 11.29, 1.33 9.78 C0.71 8.28, -0.8 6.68, 0.16 5.2 C1.12 3.72, 5.48 1.7, 7.09 0.91 C8.71 0.13, 9.62 0.4, 9.84 0.48 M9.29 -1.49 C11.22 -1.51, 15.1 0.15, 17.08 1.58 C19.07 3.01, 20.96 5.46, 21.2 7.08 C21.44 8.69, 19.63 9.77, 18.51 11.26 C17.38 12.74, 16.59 15.04, 14.47 15.98 C12.35 16.93, 8.01 17.52, 5.8 16.93 C3.59 16.33, 2.2 14.32, 1.21 12.39 C0.22 10.46, -0.47 7.13, -0.14 5.34 C0.18 3.55, 1.54 2.71, 3.15 1.66 C4.75 0.6, 8.41 -0.88, 9.48 -0.97 C10.56 -1.06, 9.33 0.7, 9.61 1.11" stroke="#1e1e1e" stroke-width="1" fill="none"></path></g><g transform="translate(1175.191454206194 1160.928571428571) rotate(0 19.799999237060547 12.5)"><text x="0" y="0" font-family="Virgil, Segoe UI Emoji" font-size="20px" fill="#1e1e1e" text-anchor="start" style="white-space: pre;" direction="ltr" dominant-baseline="text-before-edge">GEV</text></g><g transform="translate(88.57142857142856 75.71428571428572) rotate(0 222.50833129882812 20.700000000000003)"><text x="0" y="0" font-family="Helvetica, Segoe UI Emoji" font-size="36px" fill="#1971c2" text-anchor="start" style="white-space: pre;" direction="ltr" dominant-baseline="text-before-edge">Modular App Arbo reflexion </text></g><g stroke-linecap="round" transform="translate(10 10) rotate(0 313.5714285714285 87.14285714285712)"><path d="M32 0 M32 0 C249.96 0.38, 467.36 -0.58, 595.14 0 M32 0 C165.38 0.8, 299.45 0.85, 595.14 0 M595.14 0 C615.77 0.69, 626.98 9.15, 627.14 32 M595.14 0 C614.9 1.76, 625.57 11.94, 627.14 32 M627.14 32 C627.83 64.55, 627.53 97.07, 627.14 142.29 M627.14 32 C627.25 71.36, 627.52 109.18, 627.14 142.29 M627.14 142.29 C625.97 165.08, 617.53 173.31, 595.14 174.29 M627.14 142.29 C628.64 164.12, 615.3 173.05, 595.14 174.29 M595.14 174.29 C418.77 175.79, 242.39 175.32, 32 174.29 M595.14 174.29 C449.39 173.54, 303.02 173.81, 32 174.29 M32 174.29 C9.62 172.89, -0.62 164.37, 0 142.29 M32 174.29 C12.2 175.52, 1.41 162.7, 0 142.29 M0 142.29 C0.2 100.49, -1.35 53.7, 0 32 M0 142.29 C0.25 113.85, -0.83 85.43, 0 32 M0 32 C-0.51 9.38, 11.29 1.41, 32 0 M0 32 C-1.47 9.71, 12.68 0.49, 32 0" stroke="#1971c2" stroke-width="1" fill="none"></path></g><g stroke-linecap="round"><g transform="translate(310.1428571428571 313.2857142857141) rotate(0 0.003277698768783921 607.673670433596)"><path d="M-0.07 0.37 C-0.01 202.76, 1.63 1012.36, 1.58 1214.69 M-1.57 -0.49 C-1.67 202.02, 0.63 1013.24, 1.23 1215.83" stroke="#1e1e1e" stroke-width="1" fill="none"></path></g></g><mask></mask><g stroke-linecap="round"><g transform="translate(564.4285714285716 340.4285714285712) rotate(0 15.275094669312239 37.976169014881776)"><path d="M0.19 -0.22 C11.81 1.65, 22.35 -1.21, 26.56 -0.38 M0.01 -0.08 C8.18 0.24, 15.05 0.83, 26.87 -0.68 M28.13 -1.46 C26.01 18.18, 26.86 36.57, 29.15 76.86 M27.01 0.16 C29.36 20.93, 28.39 41.25, 30.54 77.41" stroke="#1e1e1e" stroke-width="1" fill="none"></path></g></g><mask></mask><g stroke-linecap="round"><g transform="translate(745.8571428571429 340.4285714285712) rotate(0 14.498184496802878 32.77836397396666)"><path d="M-1.46 0.36 C11.28 -2.56, 19.67 0.7, 27.01 -1.12 M0.32 -0.94 C8.57 0.4, 17.44 -0.35, 29.16 -1.24 M30.46 -1.49 C27.38 19.45, 30.05 38.13, 29.11 67.05 M28.49 -1 C29.66 15.39, 29.53 30.78, 30.44 65.47" stroke="#1e1e1e" stroke-width="1" fill="none"></path></g></g><mask></mask><g stroke-linecap="round"><g transform="translate(519.9881003243582 498.0297937648122) rotate(0 32.33533014341123 286.29119440798695)"><path d="M1.23 0.57 C14.73 -0.41, 30.82 1.4, 61.55 -1.36 M0.08 -0.93 C14.96 -0.96, 29.85 0.61, 61.11 -0.94 M62.27 -0.37 C61.15 223.25, 63.05 448.09, 63.98 573.94 M61.99 -0.15 C60.29 123.27, 60.33 246.52, 64.59 573.87" stroke="#1e1e1e" stroke-width="1" fill="none"></path></g></g><mask></mask><g stroke-linecap="round"><g transform="translate(793 505.1428571428569) rotate(0 29.114037912723063 68.31031329211379)"><path d="M-0.56 -1.84 C18.29 0.6, 35.64 -1.17, 56.14 -0.82 M0.45 -0.42 C20.58 1.1, 40.37 1.17, 56.56 -0.61 M55.64 0.78 C57.82 49.07, 58.89 93.25, 58.78 137.36 M56.56 -0.47 C56.86 52.74, 57.47 104.22, 57.22 138.46" stroke="#1e1e1e" stroke-width="1" fill="none"></path></g></g><mask></mask><g stroke-linecap="round"><g transform="translate(1045.8571428571431 499.4285714285712) rotate(0 19.125071078721817 36.73496477598593)"><path d="M0.07 0.56 C9.66 0.51, 17.99 -0.39, 35.45 -0.88 M0.73 -0.79 C11.36 0.12, 24.25 1.21, 35.45 0.11 M37.43 -1.38 C37.87 21.31, 35.89 41.69, 37.29 73.44 M36.02 0.2 C37.71 24.11, 38.94 50.65, 37.63 74.85" stroke="#1e1e1e" stroke-width="1" fill="none"></path></g></g><mask></mask><g stroke-linecap="round"><g transform="translate(767.2857142857142 871.8571428571427) rotate(0 28.705376819308356 58.0342968840684)"><path d="M1.73 1.79 C16.28 -1.7, 35.19 -0.95, 54.98 -2.5 M-0.31 -0.45 C16.55 0.61, 31.64 -0.03, 54.75 -1.41 M56.19 -2.02 C55.13 31.13, 56.38 65.6, 56.45 118.57 M55.54 -1.69 C55.53 28.49, 55.33 60.64, 57.72 117.22" stroke="#1e1e1e" stroke-width="1" fill="none"></path></g></g><mask></mask><g stroke-linecap="round"><g transform="translate(1034.4285714285716 866.1428571428569) rotate(0 21.449858091505575 43.36794572376783)"><path d="M-0.27 0.67 C16.22 1.68, 29.42 2.44, 41.59 1.45 M-0.37 -0.8 C11.96 0.93, 23.83 0.23, 42.18 1.22 M43.27 1.86 C40.24 25.29, 42.45 51.49, 38.54 87.43 M41.26 1.78 C42.12 31.17, 40.71 62.69, 40.09 87.54" stroke="#1e1e1e" stroke-width="1" fill="none"></path></g></g><mask></mask><g stroke-linecap="round"><g transform="translate(767.7142857142858 1062.9999999999998) rotate(0 29.533093866226807 51.89034178959457)"><path d="M-0.05 -1.15 C23.74 -0.65, 46.66 -3.12, 56.6 -0.2 M-0.5 0.46 C23.6 0.9, 46.98 -0.74, 58.41 -0.83 M59.56 -3.37 C59.11 23.57, 57.63 51.31, 57.86 107.15 M58.9 -2.05 C60.1 37.28, 58.58 75.66, 58.09 104.88" stroke="#1e1e1e" stroke-width="1" fill="none"></path></g></g><mask></mask><g stroke-linecap="round"><g transform="translate(1009.5714285714288 1056.285714285714) rotate(0 36.09697056322216 82.97078489937945)"><path d="M-0.74 -0.94 C24.09 -0.16, 47.1 -1.05, 68.3 -2.4 M-0.62 0.63 C25.16 0.35, 52.18 -1.33, 69.12 -2.04 M70.05 -2.95 C68.95 52.98, 70.02 104.41, 72.75 168.89 M68.25 -1.27 C70.31 62.68, 71.29 125.26, 72.93 168.1" stroke="#1e1e1e" stroke-width="1" fill="none"></path></g></g><mask></mask><g stroke-linecap="round"><g transform="translate(307.2857142857142 308.9999999999999) rotate(0 -29.48973339263887 0.5079753601125105)"><path d="M1.57 -1.58 C-19.57 2.52, -41.05 -0.34, -60.55 2.59 M0.7 0.52 C-20.06 0.76, -39.34 0.38, -57.7 1.01" stroke="#1e1e1e" stroke-width="1" fill="none"></path></g></g><mask></mask><g stroke-linecap="round" transform="translate(902.2143787202377 630.247619047619) rotate(0 15 13.571428571428555)"><path d="M20 3.5 M20 3.5 C20.4 4.08, 22.64 6.79, 26 10.5 M20 3.5 C21.34 5.95, 23.7 7.57, 26 10.5 M26 10.5 C31.4 15.06, 29.67 13.6, 26 17.5 M26 10.5 C31.26 16.14, 30.44 15.62, 26 17.5 M26 17.5 C25.06 18.96, 22.37 21.19, 20 23.64 M26 17.5 C24.63 19, 22.32 21.04, 20 23.64 M20 23.64 C15.75 25.45, 14.34 29, 12 23.64 M20 23.64 C14.86 25.32, 16.45 27.9, 12 23.64 M12 23.64 C10.52 22.1, 8.5 21.51, 4 17.5 M12 23.64 C9.24 21.25, 5.69 19.29, 4 17.5 M4 17.5 C-1.56 13.94, -0.44 12.41, 4 10.5 M4 17.5 C1.05 12.03, 2.14 13.5, 4 10.5 M4 10.5 C6.27 8.07, 8.73 7.61, 12 3.5 M4 10.5 C6.11 9.26, 7.82 6.88, 12 3.5 M12 3.5 C17.19 1.42, 17.19 -0.66, 20 3.5 M12 3.5 C18.01 -2.01, 18.03 -0.42, 20 3.5" stroke="#1e1e1e" stroke-width="1" fill="none"></path></g><g transform="translate(952.0715215773806 632.247619047619) rotate(0 29.308332443237305 12.5)"><text x="0" y="0" font-family="Virgil, Segoe UI Emoji" font-size="20px" fill="#1e1e1e" text-anchor="start" style="white-space: pre;" direction="ltr" dominant-baseline="text-before-edge">styles</text></g><g transform="translate(1119.9286644345234 631.8190476190475) rotate(0 58.25 12.5)"><text x="0" y="0" font-family="Virgil, Segoe UI Emoji" font-size="20px" fill="#1e1e1e" text-anchor="start" style="white-space: pre;" direction="ltr" dominant-baseline="text-before-edge">project.scss</text></g><g transform="translate(1122.6429501488092 668.1047619047617) rotate(0 89.60832977294922 12.5)"><text x="0" y="0" font-family="Virgil, Segoe UI Emoji" font-size="20px" fill="#1e1e1e" text-anchor="start" style="white-space: pre;" direction="ltr" dominant-baseline="text-before-edge">_projectCard.scss</text></g><g stroke-linecap="round" transform="translate(897.9881003243582 573.9142857142857) rotate(0 12 15)"><path d="M16.25 4 M16.25 4 C17.9 6.07, 17.97 7.01, 20.75 12 M16.25 4 C17.7 6.68, 19.04 9.17, 20.75 12 M20.75 12 C23.3 17.74, 22.22 17.85, 20.75 20 M20.75 12 C22.9 15.59, 24.79 14.35, 20.75 20 M20.75 20 C19.11 21.58, 18.65 22.93, 16.25 26 M20.75 20 C19.56 21.83, 17.99 23.93, 16.25 26 M16.25 26 C11.36 29.97, 13.14 30.23, 9.75 26 M16.25 26 C13.32 29.19, 11.44 29.05, 9.75 26 M9.75 26 C8.76 24.5, 7.1 24.01, 3.25 20 M9.75 26 C8.38 24.56, 6.46 23.65, 3.25 20 M3.25 20 C1.99 14.07, 1.38 14.29, 3.25 12 M3.25 20 C-0.97 14.51, 2.25 14.96, 3.25 12 M3.25 12 C3.83 10.03, 6.2 7.94, 9.75 4 M3.25 12 C4.9 10.49, 6.34 9.21, 9.75 4 M9.75 4 C12.85 -0.98, 13.55 -0.65, 16.25 4 M9.75 4 C14.35 -1.61, 11.78 -0.56, 16.25 4" stroke="#1e1e1e" stroke-width="1" fill="none"></path></g><g transform="translate(932.9881003243582 575.9142857142857) rotate(0 33.17499923706055 12.5)"><text x="0" y="0" font-family="Virgil, Segoe UI Emoji" font-size="20px" fill="#1e1e1e" text-anchor="start" style="white-space: pre;" direction="ltr" dominant-baseline="text-before-edge">helpers</text></g><g stroke-linecap="round" transform="translate(894.9881003243582 530.9142857142857) rotate(0 11.5 14)"><path d="M15 3.75 M15 3.75 C17.24 5.56, 17.59 8.4, 20 11.25 M15 3.75 C16.66 6.61, 18.08 9.16, 20 11.25 M20 11.25 C21.78 15.11, 24.62 13.58, 20 18.75 M20 11.25 C25.08 16.37, 25.07 16.01, 20 18.75 M20 18.75 C19.06 21.17, 17.27 22.7, 15 24.25 M20 18.75 C18.45 20.33, 16.53 22.53, 15 24.25 M15 24.25 C12.07 26.08, 12.98 26.16, 9 24.25 M15 24.25 C10.6 28.87, 13.98 29.78, 9 24.25 M9 24.25 C6.17 22.18, 4.73 20.22, 3 18.75 M9 24.25 C7.19 22.85, 5.92 21.08, 3 18.75 M3 18.75 C1.79 14.4, 0.3 13.9, 3 11.25 M3 18.75 C2.05 14.56, 0.04 16.36, 3 11.25 M3 11.25 C5.96 7.98, 8.33 5.39, 9 3.75 M3 11.25 C4.8 8.58, 6.67 6.14, 9 3.75 M9 3.75 C13.8 -1.54, 12.72 -1.78, 15 3.75 M9 3.75 C10.97 1.49, 9.89 -1.77, 15 3.75" stroke="#1e1e1e" stroke-width="1" fill="none"></path></g><g transform="translate(932.9881003243582 530.9142857142857) rotate(0 34.08333206176758 12.5)"><text x="0" y="0" font-family="Virgil, Segoe UI Emoji" font-size="20px" fill="#1e1e1e" text-anchor="start" style="white-space: pre;" direction="ltr" dominant-baseline="text-before-edge">assets</text></g><g stroke-linecap="round" transform="translate(410.98810032435824 1537.9142857142858) rotate(0 12.5 11.5)"><path d="M16.94 0.98 C19.49 1.4, 22.51 2.99, 23.77 5 C25.04 7.01, 25.17 10.56, 24.54 13.02 C23.92 15.49, 21.91 18.25, 20.02 19.78 C18.14 21.32, 15.81 22.31, 13.26 22.23 C10.7 22.16, 6.97 20.71, 4.71 19.34 C2.46 17.97, 0.37 16.43, -0.28 14.01 C-0.93 11.6, -0.56 7.2, 0.83 4.87 C2.23 2.53, 4.82 0.28, 8.1 0.01 C11.38 -0.27, 18.12 2.32, 20.53 3.22 C22.93 4.13, 22.88 5.62, 22.53 5.45 M15.21 -0.49 C17.79 -0.07, 20.26 2.62, 22.06 4.54 C23.87 6.46, 25.97 8.83, 26.06 11.01 C26.15 13.18, 24.76 15.4, 22.61 17.61 C20.47 19.81, 15.85 23.54, 13.19 24.23 C10.52 24.92, 8.82 23.19, 6.63 21.76 C4.43 20.34, 1.14 17.99, 0.02 15.68 C-1.1 13.38, -1.2 10.49, -0.11 7.93 C0.98 5.37, 3.84 1.8, 6.55 0.31 C9.26 -1.18, 14.73 -0.8, 16.15 -1.01 C17.57 -1.21, 15.55 -1.51, 15.08 -0.92" stroke="#1e1e1e" stroke-width="1" fill="none"></path></g><g stroke-linecap="round" transform="translate(403.98810032435824 1285.9142857142858) rotate(0 14 14)"><path d="M18.75 3.75 M18.75 3.75 C19.42 6.51, 21.91 7.81, 24.25 11.25 M18.75 3.75 C20.39 5.73, 21.27 8.02, 24.25 11.25 M24.25 11.25 C26.35 15.21, 26.17 13.13, 24.25 18.75 M24.25 11.25 C29.84 14.31, 28.24 15.83, 24.25 18.75 M24.25 18.75 C21.83 20.7, 20.39 22.83, 18.75 24.25 M24.25 18.75 C22.87 20.52, 20.91 22.04, 18.75 24.25 M18.75 24.25 C16.65 26.27, 14.11 26.55, 11.25 24.25 M18.75 24.25 C17.05 28.16, 17 27.7, 11.25 24.25 M11.25 24.25 C9.78 22.2, 7.84 21.63, 3.75 18.75 M11.25 24.25 C9.84 23.1, 7.58 21.77, 3.75 18.75 M3.75 18.75 C-1.37 14.39, -1.05 15.04, 3.75 11.25 M3.75 18.75 C-1.34 12.73, -1.5 14.14, 3.75 11.25 M3.75 11.25 C7.01 8.94, 8.22 5.74, 11.25 3.75 M3.75 11.25 C6.88 8.42, 9.18 5.23, 11.25 3.75 M11.25 3.75 C16.36 0.35, 16.78 1.63, 18.75 3.75 M11.25 3.75 C15.91 1.67, 16.13 -2.19, 18.75 3.75" stroke="#1e1e1e" stroke-width="1" fill="none"></path></g><g transform="translate(445.98810032435824 1284.9142857142858) rotate(0 33.43333435058594 12.5)"><text x="0" y="0" font-family="Virgil, Segoe UI Emoji" font-size="20px" fill="#1e1e1e" text-anchor="start" style="white-space: pre;" direction="ltr" dominant-baseline="text-before-edge">common</text></g><g stroke-linecap="round" transform="translate(626.9881003243582 1282.9142857142858) rotate(0 13.5 13.5)"><path d="M17.5 3.5 M17.5 3.5 C19.33 5.03, 21.78 8.27, 23.5 10.5 M17.5 3.5 C18.64 4.8, 20.08 6.28, 23.5 10.5 M23.5 10.5 C25.02 12.7, 26.26 14.15, 23.5 17.5 M23.5 10.5 C27.05 14.33, 29.06 14, 23.5 17.5 M23.5 17.5 C22.02 19.28, 20.54 20.98, 17.5 23.5 M23.5 17.5 C21.95 19.5, 20.64 20.87, 17.5 23.5 M17.5 23.5 C15.46 27.98, 12.09 28.52, 10.5 23.5 M17.5 23.5 C13.78 25.32, 15.77 26.29, 10.5 23.5 M10.5 23.5 C7.67 21.16, 6.43 19.7, 3.5 17.5 M10.5 23.5 C9.15 21.93, 7.45 20.28, 3.5 17.5 M3.5 17.5 C-0.28 13.01, -0.37 12.51, 3.5 10.5 M3.5 17.5 C0.84 14.4, 0.76 14.14, 3.5 10.5 M3.5 10.5 C5.21 8.18, 7.7 7.18, 10.5 3.5 M3.5 10.5 C6.03 7.87, 8.5 5.98, 10.5 3.5 M10.5 3.5 C15.57 -1.84, 14.38 -1.06, 17.5 3.5 M10.5 3.5 C11.88 2.19, 12.17 -1.43, 17.5 3.5" stroke="#1e1e1e" stroke-width="1" fill="none"></path></g><g stroke-linecap="round" transform="translate(629.9881003243582 1322.9142857142858) rotate(0 10 14.5)"><path d="M10.3 -0.48 C12.42 -0.54, 14.66 0.66, 16.31 2.99 C17.95 5.31, 19.88 10.09, 20.18 13.46 C20.49 16.83, 19.47 20.75, 18.16 23.21 C16.86 25.67, 14.45 27.49, 12.36 28.23 C10.26 28.97, 7.59 28.79, 5.59 27.66 C3.59 26.53, 1.2 24.12, 0.34 21.44 C-0.52 18.76, -0.19 14.65, 0.43 11.56 C1.05 8.47, 2.2 4.73, 4.05 2.89 C5.9 1.06, 10.28 0.94, 11.55 0.52 C12.82 0.11, 11.75 0.08, 11.69 0.4 M11.65 -0.97 C14.14 -1.12, 17 2.11, 18.58 4.26 C20.16 6.4, 21.16 8.92, 21.14 11.89 C21.12 14.85, 20.12 19.04, 18.46 22.05 C16.81 25.06, 13.5 29.17, 11.18 29.94 C8.87 30.72, 6.38 28.05, 4.56 26.69 C2.74 25.34, 0.8 24.31, 0.29 21.82 C-0.23 19.33, 0.75 14.96, 1.49 11.75 C2.23 8.54, 2.91 4.43, 4.71 2.56 C6.5 0.68, 11.22 0.83, 12.27 0.51 C13.31 0.18, 11.19 0.41, 10.95 0.58" stroke="#1e1e1e" stroke-width="1" fill="none"></path></g><g stroke-linecap="round" transform="translate(630.9881003243582 1369.4142857142858) rotate(0 10 14.5)"><path d="M7.39 0.64 C9.37 -0.1, 13.31 0.71, 15.23 2.01 C17.16 3.31, 18.29 5.8, 18.93 8.44 C19.58 11.08, 19.54 14.87, 19.11 17.83 C18.68 20.8, 17.96 24.49, 16.34 26.24 C14.71 28, 11.53 28.63, 9.37 28.36 C7.21 28.09, 4.84 26.67, 3.39 24.6 C1.95 22.53, 0.85 18.99, 0.72 15.92 C0.59 12.85, 1.35 8.8, 2.61 6.17 C3.87 3.54, 6.81 0.99, 8.28 0.14 C9.76 -0.71, 11.21 0.81, 11.45 1.09 M9 0.79 C10.7 0.14, 12.58 0.24, 14.49 1.75 C16.39 3.26, 19.73 7.05, 20.41 9.88 C21.08 12.7, 19.53 15.61, 18.54 18.69 C17.55 21.76, 16.12 26.44, 14.47 28.32 C12.82 30.21, 10.74 30.66, 8.61 29.98 C6.49 29.31, 2.92 27.14, 1.73 24.28 C0.53 21.42, 1.14 16.06, 1.44 12.82 C1.74 9.58, 2.37 6.92, 3.52 4.85 C4.67 2.78, 7.38 1.13, 8.35 0.4 C9.32 -0.33, 9.1 0.05, 9.33 0.46" stroke="#1e1e1e" stroke-width="1" fill="none"></path></g><g stroke-linecap="round"><g transform="translate(545.9881003243582 1296.9142857142858) rotate(0 29.741396843409177 -0.30175365230297757)"><path d="M0.96 0.93 C11.06 0.97, 49.87 0.4, 59.48 0.39 M0 0.37 C10.09 0.03, 49.17 -1.3, 58.78 -1.53" stroke="#1e1e1e" stroke-width="1" fill="none"></path></g></g><mask></mask><g stroke-linecap="round"><g transform="translate(601.9881003243582 1293.9142857142858) rotate(0 0.500170048978589 45.04319964041929)"><path d="M-0.47 -0.12 C-0.28 15.18, 0.23 75.98, 0.3 91.32 M1.49 -1.23 C1.61 13.74, -0.11 74.15, -0.49 89.37" stroke="#1e1e1e" stroke-width="1" fill="none"></path></g></g><mask></mask><g transform="translate(664.9881003243582 1284.9142857142858) rotate(0 21.59166717529297 12.5)"><text x="0" y="0" font-family="Virgil, Segoe UI Emoji" font-size="20px" fill="#1e1e1e" text-anchor="start" style="white-space: pre;" direction="ltr" dominant-baseline="text-before-edge">utils</text></g><g transform="translate(672.9881003243582 1330.9142857142858) rotate(0 26.174999237060547 12.5)"><text x="0" y="0" font-family="Virgil, Segoe UI Emoji" font-size="20px" fill="#1e1e1e" text-anchor="start" style="white-space: pre;" direction="ltr" dominant-baseline="text-before-edge">types</text></g><g transform="translate(673.9881003243582 1371.9142857142858) rotate(0 31.741666793823242 12.5)"><text x="0" y="0" font-family="Virgil, Segoe UI Emoji" font-size="20px" fill="#1e1e1e" text-anchor="start" style="white-space: pre;" direction="ltr" dominant-baseline="text-before-edge">consts</text></g><g stroke-linecap="round" transform="translate(908.9881003243582 720.9142857142857) rotate(0 11 9)"><path d="M9.96 0.26 C12.32 0.29, 16.41 1.5, 18.32 2.73 C20.23 3.96, 20.88 6.04, 21.44 7.63 C22 9.22, 22.58 10.67, 21.68 12.26 C20.78 13.85, 18.44 16.27, 16.02 17.19 C13.61 18.1, 9.74 18.26, 7.2 17.75 C4.66 17.23, 1.84 15.82, 0.8 14.1 C-0.24 12.38, 0.52 9.4, 0.96 7.42 C1.4 5.45, 1.6 3.6, 3.45 2.25 C5.3 0.91, 10.28 -0.27, 12.08 -0.65 C13.88 -1.02, 14.23 -0.32, 14.24 0.01 M7.01 1.28 C8.76 0.78, 10.35 1.19, 12.7 1.35 C15.06 1.52, 19.41 1.04, 21.15 2.3 C22.89 3.55, 23.33 6.63, 23.14 8.91 C22.95 11.19, 22.07 14.54, 20.02 15.99 C17.96 17.45, 13.51 17.81, 10.82 17.63 C8.12 17.46, 5.33 15.77, 3.84 14.95 C2.36 14.13, 2.38 14.46, 1.89 12.71 C1.41 10.96, 0.27 6.5, 0.92 4.47 C1.57 2.44, 5.07 1.14, 5.8 0.53 C6.53 -0.07, 4.97 0.57, 5.28 0.85" stroke="#1e1e1e" stroke-width="1" fill="none"></path></g><g transform="translate(949.9881003243582 716.9142857142857) rotate(0 31.741666793823242 12.5)"><text x="0" y="0" font-family="Virgil, Segoe UI Emoji" font-size="20px" fill="#1e1e1e" text-anchor="start" style="white-space: pre;" direction="ltr" dominant-baseline="text-before-edge">consts</text></g><g stroke-linecap="round"><g transform="translate(1085.9881003243581 643.9142857142857) rotate(0 -20.00564493063837 -0.5600413676636435)"><path d="M-0.57 -0.15 C-7.3 -0.37, -34.16 -1.07, -40.95 -0.9 M1.33 -1.28 C-5.41 -1.4, -34.18 0.12, -41.34 0.17" stroke="#1e1e1e" stroke-width="1" fill="none"></path></g></g><mask></mask><g stroke-linecap="round"><g transform="translate(1086.9881003243581 643.9142857142857) rotate(0 -0.9692350789307511 25.243965339148417)"><path d="M-0.07 -0.51 C-0.02 8.16, -0.31 43.44, -0.48 52.31 M-1.56 -1.82 C-1.65 6.45, -2.15 41.59, -1.68 50.34" stroke="#1e1e1e" stroke-width="1" fill="none"></path></g></g><mask></mask><g stroke-linecap="round" transform="translate(902.9881003243582 675.3428571428573) rotate(0 15 13.571428571428555)"><path d="M20 3.5 M20 3.5 C21.79 6.69, 24.74 9.25, 26 10.5 M20 3.5 C22.15 5.62, 24.67 8.61, 26 10.5 M26 10.5 C30.15 13.01, 28.55 14.02, 26 17.5 M26 10.5 C30.73 13.89, 28.14 11.82, 26 17.5 M26 17.5 C24.75 19.93, 21.82 20.83, 20 23.64 M26 17.5 C25.02 18.67, 23.81 20.42, 20 23.64 M20 23.64 C15.5 26.54, 16.73 27.42, 12 23.64 M20 23.64 C17.38 28.85, 18.29 26.33, 12 23.64 M12 23.64 C10.13 21.02, 6.28 19, 4 17.5 M12 23.64 C8.4 21.64, 6.11 18.57, 4 17.5 M4 17.5 C0.18 12.03, 1.61 15.69, 4 10.5 M4 17.5 C0.32 15.55, -0.46 13.89, 4 10.5 M4 10.5 C6.87 8.43, 10.3 6.19, 12 3.5 M4 10.5 C6.47 8.63, 8.9 6.93, 12 3.5 M12 3.5 C16.59 -1.2, 17.99 1.99, 20 3.5 M12 3.5 C16.18 1.11, 16.02 1.24, 20 3.5" stroke="#1e1e1e" stroke-width="1" fill="none"></path></g><g stroke-linecap="round" transform="translate(407.98810032435824 1467.9142857142858) rotate(0 13.5 13.5)"><path d="M17.5 3.5 M17.5 3.5 C19.25 5.63, 22.08 7.56, 23.5 10.5 M17.5 3.5 C19.42 6.24, 22.43 9.21, 23.5 10.5 M23.5 10.5 C25.95 14.77, 27.47 15.35, 23.5 17.5 M23.5 10.5 C28.93 15.58, 26.32 14.93, 23.5 17.5 M23.5 17.5 C21.65 18.83, 21.77 20.02, 17.5 23.5 M23.5 17.5 C20.97 19.87, 19.21 22.21, 17.5 23.5 M17.5 23.5 C14.58 26.52, 15.46 25.84, 10.5 23.5 M17.5 23.5 C14.72 28.61, 13.13 27.41, 10.5 23.5 M10.5 23.5 C7.97 22.33, 7.18 19.93, 3.5 17.5 M10.5 23.5 C7.97 21.48, 4.74 18.93, 3.5 17.5 M3.5 17.5 C-0.87 12.56, -0.66 12.16, 3.5 10.5 M3.5 17.5 C1.31 16.23, -0.2 13.34, 3.5 10.5 M3.5 10.5 C5.58 8.4, 7.98 6.77, 10.5 3.5 M3.5 10.5 C5.66 8.37, 6.65 6.97, 10.5 3.5 M10.5 3.5 C13.52 -0.05, 14.36 -0.68, 17.5 3.5 M10.5 3.5 C14.8 -2.28, 16.08 -0.96, 17.5 3.5" stroke="#1e1e1e" stroke-width="1" fill="none"></path></g><g transform="translate(450.98810032435824 1466.9142857142858) rotate(0 34.08333206176758 12.5)"><text x="0" y="0" font-family="Virgil, Segoe UI Emoji" font-size="20px" fill="#1e1e1e" text-anchor="start" style="white-space: pre;" direction="ltr" dominant-baseline="text-before-edge">assets</text></g><g transform="translate(881.9881003243582 995.9142857142857) rotate(0 28.133333206176758 12.5)"><text x="0" y="0" font-family="Virgil, Segoe UI Emoji" font-size="20px" fill="#1e1e1e" text-anchor="start" style="white-space: pre;" direction="ltr" dominant-baseline="text-before-edge">[ ... ]</text></g><g stroke-linecap="round" transform="translate(876.9881003243582 907.9142857142857) rotate(0 9.5 13)"><path d="M12.5 3.5 M12.5 3.5 C14.08 6.19, 14.64 7.74, 16.5 10.5 M12.5 3.5 C13.33 5.43, 14.68 7.47, 16.5 10.5 M16.5 10.5 C20.62 13.83, 17.81 13.84, 16.5 17.5 M16.5 10.5 C18.64 13.37, 19.66 12.95, 16.5 17.5 M16.5 17.5 C14.42 19.33, 13.37 20.99, 12.5 22.5 M16.5 17.5 C14.94 19.33, 14.12 20.46, 12.5 22.5 M12.5 22.5 C10.53 24.21, 8.42 25.62, 7.5 22.5 M12.5 22.5 C8.45 23.81, 8.24 25, 7.5 22.5 M7.5 22.5 C5.73 20.68, 5.09 20.39, 2.5 17.5 M7.5 22.5 C5.56 20.97, 4.25 19.18, 2.5 17.5 M2.5 17.5 C0.23 14.65, 0.89 14.06, 2.5 10.5 M2.5 17.5 C-1.99 12.78, -0.34 15.91, 2.5 10.5 M2.5 10.5 C3.87 7.5, 6.06 4.82, 7.5 3.5 M2.5 10.5 C4 8.65, 5.46 6.84, 7.5 3.5 M7.5 3.5 C9.7 0.63, 11.36 -1.3, 12.5 3.5 M7.5 3.5 C11.03 1.73, 8.74 0.17, 12.5 3.5" stroke="#1e1e1e" stroke-width="1" fill="none"></path></g><g stroke-linecap="round" transform="translate(1103.9881003243581 490.9142857142857) rotate(0 13.539993286132812 12.5)"><path d="M17.5 3.25 M17.5 3.25 C19.08 5.24, 20.25 7.4, 23.58 9.75 M17.5 3.25 C18.96 5.15, 21.6 7.29, 23.58 9.75 M23.58 9.75 C25.61 14.54, 27.88 11.01, 23.58 16.25 M23.58 9.75 C27.31 14.08, 28.81 13.85, 23.58 16.25 M23.58 16.25 C21.21 18.41, 20.79 19.07, 17.5 21.75 M23.58 16.25 C22.42 17.35, 20.73 18.9, 17.5 21.75 M17.5 21.75 C15.73 24.2, 13.09 23.03, 10.5 21.75 M17.5 21.75 C16.17 24.94, 13.05 23.92, 10.5 21.75 M10.5 21.75 C7.89 18.97, 4.33 16.91, 3.5 16.25 M10.5 21.75 C8.12 20.26, 6.35 18.51, 3.5 16.25 M3.5 16.25 C-0.62 11.82, 1.62 12.82, 3.5 9.75 M3.5 16.25 C-1.79 11.11, 0.42 10.75, 3.5 9.75 M3.5 9.75 C6.61 7.11, 9.02 4.3, 10.5 3.25 M3.5 9.75 C6.1 7.49, 8.72 4.82, 10.5 3.25 M10.5 3.25 C15.19 1.41, 12.63 -1.91, 17.5 3.25 M10.5 3.25 C13.66 -1.72, 13.5 -0.46, 17.5 3.25" stroke="#1e1e1e" stroke-width="1" fill="none"></path></g><g stroke-linecap="round"><g transform="translate(1288.9881003243581 494.9142857142858) rotate(0 84.85766980014739 -0.42489870321367107)"><path d="M-0.26 0.31 C28.27 0, 141.66 -1.27, 169.97 -1.15 M1.81 -0.57 C30.28 -0.84, 141.2 -0.18, 169.01 -0.22" stroke="#1e1e1e" stroke-width="1" fill="none"></path></g></g><mask></mask><g stroke-linecap="round"><g transform="translate(1460.9881003243581 493.9142857142857) rotate(0 0.5412853518524798 42.87492273619398)"><path d="M-0.27 -0.76 C-0.57 13.57, -0.72 70.96, -0.79 85.32 M1.8 1.46 C1.78 15.98, 2.11 72.34, 1.51 86.51" stroke="#1e1e1e" stroke-width="1" fill="none"></path></g></g><mask></mask><g stroke-linecap="round" transform="translate(1478.9881003243581 492.9142857142857) rotate(0 9 8.5)"><path d="M12.2 0.02 C13.93 0.39, 15.29 2.58, 16.32 4.28 C17.35 5.99, 18.59 8.38, 18.37 10.25 C18.15 12.12, 16.61 14.48, 15.01 15.5 C13.41 16.51, 10.65 16.23, 8.78 16.33 C6.92 16.44, 5.29 17.19, 3.83 16.13 C2.37 15.06, 0.67 11.74, 0.03 9.94 C-0.61 8.14, -0.95 6.75, 0.01 5.32 C0.97 3.89, 3.73 2.08, 5.79 1.37 C7.86 0.67, 11.08 0.95, 12.42 1.08 C13.75 1.2, 13.82 1.95, 13.8 2.13 M10.21 0.77 C11.96 0.6, 14.63 1.2, 15.77 2.56 C16.9 3.91, 16.72 7.05, 17.03 8.9 C17.33 10.76, 18.71 12.46, 17.61 13.68 C16.52 14.9, 12.61 15.66, 10.45 16.21 C8.29 16.76, 6.03 17.77, 4.65 16.97 C3.27 16.17, 3 13.34, 2.17 11.38 C1.35 9.42, -0.68 6.99, -0.31 5.21 C0.06 3.43, 2.67 1.77, 4.39 0.7 C6.12 -0.36, 9.29 -1.22, 10.04 -1.17 C10.8 -1.12, 8.91 0.54, 8.9 1.01" stroke="#1e1e1e" stroke-width="1" fill="none"></path></g><g stroke-linecap="round" transform="translate(1480.9881003243581 526.4142857142857) rotate(0 9 8.5)"><path d="M5.49 0.63 C6.99 -0.32, 9.3 -0.18, 11.18 0.24 C13.05 0.67, 15.52 1.71, 16.75 3.17 C17.98 4.62, 18.63 6.98, 18.56 8.96 C18.49 10.95, 17.64 13.68, 16.31 15.09 C14.98 16.5, 12.55 17.3, 10.58 17.42 C8.62 17.53, 6.33 16.7, 4.53 15.79 C2.74 14.88, 0.33 13.64, -0.18 11.93 C-0.7 10.23, 0.62 7.49, 1.45 5.56 C2.29 3.63, 4.11 1.1, 4.84 0.36 C5.57 -0.39, 5.54 0.97, 5.85 1.07 M6.36 0.52 C8.13 -0.16, 10.16 -0.61, 12.13 0.27 C14.11 1.15, 17.17 4.1, 18.2 5.78 C19.23 7.46, 18.88 8.47, 18.31 10.34 C17.74 12.21, 16.66 15.79, 14.78 17 C12.9 18.22, 9.2 17.95, 7.03 17.62 C4.87 17.28, 2.92 16.28, 1.79 15.02 C0.66 13.76, 0.23 11.86, 0.25 10.04 C0.27 8.23, 0.69 5.83, 1.93 4.14 C3.17 2.45, 6.82 0.69, 7.68 -0.1 C8.55 -0.89, 7.31 -0.86, 7.11 -0.6" stroke="#1e1e1e" stroke-width="1" fill="none"></path></g><g stroke-linecap="round" transform="translate(1482.9881003243581 556.4142857142857) rotate(0 9 8.5)"><path d="M11.22 0.9 C13.08 1.05, 14.96 1.1, 16.04 2.27 C17.12 3.44, 17.61 5.85, 17.68 7.92 C17.75 10, 17.73 13.28, 16.48 14.7 C15.24 16.12, 12.3 16.17, 10.2 16.45 C8.09 16.73, 5.56 17.13, 3.86 16.36 C2.16 15.58, 0.71 13.64, 0.01 11.79 C-0.68 9.93, -1.12 6.94, -0.31 5.22 C0.51 3.5, 2.71 2.33, 4.9 1.46 C7.09 0.59, 11.19 -0.17, 12.82 0 C14.45 0.16, 14.88 2.11, 14.67 2.42 M9.03 0.04 C10.83 -0.29, 13.29 0.76, 14.66 1.69 C16.03 2.63, 16.97 4.14, 17.27 5.63 C17.56 7.13, 17.03 8.8, 16.44 10.69 C15.85 12.57, 15.32 16.13, 13.71 16.94 C12.1 17.75, 8.67 16.26, 6.78 15.55 C4.88 14.84, 3.47 13.74, 2.33 12.69 C1.19 11.64, 0.05 11, -0.05 9.26 C-0.16 7.52, 0.2 3.95, 1.7 2.25 C3.2 0.54, 8.14 -0.47, 8.94 -0.98 C9.75 -1.49, 6.6 -1.08, 6.54 -0.83" stroke="#1e1e1e" stroke-width="1" fill="none"></path></g><g transform="translate(1521.9881003243581 487.9142857142857) rotate(0 58.96666717529297 12.5)"><text x="0" y="0" font-family="Virgil, Segoe UI Emoji" font-size="20px" fill="#1e1e1e" text-anchor="start" style="white-space: pre;" direction="ltr" dominant-baseline="text-before-edge">ProjectCard</text></g><g transform="translate(1519.9881003243581 517.9142857142857) rotate(0 93.42500305175781 12.5)"><text x="0" y="0" font-family="Virgil, Segoe UI Emoji" font-size="20px" fill="#1e1e1e" text-anchor="start" style="white-space: pre;" direction="ltr" dominant-baseline="text-before-edge">ProjectCardButton</text></g><g transform="translate(1521.9881003243581 550.9142857142857) rotate(0 23.633333206176758 12.5)"><text x="0" y="0" font-family="Virgil, Segoe UI Emoji" font-size="20px" fill="#1e1e1e" text-anchor="start" style="white-space: pre;" direction="ltr" dominant-baseline="text-before-edge">index</text></g><g stroke-linecap="round" transform="translate(885.9881003243582 1129.9142857142858) rotate(0 10 13.5)"><path d="M13.75 3.5 M13.75 3.5 C14.19 4.72, 15.68 7.2, 17.25 10.5 M13.75 3.5 C15.2 6.35, 16.79 9.05, 17.25 10.5 M17.25 10.5 C19.35 15.16, 19.54 14.47, 17.25 17.5 M17.25 10.5 C18.29 12.64, 19.77 12.48, 17.25 17.5 M17.25 17.5 C15.6 19.19, 14.23 21.71, 13.75 23.5 M17.25 17.5 C15.89 19.75, 15.24 21.78, 13.75 23.5 M13.75 23.5 C10.73 26.52, 12.9 27.17, 8.25 23.5 M13.75 23.5 C12.35 27.86, 12.47 25.29, 8.25 23.5 M8.25 23.5 C5.96 21.83, 4.49 18.6, 2.75 17.5 M8.25 23.5 C6.66 22.6, 5.49 20.85, 2.75 17.5 M2.75 17.5 C-1.8 15.2, 0.73 14.5, 2.75 10.5 M2.75 17.5 C0.94 11.87, 1.85 16.27, 2.75 10.5 M2.75 10.5 C5.4 7.16, 6.6 4.98, 8.25 3.5 M2.75 10.5 C3.95 8.43, 6.06 6.34, 8.25 3.5 M8.25 3.5 C12.08 0.64, 10.3 0.18, 13.75 3.5 M8.25 3.5 C9.59 2.19, 10.07 -2.23, 13.75 3.5" stroke="#1e1e1e" stroke-width="1" fill="none"></path></g><g transform="translate(919.9881003243582 1130.9142857142858) rotate(0 17.933332443237305 12.5)"><text x="0" y="0" font-family="Virgil, Segoe UI Emoji" font-size="20px" fill="#1e1e1e" text-anchor="start" style="white-space: pre;" direction="ltr" dominant-baseline="text-before-edge">map</text></g><g transform="translate(888.8581335885184 1182.4142857142858) rotate(0 28.133333206176758 12.5)"><text x="0" y="0" font-family="Virgil, Segoe UI Emoji" font-size="20px" fill="#1e1e1e" text-anchor="start" style="white-space: pre;" direction="ltr" dominant-baseline="text-before-edge">[ ... ]</text></g><g transform="translate(619.8581335885184 923.4142857142857) rotate(0 28.133333206176758 12.5)"><text x="0" y="0" font-family="Virgil, Segoe UI Emoji" font-size="20px" fill="#1e1e1e" text-anchor="start" style="white-space: pre;" direction="ltr" dominant-baseline="text-before-edge">[ ... ]</text></g><g transform="translate(617.8581335885184 440.4142857142857) rotate(0 28.133333206176758 12.5)"><text x="0" y="0" font-family="Virgil, Segoe UI Emoji" font-size="20px" fill="#1e1e1e" text-anchor="start" style="white-space: pre;" direction="ltr" dominant-baseline="text-before-edge">[ ... ]</text></g><g stroke-linecap="round"><g transform="translate(399.98810032435824 469.9142857142857) rotate(0 443.5109436925501 0.16298308409750462)"><path d="M0.25 -0.7 C148.1 -0.58, 739.23 0.91, 886.78 1.02" stroke="#1e1e1e" stroke-width="1.5" fill="none" stroke-dasharray="1.5 7"></path></g></g><mask></mask><g stroke-linecap="round"><g transform="translate(395.47715663180827 1252.7513026301883) rotate(0 493.94352478031067 0.717125262859895)"><path d="M-0.52 1 C164.39 1.15, 823.9 0.63, 988.41 0.41" stroke="#1e1e1e" stroke-width="1.5" fill="none" stroke-dasharray="1.5 7"></path></g></g><mask></mask><g stroke-linecap="round"><g transform="translate(395.98810032435824 1450.9142857142858) rotate(0 491.51795336566875 0.36192767366708267)"><path d="M-0.08 0.43 C163.91 0.63, 819.19 0.34, 983.11 0.23" stroke="#1e1e1e" stroke-width="1.5" fill="none" stroke-dasharray="1.5 7"></path></g></g><mask></mask></svg>