<svg xmlns="http://www.w3.org/2000/svg" id="svg5" width="1000mm" height="1000mm" version="1.1" viewBox="0 0 32 32"><defs id="defs2"><style id="style2">.cls-1,.cls-2{fill:none;stroke-linecap:round;stroke-linejoin:round;stroke:#aa026d;stroke-width:10px}.cls-2{stroke:#71196f}</style></defs><g id="g1170" style="display:inline;stroke-width:2.70399" transform="matrix(.11 0 0 .11067 -12.315 -12.55)"><path id="path1166" d="M16 0A16 16 0 0 0 0 16v7.352C0 27.035 4.41 32 7.404 32h17.192C27.59 32 32 27.035 32 23.352V16A16 16 0 0 0 16 0Z" style="display:inline;opacity:1;fill:#24292e;fill-opacity:1;stroke:#000;stroke-width:0" transform="matrix(9.0909 0 0 9.03618 111.952 113.397)"/><path id="path1168" d="M2530.85 112.066c-235.682 83.113-449.394 190.046-641.254 318.782-191.79-128.657-405.428-235.597-641.016-318.727A1889.764 1889.764 0 0 0 977.244 234.97c279.276 76.603 525.81 184.842 742.649 321.224-165.019 131.902-313.064 280.198-438.877 448.622-.482.636-.86 1.376-1.342 2.015-248.839-141.732-539.177-240.653-871.623-289.914A1889.764 1889.764 0 0 0 279.576 900.58c349.35 39.617 643.234 132.49 889.537 270.242-99.353 157.07-184.233 326.297-253.379 508.102C685.377 1523.687 402.525 1421.61 69.8 1381.022a1889.764 1889.764 0 0 0-43.557 195.007c340.121 38.489 611.456 141.52 823.961 298.473-84.578 273.636-131.312 576.104-154.916 895.229-29.77-55.05-62.387-107.852-100.142-156.598C451.53 2427.71 250.437 2293.66 0 2218.856v207.89c188.033 65.49 332.01 169.951 439.219 308.371 153.086 197.652 233.217 471.543 233.217 815.248v176.989c68.438 32.58 135.529 51.276 197.595 52.14v-629.023c0-417.098 47.45-796.739 142.147-1135.166 27.087 28.02 53.458 56.328 77.963 86.7 234.045 290.094 354.193 694.093 354.193 1198.005v479.517h197.596V3158.2c0-477.824 83.686-887.35 247.666-1222.538 164.013 335.206 248.002 744.665 248.002 1222.537v621.328h197.595v-479.515c0-503.912 120.148-907.913 354.194-1198.006 24.405-30.25 50.658-58.447 77.625-86.363 94.634 338.35 142.484 717.854 142.484 1134.828v629.024c62.067-.865 129.157-19.56 197.596-52.141v-176.987c0-343.7 80.11-617.596 233.217-815.25 107.223-138.42 251.192-242.88 439.218-308.369v-207.89c-250.43 74.805-451.513 208.854-595.144 394.275-37.74 48.72-70.382 101.58-100.143 156.598-23.604-319.152-70.666-621.576-155.252-895.227 212.54-157.047 484.064-259.978 824.313-298.475a1889.764 1889.764 0 0 0-43.557-195.052c-332.86 40.56-615.513 142.655-845.95 297.947-69.119-181.766-154.4-350.72-253.714-507.766 246.373-137.844 540.384-230.943 889.873-270.576a1889.764 1889.764 0 0 0-128.432-183.67c-332.464 49.259-622.816 148.181-871.666 289.92-.482-.636-.86-1.376-1.341-2.016-125.829-168.45-273.84-316.702-438.88-448.623 216.866-136.39 463.41-244.635 742.704-321.24a1889.764 1889.764 0 0 0-271.488-122.887Zm-641.254 561.07c168.135 127.646 316.225 274.218 442.236 440.893-144.281 102.488-273.33 220.162-382.42 356.21-21.26 26.514-39.929 55.322-59.816 83.003-19.852-27.625-38.26-56.54-59.48-83.004-109.09-136.047-238.139-253.721-382.42-356.209 125.965-166.606 273.841-313.283 441.9-440.892zm-553.133 603.876c128.528 91.964 242.734 197.254 339.744 318.236 35.064 43.73 67.691 89.886 98.797 137.443-122.876 216.265-211.773 460.396-265.477 730.565-64.553-181.194-152.04-344.826-266.148-486.26-49.448-61.29-105.01-117.053-163.654-169.703 68.617-192.196 154.526-368.81 256.738-530.281zm1106.6 0c102.208 161.476 188.126 338.08 256.74 530.281-58.683 52.675-114.514 108.379-163.99 169.703-114.109 141.434-201.26 305.066-265.813 486.26-53.703-270.169-142.6-514.3-265.477-730.565 31.077-47.502 63.77-93.76 98.797-137.443 97.04-121.02 211.16-226.253 339.742-318.236z" style="color:#000;display:inline;fill:#cdd9e5;fill-opacity:1;stroke-width:35.2367;stroke-linecap:round;stroke-linejoin:round;-inkscape-stroke:none" transform="matrix(.07697 0 0 .0765 111.952 113.397)"/></g></svg>