<svg fill-rule="evenodd" stroke-linejoin="round" stroke-width="28.222"
   preserveAspectRatio="xMidYMid" version="1.2" viewBox="1738 1397 22559 11375"
   xmlns="http://www.w3.org/2000/svg" xmlns:ooo="http://xml.openoffice.org/svg/export">
   <g class="prefix__prefix__Page" ooo:name="page1">
      <g class="prefix__prefix__com_sun_star_drawing_CustomShape">
         <path class="prefix__prefix__BoundingBox" d="M1849 9345h3609v1138H1849z" fill="none" />
         <path d="M3653 10469H1862V9358h3582v1111H3653z" fill="#EEE" />
         <path d="M3653 10469H1862V9358h3582v1111H3653z" fill="none" stroke="#B7B7B7"
            stroke-width="26" />
      </g>
      <g class="prefix__prefix__com_sun_star_drawing_CustomShape">
         <path class="prefix__prefix__BoundingBox" d="M2072 3589h3609v1432H2072z" fill="none" />
         <path d="M3876 5007H2085V3602h3582v1405H3876z" fill="#EEE" />
         <path d="M3876 5007H2085V3602h3582v1405H3876z" fill="none" stroke="#CCC"
            stroke-width="26" />
      </g>
      <g class="prefix__prefix__com_sun_star_drawing_CustomShape">
         <path class="prefix__prefix__BoundingBox" d="M1961 3700h3609v1432H1961z" fill="none" />
         <path d="M3765 5118H1974V3713h3582v1405H3765z" fill="#EEE" />
         <path d="M3765 5118H1974V3713h3582v1405H3765z" fill="none" stroke="#CCC"
            stroke-width="26" />
      </g>
      <g class="prefix__prefix__com_sun_star_drawing_CustomShape">
         <path class="prefix__prefix__BoundingBox" d="M2449 5762h2854v1432H2449z" fill="none" />
         <path d="M3876 7180H2462V5775h2827v1405H3876z" fill="#F3F3F3" />
         <path d="M3876 7180H2462V5775h2827v1405H3876z" fill="none" stroke="#D9D9D9"
            stroke-width="26" />
      </g>
      <g class="prefix__prefix__com_sun_star_drawing_CustomShape">
         <path class="prefix__prefix__BoundingBox" d="M2338 5873h2854v1432H2338z" fill="none" />
         <path d="M3765 7291H2351V5886h2827v1405H3765z" fill="#F3F3F3" />
         <path d="M3765 7291H2351V5886h2827v1405H3765z" fill="none" stroke="#D9D9D9"
            stroke-width="26" />
      </g>
      <g class="prefix__prefix__com_sun_star_drawing_CustomShape">
         <path class="prefix__prefix__BoundingBox" d="M5981 1397h18316v11375H5981z" fill="none" />
         <path
            d="M5995 2034c0-109 29-217 83-312 55-94 134-173 229-228 94-54 202-83 311-83h17041c109 0 217 29 312 83 94 55 173 134 228 229 54 94 83 202 83 311l1 10100c0 109-29 217-83 312-55 94-134 173-229 228-94 54-202 83-311 83l-17042 1c-109 0-217-29-312-83-94-55-173-134-228-229-54-94-83-202-83-311V2034z"
            fill="#F3F3F3" />
         <path
            d="M5995 2034c0-109 29-217 83-312 55-94 134-173 229-228 94-54 202-83 311-83h17041c109 0 217 29 312 83 94 55 173 134 228 229 54 94 83 202 83 311l1 10100c0 109-29 217-83 312-55 94-134 173-229 228-94 54-202 83-311 83l-17042 1c-109 0-217-29-312-83-94-55-173-134-228-229-54-94-83-202-83-311V2034z"
            fill="none" stroke="#B7B7B7" stroke-width="26" />
      </g>
      <g class="prefix__prefix__com_sun_star_drawing_CustomShape">
         <path class="prefix__prefix__BoundingBox" d="M7526 2598h15816v6300H7526z" fill="none" />
         <path
            d="M7540 2956c0-60 16-120 46-172 30-53 74-96 126-126 53-30 112-46 172-46h15099c60 0 120 16 172 46 53 30 96 74 126 126 30 53 46 112 46 172l1 5583c0 60-16 120-46 172-30 53-74 96-126 126-53 30-112 46-172 46l-15100 1c-60 0-120-16-172-46-53-30-96-74-126-126-30-53-46-112-46-172V2956z"
            fill="#F3F3F3" />
         <path
            d="M7540 2956c0-60 16-120 46-172 30-53 74-96 126-126 53-30 112-46 172-46h15099c60 0 120 16 172 46 53 30 96 74 126 126 30 53 46 112 46 172l1 5583c0 60-16 120-46 172-30 53-74 96-126 126-53 30-112 46-172 46l-15100 1c-60 0-120-16-172-46-53-30-96-74-126-126-30-53-46-112-46-172V2956z"
            fill="none" stroke="#CCC" stroke-width="26" />
      </g>
      <g class="prefix__prefix__Group">
         <g class="prefix__prefix__com_sun_star_drawing_PolyPolygonShape">
            <path class="prefix__prefix__BoundingBox" d="M7428 2724h15789v6273H7428z"
               fill="none" />
            <path
               d="M7428 3068l1-22 2-23 4-22 5-22 7-21 8-21 9-21 11-20 11-19 28-36 15-16 34-30 18-13 20-12 20-11 20-9 21-8 22-6 22-5 22-4 22-2 23-1h15098l23 1 22 2 23 4 22 5 21 7 21 8 21 9 20 11 19 11 36 28 16 15 30 34 13 18 12 20 20 40 8 21 6 22 5 22 4 22 2 22 1 23v5605l-3 22-3 23-5 22-7 21-8 21-9 21-11 20-12 19-13 18-14 18-15 16-34 30-19 13-19 12-40 20-21 8-22 6-22 5-22 4-22 2-23 1H7750l-23-3-22-3-22-5-21-7-21-8-21-9-20-11-19-12-18-13-18-14-16-15-30-34-13-19-12-19-11-20-9-20-8-21-6-22-5-22-4-22-2-22-1-23V3068z"
               fill="#F3F3F3" />
         </g>
         <g class="prefix__prefix__com_sun_star_drawing_PolyPolygonShape" fill="none">
            <path class="prefix__prefix__BoundingBox" d="M7415 2711h15815v6299H7415z" />
            <path
               d="M7428 3068l1-22 2-23 4-22 5-22 7-21 8-21 9-21 11-20 11-19 28-36 15-16 34-30 18-13 20-12 20-11 20-9 21-8 22-6 22-5 22-4 22-2 23-1h15098l23 1 22 2 23 4 22 5 21 7 21 8 21 9 20 11 19 11 36 28 16 15 30 34 13 18 12 20 20 40 8 21 6 22 5 22 4 22 2 22 1 23v5605l-3 22-3 23-5 22-7 21-8 21-9 21-11 20-12 19-13 18-14 18-15 16-34 30-19 13-19 12-40 20-21 8-22 6-22 5-22 4-22 2-23 1H7750l-23-3-22-3-22-5-21-7-21-8-21-9-20-11-19-12-18-13-18-14-16-15-30-34-13-19-12-19-11-20-9-20-8-21-6-22-5-22-4-22-2-22-1-23V3068z"
               stroke="#B7B7B7" stroke-width="26" />
         </g>
      </g>
      <g class="prefix__prefix__com_sun_star_drawing_CustomShape">
         <path class="prefix__prefix__BoundingBox" d="M10524 6694h10516v2046H10524z" fill="none" />
         <path
            d="M10538 6818c0-19 5-39 15-55 10-17 24-31 40-41 17-10 36-15 56-15l10266 1c19 0 39 5 55 15 17 10 31 24 41 40 10 17 15 36 15 56v1796c0 19-5 39-15 55-10 17-24 31-40 41-17 10-36 15-56 15H10648c-19 0-39-5-55-15-17-10-31-24-41-40-10-17-15-36-15-56l1-1797z"
            fill="#F3F3F3" />
         <path
            d="M10538 6818c0-19 5-39 15-55 10-17 24-31 40-41 17-10 36-15 56-15l10266 1c19 0 39 5 55 15 17 10 31 24 41 40 10 17 15 36 15 56v1796c0 19-5 39-15 55-10 17-24 31-40 41-17 10-36 15-56 15H10648c-19 0-39-5-55-15-17-10-31-24-41-40-10-17-15-36-15-56l1-1797z"
            fill="none" stroke="#B7B7B7" stroke-width="26" />
      </g>
      <g class="prefix__prefix__com_sun_star_drawing_CustomShape">
         <path class="prefix__prefix__BoundingBox" d="M1849 3830h3609v1432H1849z" fill="none" />
         <path d="M3653 5248H1862V3843h3582v1405H3653z" fill="#EEE" />
         <path d="M3653 5248H1862V3843h3582v1405H3653z" fill="none" stroke="#595959"
            stroke-width="26" />
         <text class="prefix__prefix__SVGTextShape">
            <tspan class="prefix__prefix__TextParagraph">
               <tspan class="prefix__prefix__TextPosition" x="2979" y="4475">
                  <tspan fill="#434343" font-family="Consolas, sans-serif" font-size="353"
                     font-weight="400" style="white-space:pre">driving </tspan>
               </tspan>
               <tspan class="prefix__prefix__TextPosition" x="2496" y="4899">
                  <tspan fill="#434343" font-family="Consolas, sans-serif" font-size="353"
                     font-weight="400" style="white-space:pre">instructions</tspan>
               </tspan>
            </tspan>
         </text>
      </g>
      <g class="prefix__prefix__com_sun_star_drawing_CustomShape">
         <path class="prefix__prefix__BoundingBox" d="M6294 1410h8333v934H6294z" fill="none" />
         <text class="prefix__prefix__SVGTextShape">
            <tspan class="prefix__prefix__TextParagraph">
               <tspan class="prefix__prefix__TextPosition" x="6548" y="2017">
                  <tspan fill="#B7B7B7" font-family="Arial, sans-serif" font-size="353"
                     font-weight="400" style="white-space:pre">Train simulation</tspan>
               </tspan>
            </tspan>
         </text>
      </g>
      <g class="prefix__prefix__com_sun_star_drawing_CustomShape">
         <path class="prefix__prefix__BoundingBox" d="M2226 5985h2854v1432H2226z" fill="none" />
         <path d="M3653 7403H2239V5998h2827v1405H3653z" fill="#EEE" />
         <path d="M3653 7403H2239V5998h2827v1405H3653z" fill="none" stroke="#B7B7B7"
            stroke-width="26" />
         <text class="prefix__prefix__SVGTextShape">
            <tspan class="prefix__prefix__TextParagraph">
               <tspan class="prefix__prefix__TextPosition" x="2593" y="6842">
                  <tspan fill="#666" font-family="Consolas, sans-serif" font-size="353"
                     font-weight="400" style="white-space:pre">constraints</tspan>
               </tspan>
            </tspan>
         </text>
      </g>
      <g class="prefix__prefix__com_sun_star_drawing_CustomShape">
         <path class="prefix__prefix__BoundingBox" d="M3549 5250h212v763h-212z" fill="none" />
         <path d="M3653 5999c0-187 0-374 1-374 0 0 0-75 1-179" fill="none" stroke="#B7B7B7"
            stroke-width="26" />
         <path d="M3655 5250l105 210h-210l105-210z" fill="#B7B7B7" />
      </g>
      <g class="prefix__prefix__com_sun_star_drawing_CustomShape">
         <path class="prefix__prefix__BoundingBox" d="M1738 9456h3609v1138H1738z" fill="none" />
         <path d="M3542 10580H1751V9469h3582v1111H3542z" fill="#EEE" />
         <path d="M3542 10580H1751V9469h3582v1111H3542z" fill="none" stroke="#595959"
            stroke-width="26" />
         <text class="prefix__prefix__SVGTextShape">
            <tspan class="prefix__prefix__TextParagraph">
               <tspan class="prefix__prefix__TextPosition" x="2770" y="10166">
                  <tspan fill="#434343" font-family="Consolas, sans-serif" font-size="353"
                     font-weight="400" style="white-space:pre">schedule</tspan>
               </tspan>
            </tspan>
         </text>
      </g>
      <g class="prefix__prefix__com_sun_star_drawing_CustomShape">
         <path class="prefix__prefix__BoundingBox" d="M7621 2724h8333v934H7621z" fill="none" />
         <text class="prefix__prefix__SVGTextShape">
            <tspan class="prefix__prefix__TextParagraph">
               <tspan class="prefix__prefix__TextPosition" x="7875" y="3331">
                  <tspan fill="#B7B7B7" font-family="Arial, sans-serif" font-size="353"
                     font-weight="400" style="white-space:pre">Time-bound section</tspan>
               </tspan>
            </tspan>
         </text>
      </g>
      <g class="prefix__prefix__com_sun_star_drawing_CustomShape">
         <path class="prefix__prefix__BoundingBox" d="M12562 3958h7055v2192h-7055z" fill="none" />
         <path
            d="M12576 4090c0-21 5-41 16-59 10-18 25-33 43-44 18-10 39-16 60-16l6789 1c21 0 41 5 59 16 18 10 33 25 44 43 10 18 16 39 16 60v1926c0 21-5 41-16 59-10 18-25 33-43 44-18 10-39 16-60 16h-6790c-21 0-41-5-59-16-18-10-33-25-44-43-10-18-16-39-16-60l1-1927z"
            fill="#F3F3F3" />
         <path
            d="M12576 4090c0-21 5-41 16-59 10-18 25-33 43-44 18-10 39-16 60-16l6789 1c21 0 41 5 59 16 18 10 33 25 44 43 10 18 16 39 16 60v1926c0 21-5 41-16 59-10 18-25 33-43 44-18 10-39 16-60 16h-6790c-21 0-41-5-59-16-18-10-33-25-44-43-10-18-16-39-16-60l1-1927z"
            fill="none" stroke="#D9D9D9" stroke-width="26" />
      </g>
      <g class="prefix__prefix__com_sun_star_drawing_CustomShape">
         <path class="prefix__prefix__BoundingBox" d="M12456 4064h7055v2192h-7055z" fill="none" />
         <path
            d="M12470 4196c0-21 5-41 16-59 10-18 25-33 43-44 18-10 39-16 60-16l6789 1c21 0 41 5 59 16 18 10 33 25 44 43 10 18 16 39 16 60v1926c0 21-5 41-16 59-10 18-25 33-43 44-18 10-39 16-60 16h-6790c-21 0-41-5-59-16-18-10-33-25-44-43-10-18-16-39-16-60l1-1927z"
            fill="#F3F3F3" />
         <path
            d="M12470 4196c0-21 5-41 16-59 10-18 25-33 43-44 18-10 39-16 60-16l6789 1c21 0 41 5 59 16 18 10 33 25 44 43 10 18 16 39 16 60v1926c0 21-5 41-16 59-10 18-25 33-43 44-18 10-39 16-60 16h-6790c-21 0-41-5-59-16-18-10-33-25-44-43-10-18-16-39-16-60l1-1927z"
            fill="none" stroke="#D9D9D9" stroke-width="26" />
      </g>
      <g class="prefix__prefix__com_sun_star_drawing_CustomShape">
         <path class="prefix__prefix__BoundingBox" d="M12349 4171h7055v2192h-7055z" fill="none" />
         <path
            d="M12363 4303c0-21 5-41 16-59 10-18 25-33 43-44 18-10 39-16 60-16l6789 1c21 0 41 5 59 16 18 10 33 25 44 43 10 18 16 39 16 60v1926c0 21-5 41-16 59-10 18-25 33-43 44-18 10-39 16-60 16h-6790c-21 0-41-5-59-16-18-10-33-25-44-43-10-18-16-39-16-60l1-1927z"
            fill="#F3F3F3" />
         <path
            d="M12363 4303c0-21 5-41 16-59 10-18 25-33 43-44 18-10 39-16 60-16l6789 1c21 0 41 5 59 16 18 10 33 25 44 43 10 18 16 39 16 60v1926c0 21-5 41-16 59-10 18-25 33-43 44-18 10-39 16-60 16h-6790c-21 0-41-5-59-16-18-10-33-25-44-43-10-18-16-39-16-60l1-1927z"
            fill="none" stroke="#B7B7B7" stroke-width="26" />
      </g>
      <g class="prefix__prefix__com_sun_star_drawing_CustomShape">
         <path class="prefix__prefix__BoundingBox" d="M5432 4442h6932v212H5432z" fill="none" />
         <path d="M5445 4546c1729 0 3458 0 3458 1 0 0 1601 1 3263 1" fill="none" stroke="#595959"
            stroke-width="26" />
         <path d="M12363 4548l-210 105v-210l210 105z" fill="#595959" />
      </g>
      <g class="prefix__prefix__com_sun_star_drawing_CustomShape">
         <path class="prefix__prefix__BoundingBox" d="M11015 7331h2713v982h-2713z" fill="none" />
         <path d="M12371 8299h-1343v-955h2686v955h-1343z" fill="#EEE" />
         <path d="M12371 8299h-1343v-955h2686v955h-1343z" fill="none" stroke="#595959"
            stroke-width="26" />
         <text class="prefix__prefix__SVGTextShape">
            <tspan class="prefix__prefix__TextParagraph">
               <tspan class="prefix__prefix__TextPosition" x="11697" y="7751">
                  <tspan fill="#434343" font-family="Consolas, sans-serif" font-size="353"
                     font-weight="400" style="white-space:pre">current </tspan>
               </tspan>
               <tspan class="prefix__prefix__TextPosition" x="11889" y="8175">
                  <tspan fill="#434343" font-family="Consolas, sans-serif" font-size="353"
                     font-weight="400" style="white-space:pre">state</tspan>
               </tspan>
            </tspan>
         </text>
      </g>
      <g class="prefix__prefix__com_sun_star_drawing_CustomShape">
         <path class="prefix__prefix__BoundingBox" d="M1921 11050h3242v1432H1921z" fill="none" />
         <path d="M3542 12468H1934v-1405h3215v1405H3542z" fill="#EEE" />
         <path d="M3542 12468H1934v-1405h3215v1405H3542z" fill="none" stroke="#595959"
            stroke-width="26" />
         <text class="prefix__prefix__SVGTextShape">
            <tspan class="prefix__prefix__TextParagraph">
               <tspan class="prefix__prefix__TextPosition" x="2287" y="11695">
                  <tspan fill="#434343" font-family="Consolas, sans-serif" font-size="353"
                     font-weight="400" style="white-space:pre">initial train </tspan>
               </tspan>
               <tspan class="prefix__prefix__TextPosition" x="3060" y="12119">
                  <tspan fill="#434343" font-family="Consolas, sans-serif" font-size="353"
                     font-weight="400" style="white-space:pre">state</tspan>
               </tspan>
            </tspan>
         </text>
      </g>
      <g class="prefix__prefix__com_sun_star_drawing_CustomShape">
         <path class="prefix__prefix__BoundingBox" d="M12357 5507h2212v1852h-2212z" fill="none" />
         <path d="M12370 7345c0-871 974-1641 2005-1734" fill="none" stroke="red"
            stroke-width="26" />
         <path d="M14568 5602l-205 115-10-210 215 95z" fill="red" />
      </g>
      <g class="prefix__prefix__com_sun_star_drawing_CustomShape">
         <path class="prefix__prefix__BoundingBox" d="M14134 7330h3449v984h-3449z" fill="none" />
         <path
            d="M14148 7503c0-28 7-55 21-80 14-24 34-44 59-58 24-14 51-21 79-21h3102c28 0 55 7 80 21 24 14 44 34 58 59 14 24 21 51 21 79l1 637c0 28-7 55-21 80-14 24-34 44-59 58-24 14-51 21-79 21l-3103 1c-28 0-55-7-80-21-24-14-44-34-58-59-14-24-21-51-21-79v-638z"
            fill="#EFEFEF" />
         <path
            d="M14148 7503c0-28 7-55 21-80 14-24 34-44 59-58 24-14 51-21 79-21h3102c28 0 55 7 80 21 24 14 44 34 58 59 14 24 21 51 21 79l1 637c0 28-7 55-21 80-14 24-34 44-59 58-24 14-51 21-79 21l-3103 1c-28 0-55-7-80-21-24-14-44-34-58-59-14-24-21-51-21-79v-638z"
            fill="none" stroke="#666" stroke-width="26" />
         <text class="prefix__prefix__SVGTextShape">
            <tspan class="prefix__prefix__TextParagraph">
               <tspan class="prefix__prefix__TextPosition" x="14508" y="7962">
                  <tspan fill="#434343" font-family="Consolas, sans-serif" font-size="353"
                     font-weight="400" style="white-space:pre">reconciliation</tspan>
               </tspan>
            </tspan>
         </text>
      </g>
      <g class="prefix__prefix__com_sun_star_drawing_CustomShape">
         <path class="prefix__prefix__BoundingBox" d="M13714 7718h448v212h-448z" fill="none" />
         <path d="M14147 7822c-108 0-216 0-216 1h-20" fill="none" stroke="red" stroke-width="26" />
         <path d="M13714 7824l210-106v210l-210-104z" fill="red" />
      </g>
      <g class="prefix__prefix__com_sun_star_drawing_CustomShape">
         <path class="prefix__prefix__BoundingBox" d="M10244 7718h786v212h-786z" fill="none" />
         <path d="M10258 7842c192 0 385-5 385-10s81-6 190-8" fill="none" stroke="#595959"
            stroke-width="26" />
         <path d="M11029 7822l-209 107-2-210 211 103z" fill="#595959" />
      </g>
      <g class="prefix__prefix__com_sun_star_drawing_CustomShape">
         <path class="prefix__prefix__BoundingBox" d="M21014 7625h385v209h-385z" fill="none" />
         <path d="M21027 7717c92 0 161 8 181 17" fill="none" stroke="#595959" stroke-width="26" />
         <path d="M21398 7759l-223 74 30-208 193 134z" fill="#595959" />
      </g>
      <g class="prefix__prefix__com_sun_star_drawing_CustomShape">
         <path class="prefix__prefix__BoundingBox" d="M17569 7718h427v212h-427z" fill="none" />
         <path d="M17982 7824c-103 0-206 0-206-1h-11" fill="none" stroke="red" stroke-width="26" />
         <path d="M17569 7822l211-104-2 210-209-106z" fill="red" />
      </g>
      <g class="prefix__prefix__com_sun_star_drawing_CustomShape">
         <path class="prefix__prefix__BoundingBox" d="M21384 7089h1827v1343h-1827z" fill="none" />
         <path d="M22297 8418h-900V7102h1800v1316h-900z" fill="#EEE" />
         <path d="M22297 8418h-900V7102h1800v1316h-900z" fill="none" stroke="#595959"
            stroke-width="26" />
         <text class="prefix__prefix__SVGTextShape">
            <tspan class="prefix__prefix__TextParagraph">
               <tspan class="prefix__prefix__TextPosition" x="21596" y="7704">
                  <tspan fill="#434343" font-family="Consolas, sans-serif" font-size="282"
                     font-weight="400" style="white-space:pre">section’s </tspan>
               </tspan>
               <tspan class="prefix__prefix__TextPosition" x="21439" y="8042">
                  <tspan fill="#434343" font-family="Consolas, sans-serif" font-size="282"
                     font-weight="400" style="white-space:pre">final state</tspan>
               </tspan>
            </tspan>
         </text>
      </g>
      <g class="prefix__prefix__com_sun_star_drawing_CustomShape">
         <path class="prefix__prefix__BoundingBox" d="M13068 9402h3244v1309h-3244z" fill="none" />
         <path
            d="M13082 9629c0-37 10-74 29-107 18-32 45-59 78-78 32-18 69-28 106-28h2789c37 0 74 10 107 29 32 18 59 45 78 78 18 32 28 69 28 106l1 853c0 37-10 74-29 107-18 32-45 59-78 78-32 18-69 28-106 28l-2790 1c-37 0-74-10-107-29-32-18-59-45-78-78-18-32-28-69-28-106v-854z"
            fill="#EFEFEF" />
         <path
            d="M13082 9629c0-37 10-74 29-107 18-32 45-59 78-78 32-18 69-28 106-28h2789c37 0 74 10 107 29 32 18 59 45 78 78 18 32 28 69 28 106l1 853c0 37-10 74-29 107-18 32-45 59-78 78-32 18-69 28-106 28l-2790 1c-37 0-74-10-107-29-32-18-59-45-78-78-18-32-28-69-28-106v-854z"
            fill="none" stroke="#666" stroke-width="26" />
         <text class="prefix__prefix__SVGTextShape">
            <tspan class="prefix__prefix__TextParagraph">
               <tspan class="prefix__prefix__TextPosition" x="13917" y="9984">
                  <tspan fill="#434343" font-family="Consolas, sans-serif" font-size="353"
                     font-weight="400" style="white-space:pre">Schedule </tspan>
               </tspan>
               <tspan class="prefix__prefix__TextPosition" x="13725" y="10408">
                  <tspan fill="#434343" font-family="Consolas, sans-serif" font-size="353"
                     font-weight="400" style="white-space:pre">controller</tspan>
               </tspan>
            </tspan>
         </text>
      </g>
      <g class="prefix__prefix__com_sun_star_drawing_CustomShape">
         <path class="prefix__prefix__BoundingBox" d="M6766 6791h6331v3280H6766z" fill="none" />
         <path d="M13083 10057c-3152 0-6304-813-6304-1627s223-1338 486-1555" fill="none"
            stroke="#6AA84F" stroke-width="26" />
         <path d="M7440 6802l-149 181-86-192 235 11z" fill="#6AA84F" />
      </g>
      <g class="prefix__prefix__com_sun_star_drawing_CustomShape">
         <path class="prefix__prefix__BoundingBox" d="M18191 7120h2494v982h-2494z" fill="none" />
         <path d="M19438 8088h-1234v-955h2467v955h-1233z" fill="#EEE" />
         <path d="M19438 8088h-1234v-955h2467v955h-1233z" fill="none" stroke="#B7B7B7"
            stroke-width="26" />
      </g>
      <g class="prefix__prefix__com_sun_star_drawing_CustomShape">
         <path class="prefix__prefix__BoundingBox" d="M18080 7221h2494v982h-2494z" fill="none" />
         <path d="M19327 8189h-1234v-955h2467v955h-1233z" fill="#EEE" />
         <path d="M19327 8189h-1234v-955h2467v955h-1233z" fill="none" stroke="#B7B7B7"
            stroke-width="26" />
      </g>
      <g class="prefix__prefix__com_sun_star_drawing_CustomShape">
         <path class="prefix__prefix__BoundingBox" d="M17968 7332h2494v982h-2494z" fill="none" />
         <path d="M19215 8300h-1234v-955h2467v955h-1233z" fill="#EEE" />
         <path d="M19215 8300h-1234v-955h2467v955h-1233z" fill="none" stroke="#595959"
            stroke-width="26" />
         <text class="prefix__prefix__SVGTextShape">
            <tspan class="prefix__prefix__TextParagraph">
               <tspan class="prefix__prefix__TextPosition" x="18347" y="7752">
                  <tspan fill="#434343" font-family="Consolas, sans-serif" font-size="353"
                     font-weight="400" style="white-space:pre">potential </tspan>
               </tspan>
               <tspan class="prefix__prefix__TextPosition" x="18637" y="8176">
                  <tspan fill="#434343" font-family="Consolas, sans-serif" font-size="353"
                     font-weight="400" style="white-space:pre">states</tspan>
               </tspan>
            </tspan>
         </text>
      </g>
      <g class="prefix__prefix__com_sun_star_drawing_CustomShape">
         <path class="prefix__prefix__BoundingBox" d="M17384 5588h1921v1759h-1921z" fill="none" />
         <path d="M17397 5601c909 0 1685 748 1805 1552" fill="none" stroke="red"
            stroke-width="26" />
         <path d="M19216 7345l-122-201 210-17-88 218z" fill="red" />
      </g>
      <g class="prefix__prefix__com_sun_star_drawing_CustomShape">
         <path class="prefix__prefix__BoundingBox" d="M7427 7299h2843v1087H7427z" fill="none" />
         <path d="M8848 8372H7440V7312h2816v1060H8848z" fill="#EEE" />
         <path d="M8848 8372H7440V7312h2816v1060H8848z" fill="none" stroke="#595959"
            stroke-width="26" />
         <text class="prefix__prefix__SVGTextShape">
            <tspan class="prefix__prefix__TextParagraph">
               <tspan class="prefix__prefix__TextPosition" x="7694" y="7786">
                  <tspan fill="#434343" font-family="Consolas, sans-serif" font-size="282"
                     font-weight="400" style="white-space:pre">section’s </tspan>
               </tspan>
               <tspan class="prefix__prefix__TextPosition" x="7694" y="8124">
                  <tspan fill="#434343" font-family="Consolas, sans-serif" font-size="282"
                     font-weight="400" style="white-space:pre">initial state</tspan>
               </tspan>
            </tspan>
         </text>
      </g>
      <g class="prefix__prefix__com_sun_star_drawing_CustomShape">
         <path class="prefix__prefix__BoundingBox" d="M10244 5182h2121v1634h-2121z" fill="none" />
         <path d="M10257 6802c526 0 1053-383 1053-767 0-383 405-672 860-750" fill="none"
            stroke="#595959" stroke-width="26" />
         <path d="M12364 5268l-199 124-20-209 219 85z" fill="#595959" />
      </g>
      <g class="prefix__prefix__com_sun_star_drawing_CustomShape">
         <path class="prefix__prefix__BoundingBox" d="M12363 4099h7027v934h-7027z" fill="none" />
         <text class="prefix__prefix__SVGTextShape">
            <tspan class="prefix__prefix__TextParagraph">
               <tspan class="prefix__prefix__TextPosition" x="14061" y="4706">
                  <tspan fill="#B7B7B7" font-family="Arial, sans-serif" font-size="353"
                     font-weight="400" style="white-space:pre">Driver behavior module</tspan>
               </tspan>
            </tspan>
         </text>
      </g>
      <g class="prefix__prefix__com_sun_star_drawing_CustomShape">
         <path class="prefix__prefix__BoundingBox" d="M14554 5109h2856v985h-2856z" fill="none" />
         <path
            d="M14568 5282c0-28 7-55 21-80 14-24 34-44 59-58 24-14 51-21 79-21h2509c28 0 55 7 80 21 24 14 44 34 58 59 14 24 21 51 21 79l1 637c0 28-7 55-21 80-14 24-34 44-59 58-24 14-51 21-79 21l-2510 1c-28 0-55-7-80-21-24-14-44-34-58-59-14-24-21-51-21-79v-638z"
            fill="#EFEFEF" />
         <path
            d="M14568 5282c0-28 7-55 21-80 14-24 34-44 59-58 24-14 51-21 79-21h2509c28 0 55 7 80 21 24 14 44 34 58 59 14 24 21 51 21 79l1 637c0 28-7 55-21 80-14 24-34 44-59 58-24 14-51 21-79 21l-2510 1c-28 0-55-7-80-21-24-14-44-34-58-59-14-24-21-51-21-79v-638z"
            fill="none" stroke="#666" stroke-width="26" />
         <text class="prefix__prefix__SVGTextShape">
            <tspan class="prefix__prefix__TextParagraph">
               <tspan class="prefix__prefix__TextPosition" x="15209" y="5741">
                  <tspan fill="#434343" font-family="Consolas, sans-serif" font-size="353"
                     font-weight="400" style="white-space:pre">reaction</tspan>
               </tspan>
            </tspan>
         </text>
      </g>
      <g class="prefix__prefix__com_sun_star_drawing_CustomShape">
         <path class="prefix__prefix__BoundingBox" d="M15753 6351h228v995h-228z" fill="none" />
         <path d="M15859 7149c1-168 3-301 8-301 4 0 6-133 8-302" fill="none" stroke="red"
            stroke-width="26" />
         <path d="M15858 7345l-104-210h210l-106 210zm18-994l104 211-210-2 106-209z" fill="red" />
      </g>
      <g class="prefix__prefix__com_sun_star_drawing_CustomShape">
         <path class="prefix__prefix__BoundingBox" d="M16298 8404h6023v1758h-6023z" fill="none" />
         <path d="M22307 8417c0 820-2879 1606-5819 1639" fill="none" stroke="#6AA84F"
            stroke-width="26" />
         <path d="M16299 10057l209-106 2 210-211-104z" fill="#6AA84F" />
      </g>
      <g class="prefix__prefix__com_sun_star_drawing_CustomShape">
         <path class="prefix__prefix__BoundingBox" d="M7427 6259h2843v1087H7427z" fill="none" />
         <path d="M8848 7332H7440V6272h2816v1060H8848z" fill="#EEE" />
         <path d="M8848 7332H7440V6272h2816v1060H8848z" fill="none" stroke="#595959"
            stroke-width="26" />
         <text class="prefix__prefix__SVGTextShape">
            <tspan class="prefix__prefix__TextParagraph">
               <tspan class="prefix__prefix__TextPosition" x="7694" y="6915">
                  <tspan fill="#434343" font-family="Consolas, sans-serif" font-size="282"
                     font-weight="400" style="white-space:pre">slowdown ratio</tspan>
               </tspan>
            </tspan>
         </text>
      </g>
      <g class="prefix__prefix__com_sun_star_drawing_CustomShape">
         <path class="prefix__prefix__BoundingBox" d="M12414 11103h4555v1309h-4555z" fill="none" />
         <path
            d="M12428 11330c0-37 10-74 29-107 18-32 45-59 78-78 32-18 69-28 106-28h4100c37 0 74 10 107 29 32 18 59 45 78 78 18 32 28 69 28 106l1 853c0 37-10 74-29 107-18 32-45 59-78 78-32 18-69 28-106 28l-4101 1c-37 0-74-10-107-29-32-18-59-45-78-78-18-32-28-69-28-106v-854z"
            fill="#EFEFEF" />
         <path
            d="M12428 11330c0-37 10-74 29-107 18-32 45-59 78-78 32-18 69-28 106-28h4100c37 0 74 10 107 29 32 18 59 45 78 78 18 32 28 69 28 106l1 853c0 37-10 74-29 107-18 32-45 59-78 78-32 18-69 28-106 28l-4101 1c-37 0-74-10-107-29-32-18-59-45-78-78-18-32-28-69-28-106v-854z"
            fill="none" stroke="#666" stroke-width="26" />
         <text class="prefix__prefix__SVGTextShape">
            <tspan class="prefix__prefix__TextParagraph">
               <tspan class="prefix__prefix__TextPosition" x="12953" y="11685">
                  <tspan fill="#434343" font-family="Consolas, sans-serif" font-size="353"
                     font-weight="400" style="white-space:pre">Time bound section </tspan>
               </tspan>
               <tspan class="prefix__prefix__TextPosition" x="13726" y="12109">
                  <tspan fill="#434343" font-family="Consolas, sans-serif" font-size="353"
                     font-weight="400" style="white-space:pre">iterations</tspan>
               </tspan>
            </tspan>
         </text>
      </g>
      <g class="prefix__prefix__com_sun_star_drawing_CustomShape">
         <path class="prefix__prefix__BoundingBox" d="M16954 8404h5367v3456h-5367z" fill="none" />
         <path d="M22307 8417c0 1670-2551 3261-5164 3337" fill="none" stroke="#15C"
            stroke-width="26" />
         <path d="M16954 11757l208-108 4 210-212-102z" fill="#15C" />
      </g>
      <g class="prefix__prefix__com_sun_star_drawing_CustomShape">
         <path class="prefix__prefix__BoundingBox" d="M6766 7842h5676v3930H6766z" fill="none" />
         <path d="M12428 11758c-2824 0-5649-978-5649-1957s227-1621 492-1876" fill="none"
            stroke="#15C" stroke-width="26" />
         <path d="M7440 7843l-139 190-96-187 235-3z" fill="#15C" />
      </g>
      <g class="prefix__prefix__com_sun_star_drawing_CustomShape">
         <path class="prefix__prefix__BoundingBox" d="M14585 10698h211v434h-211z" fill="none" />
         <path d="M14691 11118l-1-224" fill="none" stroke="#595959" stroke-width="26" />
         <path d="M14689 10698l106 209-210 1 104-210z" fill="#595959" />
      </g>
      <g class="prefix__prefix__com_sun_star_drawing_CustomShape">
         <path class="prefix__prefix__BoundingBox" d="M5322 9951h7762v212H5322z" fill="none" />
         <path d="M5335 10055c1937 0 3874 0 3874 1 0 0 1808 1 3677 1" fill="none"
            stroke="#595959" stroke-width="26" />
         <path d="M13083 10057l-210 105v-210l210 105z" fill="#595959" />
      </g>
      <g class="prefix__prefix__com_sun_star_drawing_CustomShape">
         <path class="prefix__prefix__BoundingBox" d="M5138 11653h7291v212H5138z" fill="none" />
         <path d="M5151 11767c1819 0 3638-2 3638-4s1691-5 3443-5" fill="none" stroke="#595959"
            stroke-width="26" />
         <path d="M12428 11758l-210 105v-210l210 105z" fill="#595959" />
      </g>
   </g>
</svg>
