<svg fill="none" stroke-linecap="square" stroke-miterlimit="10" width="433.593" height="251.694"
   xmlns="http://www.w3.org/2000/svg">
   <defs>
      <marker id="prefix__a" refX="0" refY="0" orient="auto-start-reverse" markerWidth="1"
         markerHeight="1" viewBox="0 0 1 1" preserveAspectRatio="xMidYMid" markerUnits="strokeWidth"
         overflow="visible">
         <path d="M0 0l5-5-17.5 5L5 5z" transform="scale(-.5)" fill="context-stroke"
            fill-rule="evenodd" />
      </marker>
      <marker id="prefix__b" refX="0" refY="0" orient="auto-start-reverse" markerWidth="1"
         markerHeight="1" viewBox="0 0 1 1" preserveAspectRatio="xMidYMid" markerUnits="strokeWidth"
         overflow="visible">
         <path d="M0 0l5-5-17.5 5L5 5z" transform="scale(-.5)" fill="context-stroke"
            fill-rule="evenodd" />
      </marker>
   </defs>
   <path d="M55.342 103.202h370.511" fill="red" stroke="#f22b2b" stroke-width="2" />
   <path d="M-66.22-109.114h960v540h-960z" />
   <path d="M78.655 39.091s205.655-24.978 342.203 149.87" stroke="#f22b2b" stroke-width="2" />
   <path d="M-66.22-109.114h960v540h-960z" />
   <text style="-inkscape-font-specification:'Calibri Bold';white-space:pre;inline-size:155.082"
      x="156.531" y="79.931" transform="translate(-142.264 -24.503)" font-weight="700"
      font-size="18.667" font-family="Calibri" fill="#f80000" stroke-width="2">
      <tspan x="156.531" y="79.931">Constraint A</tspan>
   </text>
   <text style="-inkscape-font-specification:'Calibri Bold'" x="15.652" y="119.051"
      font-weight="700" font-size="18.667" font-family="Calibri" fill="#000" stroke-width="2">
      <tspan x="15.652" y="119.051" fill="#f80000">Constraint B</tspan>
   </text>
   <text style="-inkscape-font-specification:'Calibri Bold'" x="51.301" y="224.934"
      font-weight="700" font-size="18.667" font-family="Calibri" fill="#000" stroke-width="2">
      <tspan x="51.301" y="224.934">Current state</tspan>
   </text>
   <path d="M168.577 103.202l-62.446 93.253L257.666 68.233" stroke="#000" stroke-width="2" />
   <path d="M-66.22-109.114h960v540h-960z" />
   <g fill="#000" stroke="#000" stroke-width="2">
      <path d="M99.36 195.394l8.83 8.831-1.177 1.177-8.831-8.83z" />
      <path d="M108.19 196.572l-8.83 8.831-1.178-1.177 8.832-8.831z" />
   </g>
   <path d="M-66.22-109.114h960v540h-960z" />
   <g fill="#000" stroke="#000" stroke-width="2">
      <path d="M164.346 98.036l8.831 8.831-1.177 1.178-8.831-8.831z" />
      <path d="M173.178 99.214l-8.831 8.831-1.177-1.177 8.83-8.831z" />
   </g>
   <path d="M-66.22-109.114h960v540h-960z" />
   <g fill="#000" stroke="#000" stroke-width="2">
      <path d="M255.312 62.694l8.83 8.831-1.177 1.178-8.83-8.831z" />
      <path d="M264.143 63.872l-8.83 8.831-1.178-1.177 8.831-8.831z" />
   </g>
   <path d="M-66.22-109.114h960v540h-960z" />
   <path
      d="M221.517 99.044l-8.832 8.83-1.177-1.177 8.831-8.83 1.178 1.177zm-8.831-1.178l8.83 8.831-1.177 1.178-8.831-8.831 1.177-1.178z"
      fill="#2aff2e" stroke="#00d718" stroke-width="2" />
   <path d="M-91.822-124.725h960v540h-960z" />
   <text style="-inkscape-font-specification:'Calibri Bold'" x="128.655" y="92.826"
      font-weight="700" font-size="18.667" font-family="Calibri" fill="#000" stroke="#000"
      stroke-width="2">
      <tspan x="128.655" y="92.826" stroke="none">State B</tspan>
   </text>
   <text style="-inkscape-font-specification:'Calibri Bold'" x="219.703" y="123.281"
      font-weight="700" font-size="18.667" font-family="Calibri" fill="#00d718" stroke="#000"
      stroke-width="2">
      <tspan x="219.703" y="123.281" stroke="none">Desirable state</tspan>
   </text>
   <text style="-inkscape-font-specification:'Calibri Bold'" x="238.75" y="49.848" font-weight="700"
      font-size="18.667" font-family="Calibri" fill="#000" stroke-width="2">
      <tspan x="238.75" y="49.848">State A</tspan>
   </text>
   <path d="M3.884 246.576H420.8" stroke="#000" stroke-width="2.047" marker-end="url(#prefix__a)" />
   <path d="M3.797 245.516V16.03" stroke="#000" stroke-width="1.519" marker-end="url(#prefix__b)" />
   <text style="-inkscape-font-specification:'Calibri Bold'" x="373.843" y="238.714"
      font-weight="700" font-size="18.667" font-family="Calibri" stroke="#000" stroke-width="1.9">
      <tspan x="373.843" y="238.714" fill="#000" stroke="none">Time</tspan>
   </text>
   <text style="-inkscape-font-specification:'Calibri Bold'" x="7.911" y="12.66" font-weight="700"
      font-size="18.667" font-family="Calibri" fill="#000" stroke-width="1.9">
      <tspan x="7.911" y="12.66">Speed</tspan>
   </text>
</svg>
