<svg xmlns="http://www.w3.org/2000/svg" xml:space="preserve" width="644.464" height="128"><path d="M42.964 93.07c-2.12 9.151-3.236 18.971-3.236 29.573v5.356h18.525c-3.125-14.73-8.705-26.113-15.289-34.929ZM0 64.167v22.208a70.735 70.735 0 0 1 10.602 5.133c9.485 5.803 16.739 14.06 21.649 24.328V81.24c-3.794-3.348-7.7-6.138-11.494-8.37C13.503 68.744 6.249 65.954 0 64.168Zm39.728 13.838c4.798-12.61 11.829-23.547 21.091-32.809V0H39.728Zm5.802 6.138c5.915 6.919 11.272 15.4 15.29 26.001V56.467c-6.585 8.035-11.718 17.297-15.29 27.676ZM112.376 0H68.408v38.5c13.168-10.378 27.564-16.181 39.728-19.306 2.008-.558 4.129.67 4.575 2.679.558 2.008-.67 4.017-2.678 4.575-12.722 3.236-28.234 9.597-41.514 21.984V83.92c3.237-7.03 7.477-13.056 12.722-18.301 10.49-10.378 23.435-15.735 34.037-18.525 2.008-.558 4.129.67 4.575 2.678.558 2.01-.67 4.018-2.678 4.576-5.245 1.339-11.271 3.46-17.074 6.695-21.203 11.495-31.47 31.693-31.47 61.6V128h43.857c8.704 0 15.735-7.03 15.735-15.734v-96.53C127.999 7.03 120.969 0 112.376 0ZM24.55 66.51c2.456 1.451 5.023 3.125 7.59 5.134V0H15.734C7.03 0 0 7.03 0 15.735v40.62c7.254 1.898 15.846 5.022 24.55 10.156zM6.026 97.646C4.017 96.418 2.01 95.414 0 94.52v17.744c0 8.704 7.03 15.734 15.735 15.734H28.68c-4.018-13.614-11.606-23.77-22.654-30.353Zm219.061 23.993c-34.371 0-59.926-23.659-59.926-58.588 0-35.375 25.555-57.583 59.926-57.583 34.595 0 60.15 22.32 60.15 57.583-.112 34.93-25.667 58.588-60.15 58.588zm0-92.178c-18.636 0-31.47 14.284-31.47 33.59 0 19.976 12.945 34.26 31.47 34.26s31.582-14.284 31.582-34.148c0-19.306-12.946-33.702-31.582-33.702zm147.975 7.7c-4.464-5.803-12.722-9.485-19.64-9.485-6.92 0-15.4 2.343-15.4 11.047 0 7.366 6.583 9.71 16.962 12.945 14.953 4.8 34.26 11.16 34.26 33.144 0 25.332-20.423 36.715-42.184 36.715-15.734 0-31.58-5.803-41.29-15.847l17.41-17.743c5.244 6.696 15.064 11.717 23.769 11.717 8.146 0 15.288-3.124 15.288-11.94 0-8.37-8.37-11.048-22.877-15.735-13.949-4.687-28.01-11.83-28.01-31.805 0-24.44 22.096-34.594 42.63-34.594 12.498 0 26.447 4.687 36.156 13.503zm110.256 81.576-23.77-43.745h-9.039v43.745h-26.113V8.481h42.071c21.203 0 42.183 8.147 42.183 33.367 0 14.842-8.704 25.332-22.877 29.684l28.792 47.205zm-18.86-88.83h-14.172v25.667h12.61c8.593 0 19.306-2.232 19.306-13.391 0-10.267-9.709-12.276-17.744-12.276zm118.292 88.83h-41.068V8.481h39.728c31.247 0 63.051 13.057 63.051 54.793 0 38.724-31.358 55.463-61.712 55.463zm-1.898-87.602h-13.28v64.502h12.61c18.972 0 36.604-7.812 36.604-32.363 0-24.774-17.632-32.139-35.934-32.139z"/></svg>