<?xml version="1.0" encoding="utf-8" ?>
<svg xmlns="http://www.w3.org/2000/svg" xmlns:xlink="http://www.w3.org/1999/xlink" width="111" height="56">
	<path transform="translate(44 4)" d="M8.5679998 25.288C13.008 25.288 15.936 22.312 15.936 16.624001C15.936 10.936 13.008 7.96 8.5679998 7.96C4.1279998 7.96 1.2 10.936 1.2 16.624001C1.2 22.312 4.1279998 25.288 8.5679998 25.288ZM8.5679998 22.048C6.3839998 22.048 5.0640001 20.535999 5.0640001 17.872L5.0640001 15.376C5.0640001 12.712 6.3839998 11.2 8.5679998 11.2C10.752 11.2 12.072 12.712 12.072 15.376L12.072 17.872C12.072 20.535999 10.752 22.048 8.5679998 22.048ZM24.612 25.288C28.788 25.288 31.139999 23.056 31.139999 19.84C31.139999 16.959999 29.483999 15.424 26.052 14.872L24.396 14.608C23.004 14.392 22.403999 13.96 22.403999 12.808C22.403999 11.8 23.195999 11.176 24.827999 11.176C26.556 11.176 27.636 11.824 28.427999 12.76L30.851999 10.312C29.483999 8.8000002 27.563999 7.96 25.044001 7.96C21.108 7.96 18.756001 10.048 18.756001 13.048C18.756001 15.856 20.364 17.584 23.892 18.040001L25.548 18.256001C27.108 18.472 27.492001 19.143999 27.492001 20.056C27.492001 21.280001 26.628 22.072001 24.851999 22.072001C23.219999 22.072001 21.780001 21.424 20.652 20.152L18.252001 22.576C19.691999 24.16 21.684 25.288 24.612 25.288ZM38.112 18.856001L40.728001 18.856001L43.655998 25L47.712002 25L44.424 18.424C46.464001 17.656 47.472 15.856 47.472 13.6C47.472 10.408 45.504002 8.2480001 42.408001 8.2480001L34.464001 8.2480001L34.464001 25L38.112 25L38.112 18.856001ZM38.112 15.784L38.112 11.416L41.952 11.416C43.032001 11.416 43.703999 11.992 43.703999 13.072L43.703999 14.128C43.703999 15.208 43.032001 15.784 41.952 15.784L38.112 15.784ZM50.939999 25L57.251999 25C61.692001 25 64.620003 22.191999 64.620003 16.624001C64.620003 11.056 61.692001 8.2480001 57.251999 8.2480001L50.939999 8.2480001L50.939999 25ZM54.588001 21.76L54.588001 11.488L57.251999 11.488C59.411999 11.488 60.756001 12.664 60.756001 15.328L60.756001 17.92C60.756001 20.584 59.411999 21.76 57.251999 21.76L54.588001 21.76Z"/>
	<path fill="#126EA5" transform="translate(5.71429 5.71429)" d="M9.5734005 20.738537C11.040555 22.702806 12.283948 25.239183 12.980232 28.521837L8.8521194 28.521837L8.8521194 27.328035C8.8521194 24.965832 9.1008787 22.777395 9.5734005 20.738537L9.5734005 20.738537ZM13.551935 12.582298L13.551935 24.5429C12.656886 22.180695 11.463083 20.291012 10.145506 18.749269C10.940971 16.436655 12.08478 14.3728 13.551935 12.582298L13.551935 12.582298ZM13.551935 0L13.551935 10.070918C11.48808 12.134773 9.9213409 14.571566 8.8521194 17.381699L8.8521194 0L13.551935 0ZM0 21.061884C0.4475247 21.260649 0.89504939 21.484411 1.3425741 21.758167C3.8043633 23.225323 5.4952807 25.487944 6.3903303 28.521837L3.5060134 28.521837C1.5663365 28.521837 0 26.955099 0 25.015421L0 21.061884ZM0 14.298213C1.3921647 14.696147 3.0084949 15.317843 4.624825 16.23789C5.470284 16.735004 6.3407397 17.356701 7.1861987 18.102575L7.1861987 25.811289C6.0919805 23.523672 4.4756503 21.68358 2.3622048 20.390596C1.5663365 19.918076 0.7708714 19.545137 0 19.246384L0 14.298213ZM7.1612015 0L7.1612015 15.964133C6.589499 15.516609 6.0173931 15.143672 5.470284 14.820325C3.5310102 13.676517 1.6163303 12.980232 0 12.557302L0 3.5060134C0 1.5667397 1.5663365 0 3.5060134 0L7.1612015 0ZM25.040419 0L15.242853 0L15.242853 8.5787668C18.177164 6.2661524 21.384827 4.9731688 24.095375 4.2768846C24.5429 4.1527066 25.015421 4.4260597 25.115005 4.8735843C25.239183 5.3215122 24.965832 5.7690368 24.517902 5.8932152C21.683176 6.6144958 18.226753 8.0316572 15.26785 10.791796L15.26785 18.699678C15.988728 17.132938 16.933771 15.789962 18.102575 14.621559C20.440187 12.308946 23.324503 11.115143 25.686708 10.493446C26.134233 10.369268 26.606754 10.642621 26.706339 11.090549C26.830517 11.538074 26.557165 11.985599 26.10964 12.109776C24.940834 12.408127 23.597857 12.880648 22.304873 13.601929C17.580463 16.163301 15.292847 20.66395 15.292847 27.328035L15.292847 28.521837L25.065012 28.521837C27.004688 28.521837 28.571428 26.955099 28.571428 25.015421L28.571428 3.5060134C28.521435 1.5667397 26.955099 0 25.040419 0L25.040419 0Z" fill-rule="evenodd"/>
</svg>
