<svg xmlns="http://www.w3.org/2000/svg" xml:space="preserve" id="svg36" width="110.767" height="22" x="0" y="0" version="1.1"><style id="style1" type="text/css">.st9{fill:#fff}</style><g id="ok" transform="scale(.1918)"><g id="g36"><g id="g29"><path id="path23" d="M38.5 83.4c-1.9 8.2-2.9 17-2.9 26.5v4.8h16.6c-2.8-13.2-7.8-23.4-13.7-31.3Z" class="st9"/><path id="path24" d="M0 57.5v19.9c3.1 1.2 6.3 2.7 9.5 4.6 8.5 5.2 15 12.6 19.4 21.8v-31c-3.4-3-6.9-5.5-10.3-7.5-6.5-3.7-13-6.2-18.6-7.8Z" class="st9"/><path id="path25" d="M35.6 69.9c4.3-11.3 10.6-21.1 18.9-29.4V0H35.6Z" class="st9"/><path id="path26" d="M40.8 75.4c5.3 6.2 10.1 13.8 13.7 23.3V50.6C48.6 57.8 44 66.1 40.8 75.4Z" class="st9"/><path id="path27" d="M100.7 0H61.3v34.5C73.1 25.2 86 20 96.9 17.2c1.8-.5 3.7.6 4.1 2.4.5 1.8-.6 3.6-2.4 4.1-11.4 2.9-25.3 8.6-37.2 19.7v31.8c2.9-6.3 6.7-11.7 11.4-16.4 9.4-9.3 21-14.1 30.5-16.6 1.8-.5 3.7.6 4.1 2.4.5 1.8-.6 3.6-2.4 4.1-4.7 1.2-10.1 3.1-15.3 6-19 10.3-28.2 28.4-28.2 55.2v4.8h39.3c7.8 0 14.1-6.3 14.1-14.1V14.1C114.7 6.3 108.4 0 100.7 0Z" class="st9"/><path id="path28" d="M22 59.6c2.2 1.3 4.5 2.8 6.8 4.6V0H14.1C6.3 0 0 6.3 0 14.1v36.4c6.5 1.7 14.2 4.5 22 9.1z" class="st9"/><path id="path29" d="M5.4 87.5c-1.8-1.1-3.6-2-5.4-2.8v15.9c0 7.8 6.3 14.1 14.1 14.1h11.6c-3.6-12.2-10.4-21.3-20.3-27.2Z" class="st9"/></g><g id="g30"><path id="path30" d="M201.7 109c-30.8 0-53.7-21.2-53.7-52.5 0-31.7 22.9-51.6 53.7-51.6 31 0 53.9 20 53.9 51.6-.1 31.3-23 52.5-53.9 52.5zm0-82.6c-16.7 0-28.2 12.8-28.2 30.1 0 17.9 11.6 30.7 28.2 30.7S230 74.4 230 56.6c0-17.3-11.6-30.2-28.3-30.2z" class="st9"/></g><g id="g32"><g id="g31"><path id="path31" d="M334.3 33.3c-4-5.2-11.4-8.5-17.6-8.5-6.2 0-13.8 2.1-13.8 9.9 0 6.6 5.9 8.7 15.2 11.6 13.4 4.3 30.7 10 30.7 29.7 0 22.7-18.3 32.9-37.8 32.9-14.1 0-28.3-5.2-37-14.2l15.6-15.9c4.7 6 13.5 10.5 21.3 10.5 7.3 0 13.7-2.8 13.7-10.7 0-7.5-7.5-9.9-20.5-14.1C291.6 60.3 279 53.9 279 36c0-21.9 19.8-31 38.2-31 11.2 0 23.7 4.2 32.4 12.1z" class="st9"/></g></g><g id="g34"><g id="g33"><path id="path32" d="m433.1 106.4-21.3-39.2h-8.1v39.2h-23.4V7.6H418c19 0 37.8 7.3 37.8 29.9 0 13.3-7.8 22.7-20.5 26.6l25.8 42.3zm-16.9-79.6h-12.7v23h11.3c7.7 0 17.3-2 17.3-12 0-9.2-8.7-11-15.9-11z" class="st9"/></g></g><g id="g35"><path id="path34" d="M522.2 106.4h-36.8V7.6H521c28 0 56.5 11.7 56.5 49.1 0 34.7-28.1 49.7-55.3 49.7zm-1.7-78.5h-11.9v57.8h11.3c17 0 32.8-7 32.8-29 0-22.2-15.8-28.8-32.2-28.8z" class="st9"/></g></g></g></svg>