<svg xmlns="http://www.w3.org/2000/svg" xml:space="preserve" id="svg35" width="110.674" height="22" x="0" y="0" version="1.1"><style id="style1" type="text/css">.st9{fill:#fff}</style><g id="ok" transform="translate(-14.662 -25.176) scale(.12964)"><g id="g29"><path id="path23" d="M170.1 317.5c-2.9 12-4.3 25.1-4.3 39.2v7.2h24.5c-4.2-19.6-11.5-34.7-20.2-46.4z" class="st9"/><path id="path24" d="M113.1 279.2v29.4c4.5 1.7 9.3 3.9 14 6.8 12.6 7.8 22.2 18.6 28.6 32.3v-45.8c-5.1-4.5-10.2-8.1-15.2-11.1-9.5-5.6-19-9.2-27.4-11.6z" class="st9"/><path id="path25" d="M165.7 297.5c6.3-16.6 15.7-31.1 28-43.4v-59.9h-28z" class="st9"/><path id="path26" d="M173.5 305.6c7.8 9.1 14.9 20.5 20.3 34.5v-71.2c-8.9 10.7-15.7 22.9-20.3 36.7z" class="st9"/><path id="path27" d="M261.9 194.2h-58.1v51c17.4-13.8 36.5-21.4 52.5-25.5 2.7-.7 5.4.9 6.1 3.6.7 2.7-.9 5.3-3.6 6-16.8 4.3-37.4 12.8-55.1 29.1v46.9c4.3-9.2 9.9-17.4 16.8-24.3 13.9-13.8 31.1-20.9 45-24.5 2.7-.7 5.4.9 6.1 3.6.7 2.7-.9 5.4-3.6 6-7 1.8-14.9 4.6-22.7 8.8-28 15.2-41.6 42-41.6 81.7v7.2h58.1c11.5 0 20.8-9.3 20.8-20.8V215c.1-11.5-9.2-20.8-20.7-20.8z" class="st9"/><path id="path28" d="M145.7 282.3c3.3 2 6.7 4.2 10.1 6.8v-94.8H134c-11.5 0-20.8 9.3-20.8 20.8v53.8c9.6 2.4 21 6.5 32.5 13.4z" class="st9"/><path id="path29" d="M121.1 323.5c-2.7-1.6-5.4-2.9-8-4.1V343c0 11.5 9.3 20.8 20.8 20.8h17.2c-5.4-18.1-15.4-31.6-30-40.3z" class="st9"/></g><g id="g30"><path id="path30" d="M411.2 355.3c-45.6 0-79.4-31.3-79.4-77.5 0-46.8 33.8-76.3 79.4-76.3 45.8 0 79.6 29.5 79.6 76.3 0 46.2-33.8 77.5-79.6 77.5zm0-122.1c-24.7 0-41.7 19-41.7 44.5 0 26.4 17.1 45.4 41.7 45.4s41.9-19 41.9-45.4c-.1-25.5-17.2-44.5-41.9-44.5z" class="st9"/></g><g id="g32"><g id="g31"><path id="path31" d="M607.3 243.3c-6-7.6-16.9-12.6-26-12.6-9.1 0-20.4 3.1-20.4 14.6 0 9.7 8.7 12.8 22.5 17.1 19.8 6.4 45.4 14.8 45.4 43.9 0 33.6-27 48.7-55.9 48.7-20.8 0-41.9-7.6-54.6-21l23.1-23.5c7 8.9 20 15.5 31.5 15.5 10.7 0 20.2-4.1 20.2-15.9 0-11.1-11.1-14.6-30.3-20.8-18.6-6-37.3-15.5-37.3-41.9 0-32.4 29.3-45.8 56.5-45.8 16.5 0 35.1 6.2 47.8 17.9z" class="st9"/></g></g><g id="g34"><g id="g33"><path id="path32" d="m753.3 351.4-31.5-57.9h-12v57.9h-34.6v-146h55.7c28 0 55.9 10.7 55.9 44.1 0 19.6-11.5 33.6-30.3 39.4l38.1 62.5zm-25-117.5h-18.8v34h16.7c11.3 0 25.6-2.9 25.6-17.7 0-13.7-13-16.3-23.5-16.3z" class="st9"/></g></g><g id="g35"><path id="path34" d="M884.9 351.4h-54.4v-146h52.8c41.4 0 83.5 17.3 83.5 72.6-.1 51.3-41.7 73.4-81.9 73.4zm-2.5-115.9h-17.5v85.4h16.7c25.2 0 48.5-10.3 48.5-42.9-.1-32.8-23.4-42.5-47.7-42.5z" class="st9"/></g></g></svg>